<svg width="512" height="512" viewBox="0 0 512 512" fill="none" xmlns="http://www.w3.org/2000/svg">
<rect width="512" height="512" fill="#FEB7E5"/>
<path d="M255.888 359.887C268.922 359.887 280.58 364.804 289.684 374.087H289.683C298.88 383.153 303.758 394.74 303.758 407.693C303.758 420.768 298.799 432.424 289.605 441.602C280.725 450.467 269.52 455.199 257.094 455.486L255.888 455.5C242.993 455.5 231.388 450.77 222.151 441.806L222.145 441.799L222.031 441.689L221.942 441.604L221.856 441.515L221.746 441.402L221.739 441.395C212.759 432.173 208.017 420.581 208.017 407.693C208.017 394.794 212.776 383.162 221.944 374.009C231.138 364.831 242.806 359.887 255.888 359.887ZM253.463 56.5049C278.057 56.6937 300.454 62.8297 319.843 75.5986H319.842C339.416 88.3911 353.446 105.699 361.042 127.273L361.376 128.225C364.782 138.062 366.5 148.229 366.5 158.637L366.489 160.254C366.269 176.927 362.62 192.481 354.841 206.267C347.904 218.559 339.532 229.438 329.669 238.747L329.603 238.81L329.585 238.824L329.586 238.825L329.555 238.854L329.522 238.885C321.151 246.635 313.413 253.595 306.318 259.754L306.312 259.761L306.304 259.767L306.261 259.805L306.237 259.824C300.372 264.863 295.8 269.254 292.371 273.014C292.195 273.283 291.412 274.748 291.393 278.816C291.395 278.834 291.396 278.854 291.399 278.878C291.424 279.075 291.481 279.451 291.605 280.03H291.604C292.432 283.741 292.739 287.488 292.739 291.094C292.739 301.729 288.89 311.426 281.557 319.103L280.836 319.839L280.758 319.916L280.694 319.98L280.629 320.043L280.55 320.118L280.546 320.122C272.575 327.774 262.552 331.492 251.84 331.492C241.616 331.492 230.363 328.455 222.129 319.061L222.127 319.059L221.965 318.874L221.826 318.715L221.694 318.551L221.544 318.363L221.069 317.761C216.218 311.516 213.023 304.402 211.393 296.737L211.353 296.55L211.317 296.388L211.289 296.224L211.256 296.035L211.255 296.031C210.2 290.066 209.591 284.268 209.591 278.746C209.591 262.88 212.891 248.003 220.454 234.976H220.453C226.89 223.747 234.834 213.811 244.288 205.28C252.314 198.038 260.149 191.3 267.79 185.072C273.721 180.239 277.732 175.711 280.336 171.622C281.927 168.953 283.095 166.53 283.927 164.35C284.312 163.246 284.701 161.436 284.701 158.637C284.701 155.176 284.066 152.758 283.118 150.921C282.176 149.096 280.646 147.305 278.052 145.503L278.035 145.491L278.02 145.479L277.943 145.427L277.844 145.356L277.771 145.304C271.625 140.882 263.652 138.194 252.739 138.194C243.629 138.194 237.426 140.557 232.785 144.243L232.714 144.302L232.642 144.358L232.604 144.387C229.3 146.958 227.299 150.247 227.299 156.841V157.769C227.463 159.321 227.524 160.824 227.524 162.229C227.524 173.222 223.399 183.288 215.331 191.033C207.36 198.685 197.337 202.402 186.625 202.402C173.633 202.402 160.183 197.333 152.601 183.708C147.948 175.348 145.5 166.221 145.5 156.616C145.5 137.033 150.415 118.993 160.926 103.353C170.878 88.3924 184.093 76.7511 200.243 68.5967L200.36 68.5381L200.416 68.5117L200.418 68.5098L200.438 68.5C216.575 60.4667 233.957 56.5 252.29 56.5L253.463 56.5049Z" fill="#FFE9F0" stroke="#390F3A" stroke-width="19"/>
</svg>
