<svg width="512" height="512" viewBox="0 0 512 512" fill="none" xmlns="http://www.w3.org/2000/svg">
<g clip-path="url(#clip0_31_308)">
<rect width="512" height="512" fill="#484995"/>
<path d="M376.5 451L256 478L135.5 451L256 424L376.5 451Z" fill="#36385F" stroke="#211F3F" stroke-width="19" stroke-linejoin="round"/>
<path d="M209.5 474C216.3 460 218.667 425.833 219 410.5H293C293.333 425.833 295.7 460 302.5 474C296.833 485 266.8 509.4 256 519C245.2 509.4 215.167 485 209.5 474Z" fill="#C48888" stroke="#2B1738" stroke-width="19" stroke-linejoin="round"/>
<path d="M376.5 451L256 478L135.5 451L140 494L99 539.5H256H413L372 494L376.5 451Z" fill="#7172C5" stroke="#211F3F" stroke-width="19" stroke-linejoin="round"/>
<path d="M256 33.5C375.924 33.5 474.5 123.218 474.5 235.5C474.5 289.796 462.91 340.702 428.827 378.024C394.597 415.507 339.339 437.5 256 437.5C172.661 437.5 117.403 415.507 83.1729 378.024C49.0898 340.702 37.5 289.796 37.5 235.5C37.5 123.218 136.076 33.5 256 33.5Z" fill="#C48888" stroke="#2B1738" stroke-width="19"/>
<path d="M264 408C261.6 403.333 257.655 401.28 256 401C254.345 401.28 250.4 403.333 248 408" stroke="#2B1738" stroke-width="19" stroke-linecap="round" stroke-linejoin="round"/>
<path d="M520 -8H-8V333.5H14C22 389.5 66.3333 419.5 89.5 430C66.2171 355.133 53.3281 305.889 49.7333 268.779C104.709 256.588 159.125 218.481 185.5 180C193.074 242.742 214.632 288.247 256 311C297.368 288.247 318.926 242.742 326.5 180C352.875 218.481 407.291 256.588 462.267 268.779C458.672 305.889 445.783 355.133 422.5 430C445.667 419.5 490 389.5 498 333.5H520V-8Z" fill="#484995"/>
<path d="M14 333.5C22 389.5 66.3333 419.5 89.5 430C66.2171 355.133 53.3281 305.889 49.7333 268.779M49.7333 268.779C41.1342 270.686 32.5213 271.959 24 272.5C18 237.667 21.7 165.9 84.5 157.5M49.7333 268.779C104.709 256.588 159.125 218.481 185.5 180C193.074 242.742 214.632 288.247 256 311C297.368 288.247 318.926 242.742 326.5 180C352.875 218.481 407.291 256.588 462.267 268.779M498 333.5C490 389.5 445.667 419.5 422.5 430C445.783 355.133 458.672 305.889 462.267 268.779M462.267 268.779C470.866 270.686 479.479 271.959 488 272.5C494 237.667 490.3 165.9 427.5 157.5" stroke="#2B1738" stroke-width="19" stroke-linecap="round" stroke-linejoin="round"/>
<mask id="mask0_31_308" style="mask-type:alpha" maskUnits="userSpaceOnUse" x="78" y="269" width="148" height="105">
<path d="M225.94 281.224C225.94 281.224 200.239 269.94 151.97 269.94C103.701 269.94 78 281.224 78 281.224V374H225.94V281.224Z" fill="#D9D9D9"/>
</mask>
<g mask="url(#mask0_31_308)">
<path d="M210.895 290C210.895 336.392 198.358 374 152.597 374C106.836 374 94.2983 336.392 94.2983 290C94.2983 243.608 120.399 206 152.597 206C184.794 206 210.895 243.608 210.895 290Z" fill="#2B1738"/>
</g>
<mask id="mask1_31_308" style="mask-type:alpha" maskUnits="userSpaceOnUse" x="94" y="206" width="117" height="168">
<path d="M210.895 290C210.895 336.392 198.358 374 152.597 374C106.836 374 94.2983 336.392 94.2983 290C94.2983 243.608 120.399 206 152.597 206C184.794 206 210.895 243.608 210.895 290Z" fill="#231E08"/>
</mask>
<g mask="url(#mask1_31_308)">
<ellipse cx="152.597" cy="375.881" rx="73.3433" ry="58.2985" fill="#7A5C20"/>
</g>
<path d="M225.94 289.224C225.94 289.224 200.239 277.94 151.97 277.94C103.701 277.94 78 289.224 78 289.224" stroke="#2B1738" stroke-width="19" stroke-linecap="round"/>
<mask id="mask2_31_308" style="mask-type:alpha" maskUnits="userSpaceOnUse" x="285" y="269" width="149" height="105">
<path d="M433.881 281.224C433.881 281.224 408.179 269.94 359.911 269.94C311.642 269.94 285.94 281.224 285.94 281.224V374H433.881V281.224Z" fill="#D9D9D9"/>
</mask>
<g mask="url(#mask2_31_308)">
<path d="M418.836 290C418.836 336.392 406.298 374 360.537 374C314.776 374 302.239 336.392 302.239 290C302.239 243.608 328.34 206 360.537 206C392.735 206 418.836 243.608 418.836 290Z" fill="#2B1738"/>
</g>
<mask id="mask3_31_308" style="mask-type:alpha" maskUnits="userSpaceOnUse" x="302" y="206" width="117" height="168">
<path d="M418.836 290C418.836 336.392 406.298 374 360.537 374C314.776 374 302.239 336.392 302.239 290C302.239 243.608 328.34 206 360.537 206C392.735 206 418.836 243.608 418.836 290Z" fill="#231E08"/>
</mask>
<g mask="url(#mask3_31_308)">
<ellipse cx="360.538" cy="375.881" rx="73.3433" ry="58.2985" fill="#7A5C20"/>
</g>
<path d="M433.881 289.224C433.881 289.224 408.179 277.94 359.911 277.94C311.642 277.94 285.94 289.224 285.94 289.224" stroke="#2B1738" stroke-width="19" stroke-linecap="round"/>
<path d="M-31 236C-31 236 142.349 203 256 203C369.651 203 543 236 543 236V-39.5H-31V236Z" fill="#985151" stroke="#652C2D" stroke-width="19" stroke-linejoin="round"/>
<path d="M-31 198C-31 198 142.349 165 256 165C369.651 165 543 198 543 198V-39.5H-31V198Z" fill="#BF6A6A" stroke="#652C2D" stroke-width="19" stroke-linejoin="round"/>
<mask id="mask4_31_308" style="mask-type:alpha" maskUnits="userSpaceOnUse" x="-41" y="-49" width="594" height="257">
<path d="M-31 198C-31 198 142.349 165 256 165C369.651 165 543 198 543 198V-39.5H-31V198Z" fill="#BF6A6A" stroke="#652C2D" stroke-width="19" stroke-linejoin="round"/>
</mask>
<g mask="url(#mask4_31_308)">
<path d="M326.802 -25C356.869 18.0971 406.32 95.772 435 197H77C105.68 95.772 155.131 18.0971 185.198 -25H326.802Z" fill="#7C3F3F" stroke="#652C2D" stroke-width="19" stroke-linejoin="round"/>
</g>
<path d="M-31 198C-31 198 142.349 165 256 165C369.651 165 543 198 543 198V-39.5H-31V198Z" stroke="#652C2D" stroke-width="19" stroke-linejoin="round"/>
<path d="M27.5 451.5L-31 504.5M10.5 413L-56 445" stroke="#2B1738" stroke-width="19" stroke-linecap="round" stroke-linejoin="round"/>
<path d="M484.5 451.5L543 504.5M501.5 413L568 445" stroke="#2B1738" stroke-width="19" stroke-linecap="round" stroke-linejoin="round"/>
</g>
<defs>
<clipPath id="clip0_31_308">
<rect width="512" height="512" fill="white"/>
</clipPath>
</defs>
</svg>
