<svg width="512" height="512" viewBox="0 0 512 512" fill="none" xmlns="http://www.w3.org/2000/svg">
<g clip-path="url(#clip0_96_99)">
<rect width="512" height="512" fill="#DDC298"/>
<path d="M302.5 474C332 485 369 481.5 386.5 481.5C404 481.5 444.5 496.5 443.5 517V550.5H68.4996V517C67.4996 496.5 108 481.5 125.5 481.5C143 481.5 180 485 209.5 474C216.3 460 218.667 425.833 219 410.5H293C293.333 425.833 295.7 460 302.5 474Z" fill="#EDCBBF" stroke="#422C1E" stroke-width="19" stroke-linejoin="round"/>
<path d="M256 518.999C289.198 510.198 313.829 488.806 321.996 479.21C336.691 481.855 351.774 482.17 364.496 481.987C367.5 502.5 383 535.5 397.5 550.5H256.004H255.996H114.5C129 535.5 144.5 502.5 147.504 481.987C160.226 482.17 175.309 481.855 190.004 479.21C198.171 488.806 222.802 510.198 256 518.999Z" fill="#434D5F"/>
<path d="M255.996 519C289.195 510.2 313.829 488.806 321.996 479.21C336.691 481.855 351.774 482.17 364.496 481.987C367.5 502.5 383 535.5 397.5 550.5H255.996M256.004 519C222.804 510.2 198.171 488.806 190.004 479.21C175.309 481.855 160.226 482.17 147.504 481.987C144.5 502.5 129 535.5 114.5 550.5H256.004" stroke="#19191F" stroke-width="19" stroke-linejoin="round"/>
<path d="M256 33.5C375.924 33.5 474.5 123.218 474.5 235.5C474.5 289.796 462.91 340.702 428.827 378.024C394.597 415.507 339.339 437.5 256 437.5C172.661 437.5 117.403 415.507 83.1729 378.024C49.0898 340.702 37.5 289.796 37.5 235.5C37.5 123.218 136.076 33.5 256 33.5Z" fill="#EDCBBF" stroke="#422C1E" stroke-width="19"/>
<path d="M264 408C261.6 403.333 257.655 401.28 256 401C254.345 401.28 250.4 403.333 248 408" stroke="#422C1E" stroke-width="19" stroke-linecap="round" stroke-linejoin="round"/>
<path d="M-32 -32V544H82C136.5 381.5 35.673 400.013 78 281V278.853C127.347 249.976 175.815 200.871 197.5 146.5C208.107 119.906 229.5 102 256 102C282.5 102 303.893 119.906 314.5 146.5C336.185 200.871 384.653 249.976 434 278.853V281C476.327 400.013 375.5 381.5 430 544H544V-32H-32Z" fill="#DDC298"/>
<path d="M78 281C35.673 400.013 136.5 381.5 82 544H-32L-32 -32H544V544H430C375.5 381.5 476.327 400.013 434 281M35.5 298.5C97 278 177.53 216.63 213.5 146.5C226.567 121.024 241.5 102 256 102C270.5 102 285.433 121.024 298.5 146.5C334.47 216.63 415 278 476.5 298.5" stroke="#422C1E" stroke-width="19" stroke-linecap="round" stroke-linejoin="round"/>
<mask id="mask0_96_99" style="mask-type:alpha" maskUnits="userSpaceOnUse" x="78" y="269" width="148" height="105">
<path d="M225.94 281.224C225.94 281.224 200.239 269.94 151.97 269.94C103.701 269.94 78 281.224 78 281.224V374H225.94V281.224Z" fill="#D9D9D9"/>
</mask>
<g mask="url(#mask0_96_99)">
<path d="M210.896 290C210.896 336.392 198.359 374 152.597 374C106.836 374 94.2988 336.392 94.2988 290C94.2988 243.608 120.4 206 152.597 206C184.795 206 210.896 243.608 210.896 290Z" fill="#422C1E"/>
</g>
<mask id="mask1_96_99" style="mask-type:alpha" maskUnits="userSpaceOnUse" x="94" y="206" width="117" height="168">
<path d="M210.896 290C210.896 336.392 198.359 374 152.597 374C106.836 374 94.2988 336.392 94.2988 290C94.2988 243.608 120.4 206 152.597 206C184.795 206 210.896 243.608 210.896 290Z" fill="#231E08"/>
</mask>
<g mask="url(#mask1_96_99)">
<ellipse cx="152.597" cy="375.881" rx="73.3433" ry="58.2985" fill="#737053"/>
</g>
<path d="M225.94 289.224C225.94 289.224 200.239 277.94 151.97 277.94C103.701 277.94 78 289.224 78 289.224" stroke="#422C1E" stroke-width="19" stroke-linecap="round"/>
<mask id="mask2_96_99" style="mask-type:alpha" maskUnits="userSpaceOnUse" x="285" y="269" width="149" height="105">
<path d="M433.881 281.224C433.881 281.224 408.179 269.94 359.911 269.94C311.642 269.94 285.94 281.224 285.94 281.224V374H433.881V281.224Z" fill="#D9D9D9"/>
</mask>
<g mask="url(#mask2_96_99)">
<path d="M418.836 290C418.836 336.392 406.299 374 360.538 374C314.777 374 302.239 336.392 302.239 290C302.239 243.608 328.34 206 360.538 206C392.735 206 418.836 243.608 418.836 290Z" fill="#422C1E"/>
</g>
<mask id="mask3_96_99" style="mask-type:alpha" maskUnits="userSpaceOnUse" x="302" y="206" width="117" height="168">
<path d="M418.836 290C418.836 336.392 406.299 374 360.538 374C314.777 374 302.239 336.392 302.239 290C302.239 243.608 328.34 206 360.538 206C392.735 206 418.836 243.608 418.836 290Z" fill="#231E08"/>
</mask>
<g mask="url(#mask3_96_99)">
<ellipse cx="360.538" cy="375.881" rx="73.3433" ry="58.2985" fill="#737053"/>
</g>
<path d="M433.881 289.224C433.881 289.224 408.179 277.94 359.911 277.94C311.642 277.94 285.94 289.224 285.94 289.224" stroke="#422C1E" stroke-width="19" stroke-linecap="round"/>
<path d="M152 251.5C185.556 251.5 212.444 255.369 228.818 265.579C236.652 270.464 241.851 276.662 244.476 284.644C247.158 292.803 247.461 303.784 243.635 318.629C235.394 350.602 227.594 367.453 215.558 377.057C203.595 386.602 185.517 390.5 152 390.5C118.483 390.5 100.405 386.602 88.4424 377.057C76.4065 367.453 68.6058 350.602 60.3652 318.629C56.5393 303.784 56.8426 292.803 59.5254 284.644C62.1498 276.662 67.3488 270.464 75.1826 265.579C91.557 255.369 118.444 251.5 152 251.5Z" stroke="#826B52" stroke-width="19"/>
<path d="M360 251.5C393.556 251.5 420.444 255.369 436.818 265.579C444.652 270.464 449.851 276.662 452.476 284.644C455.158 292.803 455.461 303.784 451.635 318.629C443.394 350.602 435.594 367.453 423.558 377.057C411.595 386.602 393.517 390.5 360 390.5C326.483 390.5 308.405 386.602 296.442 377.057C284.406 367.453 276.606 350.602 268.365 318.629C264.539 303.784 264.843 292.803 267.525 284.644C270.15 276.662 275.349 270.464 283.183 265.579C299.557 255.369 326.444 251.5 360 251.5Z" stroke="#826B52" stroke-width="19"/>
<path d="M-16 -22V202C160.5 202 190 173 361.5 167C431.602 164.547 489.5 177.5 528 179V-22H-16Z" fill="#3C3B40" stroke="#131114" stroke-width="19" stroke-linecap="round"/>
<path d="M93 77C120 -129 196.655 -142.97 247.149 -156C299.791 -146.979 397 -147 419 58.5" stroke="#131114" stroke-width="19" stroke-linecap="round"/>
</g>
<defs>
<clipPath id="clip0_96_99">
<rect width="512" height="512" fill="white"/>
</clipPath>
</defs>
</svg>
