<svg width="512" height="512" viewBox="0 0 512 512" fill="none" xmlns="http://www.w3.org/2000/svg">
<g clip-path="url(#clip0_57_2)">
<rect width="512" height="512" fill="#7C2AF0"/>
<path d="M155.5 418.5H203.5L256 390.5L308.5 418.5H356.5L357.5 447L413 465L401.5 488.5L442.5 528H69.5L110.5 488.5L99 465L154.5 447L155.5 418.5Z" fill="#8F73FF" stroke="#280169" stroke-width="19" stroke-linecap="round" stroke-linejoin="round"/>
<path d="M173.594 490.216L220.131 485.216L256 508L291.869 485.216L338.406 490.216L339.147 466.062L372.237 452.701L363.722 418.32L400 389H112L148.278 418.32L139.763 452.701L172.853 466.062L173.594 490.216Z" fill="#8F73FF" stroke="#280169" stroke-width="19" stroke-linecap="round" stroke-linejoin="round"/>
<path d="M256 33.5C375.924 33.5 474.5 123.218 474.5 235.5C474.5 289.796 462.91 340.702 428.827 378.024C394.597 415.507 339.339 437.5 256 437.5C172.661 437.5 117.403 415.507 83.1729 378.024C49.0898 340.702 37.5 289.796 37.5 235.5C37.5 123.218 136.076 33.5 256 33.5Z" fill="#DAD7CE" stroke="#280169" stroke-width="19"/>
<path d="M264 408C261.6 403.333 257.655 401.28 256 401C254.345 401.28 250.4 403.333 248 408" stroke="#280169" stroke-width="19" stroke-linecap="round" stroke-linejoin="round"/>
<path d="M544 -32H-32V428H87C60.5 385.5 44 316 72.5 249V248.061C115.654 231.44 161.98 194.45 170.5 162.5H170.544C165.516 234.634 235.43 267.502 256 312C276.57 267.502 346.484 234.634 341.456 162.5H341.5C350.02 194.45 396.346 231.44 439.5 248.061V249C468 316 451.5 385.5 425 428H544V-32Z" fill="#7C2AF0"/>
<path d="M99 544H-32L-32 -32H544V544H405M329.5 116.5C375 222.5 280.5 259 256 312C231.5 259 137 222.5 182.5 116.5M341.5 162.5C353.5 207.5 440.5 262.5 488 256.5C498 191 478.5 147.5 438.5 124M439.5 249C468 316 451.5 385.5 425 428M170.5 162.5C158.5 207.5 71.5 262.5 24 256.5C14 191 33.5 147.5 73.5 124M72.5 249C44 316 60.5 385.5 87 428" stroke="#280169" stroke-width="19" stroke-linecap="round" stroke-linejoin="round"/>
<mask id="mask0_57_2" style="mask-type:alpha" maskUnits="userSpaceOnUse" x="78" y="269" width="148" height="105">
<path d="M225.94 281.224C225.94 281.224 200.239 269.94 151.97 269.94C103.701 269.94 78 281.224 78 281.224V374H225.94V281.224Z" fill="#D9D9D9"/>
</mask>
<g mask="url(#mask0_57_2)">
<path d="M210.896 290C210.896 336.392 198.359 374 152.597 374C106.836 374 94.2988 336.392 94.2988 290C94.2988 243.608 120.4 206 152.597 206C184.795 206 210.896 243.608 210.896 290Z" fill="#280169"/>
</g>
<mask id="mask1_57_2" style="mask-type:alpha" maskUnits="userSpaceOnUse" x="94" y="206" width="117" height="168">
<path d="M210.896 290C210.896 336.392 198.359 374 152.597 374C106.836 374 94.2988 336.392 94.2988 290C94.2988 243.608 120.4 206 152.597 206C184.795 206 210.896 243.608 210.896 290Z" fill="#231E08"/>
</mask>
<g mask="url(#mask1_57_2)">
<ellipse cx="152.597" cy="375.881" rx="73.3433" ry="58.2985" fill="#0965A2"/>
</g>
<path d="M225.94 289.224C225.94 289.224 200.239 277.94 151.97 277.94C103.701 277.94 78 289.224 78 289.224" stroke="#280169" stroke-width="19" stroke-linecap="round"/>
<mask id="mask2_57_2" style="mask-type:alpha" maskUnits="userSpaceOnUse" x="285" y="269" width="149" height="105">
<path d="M433.881 281.224C433.881 281.224 408.179 269.94 359.911 269.94C311.642 269.94 285.94 281.224 285.94 281.224V374H433.881V281.224Z" fill="#D9D9D9"/>
</mask>
<g mask="url(#mask2_57_2)">
<path d="M418.836 290C418.836 336.392 406.299 374 360.538 374C314.777 374 302.239 336.392 302.239 290C302.239 243.608 328.34 206 360.538 206C392.735 206 418.836 243.608 418.836 290Z" fill="#280169"/>
</g>
<mask id="mask3_57_2" style="mask-type:alpha" maskUnits="userSpaceOnUse" x="302" y="206" width="117" height="168">
<path d="M418.836 290C418.836 336.392 406.299 374 360.538 374C314.777 374 302.239 336.392 302.239 290C302.239 243.608 328.34 206 360.538 206C392.735 206 418.836 243.608 418.836 290Z" fill="#231E08"/>
</mask>
<g mask="url(#mask3_57_2)">
<ellipse cx="360.538" cy="375.881" rx="73.3433" ry="58.2985" fill="#0965A2"/>
</g>
<path d="M433.881 289.224C433.881 289.224 408.179 277.94 359.911 277.94C311.642 277.94 285.94 289.224 285.94 289.224" stroke="#280169" stroke-width="19" stroke-linecap="round"/>
<path d="M135 86.5C131.714 80.1024 128.868 73.0571 126.443 65.5M135 -134C119.979 -93.6293 112.792 -38.7637 116.383 10M119.879 38.5C108 39 89 37 73.5 31M119.879 38.5C131.5 35.5 150 28 163.5 17M119.879 38.5C118.262 29.3581 117.105 19.8023 116.383 10M119.879 38.5C121.561 48.0107 123.74 57.0735 126.443 65.5M116.383 10C103.5 10 89.5 7.5 78.5 2.5M116.383 10C125.589 6.83333 143.2 0.6 148 -5M126.443 65.5C111.5 67.5 88 65.5 71 59.5M126.443 65.5C139.796 61.8333 165 52.5 176.5 42.5" stroke="#280169" stroke-width="19" stroke-linecap="round"/>
<path d="M377 86.5C380.286 80.1024 383.132 73.0571 385.557 65.5M377 -134C392.021 -93.6293 399.208 -38.7637 395.617 10M392.121 38.5C404 39 423 37 438.5 31M392.121 38.5C380.5 35.5 362 28 348.5 17M392.121 38.5C393.738 29.3581 394.895 19.8023 395.617 10M392.121 38.5C390.439 48.0107 388.26 57.0735 385.557 65.5M395.617 10C408.5 10 422.5 7.5 433.5 2.5M395.617 10C386.411 6.83333 368.8 0.6 364 -5M385.557 65.5C400.5 67.5 424 65.5 441 59.5M385.557 65.5C372.204 61.8333 347 52.5 335.5 42.5" stroke="#280169" stroke-width="19" stroke-linecap="round"/>
<path d="M155 225.5C209.87 225.5 246.5 266.493 246.5 310.5C246.5 333.102 238.894 354.252 224.039 369.691C209.28 385.031 186.629 395.5 155 395.5C123.371 395.5 100.72 385.031 85.9609 369.691C71.1058 354.252 63.5 333.102 63.5 310.5C63.5 266.493 100.13 225.5 155 225.5Z" fill="#E1EEFF" fill-opacity="0.12" stroke="#280169" stroke-width="19"/>
<path d="M357 225.5C411.87 225.5 448.5 266.493 448.5 310.5C448.5 333.102 440.894 354.252 426.039 369.691C411.28 385.031 388.629 395.5 357 395.5C325.371 395.5 302.72 385.031 287.961 369.691C273.106 354.252 265.5 333.102 265.5 310.5C265.5 266.493 302.13 225.5 357 225.5Z" fill="#E1EEFF" fill-opacity="0.12" stroke="#280169" stroke-width="19"/>
<path d="M471.601 175.631C400.065 152.401 395.45 131.724 412.956 121.617C430.462 111.509 446.061 125.845 430.411 199.413" stroke="#BC50B0" stroke-width="19" stroke-linecap="round"/>
</g>
<defs>
<clipPath id="clip0_57_2">
<rect width="512" height="512" fill="white"/>
</clipPath>
</defs>
</svg>
