<svg width="512" height="512" viewBox="0 0 512 512" fill="none" xmlns="http://www.w3.org/2000/svg">
<g clip-path="url(#clip0_313_2)">
<rect width="512" height="512" fill="#399AFA"/>
<path d="M302.501 474C332.001 485 369.001 481.5 386.501 481.5C404.001 481.5 444.501 496.5 443.501 517V550.5H68.5006V517C67.5006 496.5 108.001 481.5 125.501 481.5C143.001 481.5 180.001 485 209.501 474C216.301 460 218.667 425.833 219 410.5H293C293.333 425.833 295.701 460 302.501 474Z" fill="#FFE0D9" stroke="#072250" stroke-width="19" stroke-linejoin="round"/>
<path d="M443.501 517C444.501 496.5 404.001 481.5 386.501 481.5C377.654 481.5 363.825 482.394 348.5 481.858C341.167 497.239 312.4 528 256 528C199.6 528 170.834 497.239 163.501 481.858C148.176 482.394 134.347 481.5 125.501 481.5C108.001 481.5 67.5006 496.5 68.5006 517V550.5L256 550.5L443.501 550.5V517Z" fill="#5A555A" stroke="#1E1B1E" stroke-width="19" stroke-linejoin="round"/>
<path d="M256 33.5C375.924 33.5 474.5 123.218 474.5 235.5C474.5 289.796 462.91 340.702 428.827 378.024C394.597 415.507 339.339 437.5 256 437.5C172.661 437.5 117.403 415.507 83.1729 378.024C49.0898 340.702 37.5 289.796 37.5 235.5C37.5 123.218 136.076 33.5 256 33.5Z" fill="#FFE0D9" stroke="#072250" stroke-width="19"/>
<path d="M264 408C261.6 403.333 257.655 401.28 256 401C254.345 401.28 250.4 403.333 248 408" stroke="#072250" stroke-width="19" stroke-linecap="round" stroke-linejoin="round"/>
<path d="M74.166 287C106.666 276.5 165 243.5 169 196C182 272.5 222 334 270.5 332.5C295.5 307 323.5 262.5 324 223.5C347 240.5 385.5 282.5 443.5 288C450.5 330.5 445.5 379.5 414.5 450L544 462V-32H-32V462L80.5 439C67.166 395 59.8643 326.423 74.166 287Z" fill="#399AFA"/>
<path d="M68.5 293.5C125.5 270 161.5 246.5 169.5 192.5C175 262 208.5 317 268.5 333C294.5 311 324 257 325 224C347.5 261 403 286 443.5 288.5M99 544L-140 544.5L-32 -32H544V544H405M413.5 447.5C447.5 388.5 455 305 434.5 253M98.5 447.5C64.5 388.5 57 305 77.5 253" stroke="#072250" stroke-width="19" stroke-linecap="round" stroke-linejoin="round"/>
<mask id="mask0_313_2" style="mask-type:alpha" maskUnits="userSpaceOnUse" x="78" y="269" width="148" height="105">
<path d="M225.94 281.224C225.94 281.224 200.239 269.94 151.97 269.94C103.701 269.94 78 281.224 78 281.224V374H225.94V281.224Z" fill="#D9D9D9"/>
</mask>
<g mask="url(#mask0_313_2)">
<path d="M210.896 290C210.896 336.392 198.359 374 152.597 374C106.836 374 94.2988 336.392 94.2988 290C94.2988 243.608 120.4 206 152.597 206C184.795 206 210.896 243.608 210.896 290Z" fill="#072250"/>
</g>
<mask id="mask1_313_2" style="mask-type:alpha" maskUnits="userSpaceOnUse" x="94" y="206" width="117" height="168">
<path d="M210.896 290C210.896 336.392 198.359 374 152.597 374C106.836 374 94.2988 336.392 94.2988 290C94.2988 243.608 120.4 206 152.597 206C184.795 206 210.896 243.608 210.896 290Z" fill="#231E08"/>
</mask>
<g mask="url(#mask1_313_2)">
<ellipse cx="152.597" cy="375.881" rx="73.3433" ry="58.2985" fill="#6999DA"/>
</g>
<path d="M225.94 289.224C225.94 289.224 200.239 277.94 151.97 277.94C103.701 277.94 78 289.224 78 289.224" stroke="#072250" stroke-width="19" stroke-linecap="round"/>
<mask id="mask2_313_2" style="mask-type:alpha" maskUnits="userSpaceOnUse" x="285" y="269" width="149" height="105">
<path d="M433.88 281.224C433.88 281.224 408.178 269.94 359.91 269.94C311.641 269.94 285.939 281.224 285.939 281.224V374H433.88V281.224Z" fill="#D9D9D9"/>
</mask>
<g mask="url(#mask2_313_2)">
<path d="M418.835 290C418.835 336.392 406.298 374 360.537 374C314.776 374 302.238 336.392 302.238 290C302.238 243.608 328.339 206 360.537 206C392.734 206 418.835 243.608 418.835 290Z" fill="#072250"/>
</g>
<mask id="mask3_313_2" style="mask-type:alpha" maskUnits="userSpaceOnUse" x="302" y="206" width="117" height="168">
<path d="M418.835 290C418.835 336.392 406.298 374 360.537 374C314.776 374 302.238 336.392 302.238 290C302.238 243.608 328.339 206 360.537 206C392.734 206 418.835 243.608 418.835 290Z" fill="#231E08"/>
</mask>
<g mask="url(#mask3_313_2)">
<ellipse cx="360.537" cy="375.881" rx="73.3433" ry="58.2985" fill="#6999DA"/>
</g>
<path d="M433.88 289.224C433.88 289.224 408.178 277.94 359.91 277.94C311.641 277.94 285.939 289.224 285.939 289.224" stroke="#072250" stroke-width="19" stroke-linecap="round"/>
<path d="M209.5 81.5867C164 64.3386 126 45.1135 73.5 154.238" stroke="#072250" stroke-width="19" stroke-linecap="round" stroke-linejoin="round"/>
<path d="M302.5 81.5867C348 64.3386 386 45.1135 438.5 154.238" stroke="#072250" stroke-width="19" stroke-linecap="round" stroke-linejoin="round"/>
</g>
<defs>
<clipPath id="clip0_313_2">
<rect width="512" height="512" fill="white"/>
</clipPath>
</defs>
</svg>
