<svg width="512" height="512" viewBox="0 0 512 512" fill="none" xmlns="http://www.w3.org/2000/svg">
<g clip-path="url(#clip0_33_565)">
<rect width="512" height="512" fill="#816141"/>
<rect width="512" height="512" fill="#D5BE7B"/>
<path d="M209.5 474C216.3 460 218.667 425.833 219 410.5H293C293.333 425.833 295.7 460 302.5 474C296.833 485 266.8 509.4 256 519C245.2 509.4 215.167 485 209.5 474Z" fill="#FDFED4" stroke="#78532C" stroke-width="19" stroke-linejoin="round"/>
<path d="M256 519C245.2 509.4 215.166 485 209.5 474C180 485 143 481.5 125.5 481.5C108 481.5 67.4996 496.5 68.4996 517V550.5H443.5V517C444.5 496.5 404 481.5 386.5 481.5C369 481.5 332 485 302.5 474C296.833 485 266.8 509.4 256 519Z" fill="#E1FCDB" stroke="#598A5B" stroke-width="19" stroke-linejoin="round"/>
<path d="M256 33.5C375.924 33.5 474.5 123.218 474.5 235.5C474.5 289.796 462.91 340.702 428.827 378.024C394.597 415.507 339.339 437.5 256 437.5C172.661 437.5 117.403 415.507 83.1729 378.024C49.0898 340.702 37.5 289.796 37.5 235.5C37.5 123.218 136.076 33.5 256 33.5Z" fill="#FDFED4" stroke="#78532C" stroke-width="19"/>
<path d="M264 408C261.6 403.333 257.655 401.28 256 401C254.345 401.28 250.4 403.333 248 408" stroke="#78532C" stroke-width="19" stroke-linecap="round" stroke-linejoin="round"/>
<path d="M182 254C213 239.5 245.5 181.5 259 131C263.5 165.5 260.5 233.5 210 294.5C311.5 262.5 323.5 203 329 166.5C360.074 228.155 425.694 224.123 456.743 272.961C460.203 360.647 402.416 402.843 369 392.5C394 434.5 441.5 437 461 424H544V-32H-32V427H50C69.5 440 117 437.5 142 395.5C112.518 402.995 57.0675 362.05 54.5046 297.618C113.591 282.286 185.158 209.468 205 159C208 184.5 207 221 182 254Z" fill="#D5BE7B"/>
<path d="M99 544H-32L-32 -32H544V544H405M456.743 272.961C425.694 224.123 360.074 228.155 329 166.5C323.5 203 311.5 262.5 210 294.5C260.5 233.5 263.5 165.5 259 131C245.5 181.5 213 239.5 182 254C207 221 208 184.5 205 159C185.158 209.468 113.591 282.286 54.5046 297.618C45.1007 300.058 36.0128 301.118 27.5 300.5M50 427C69.5 440 117 437.5 142 395.5C112.518 402.995 57.0675 362.05 54.5046 297.618M461 424C441.5 437 394 434.5 369 392.5C402.416 402.843 460.203 360.647 456.743 272.961C455.854 250.436 450.924 224.909 440.5 196.5" stroke="#78532C" stroke-width="19" stroke-linecap="round" stroke-linejoin="round"/>
<mask id="mask0_33_565" style="mask-type:alpha" maskUnits="userSpaceOnUse" x="78" y="269" width="148" height="105">
<path d="M225.94 281.224C225.94 281.224 200.239 269.94 151.97 269.94C103.701 269.94 78 281.224 78 281.224V374H225.94V281.224Z" fill="#D9D9D9"/>
</mask>
<g mask="url(#mask0_33_565)">
<path d="M210.896 290C210.896 336.392 198.359 374 152.597 374C106.836 374 94.2988 336.392 94.2988 290C94.2988 243.608 120.4 206 152.597 206C184.795 206 210.896 243.608 210.896 290Z" fill="#78532C"/>
</g>
<mask id="mask1_33_565" style="mask-type:alpha" maskUnits="userSpaceOnUse" x="94" y="206" width="117" height="168">
<path d="M210.896 290C210.896 336.392 198.359 374 152.597 374C106.836 374 94.2988 336.392 94.2988 290C94.2988 243.608 120.4 206 152.597 206C184.795 206 210.896 243.608 210.896 290Z" fill="#231E08"/>
</mask>
<g mask="url(#mask1_33_565)">
<ellipse cx="152.597" cy="375.881" rx="73.3433" ry="58.2985" fill="#C8AB56"/>
</g>
<path d="M225.94 289.224C225.94 289.224 200.239 277.94 151.97 277.94C103.701 277.94 78 289.224 78 289.224" stroke="#78532C" stroke-width="19" stroke-linecap="round"/>
<mask id="mask2_33_565" style="mask-type:alpha" maskUnits="userSpaceOnUse" x="285" y="269" width="149" height="105">
<path d="M433.881 281.224C433.881 281.224 408.179 269.94 359.911 269.94C311.642 269.94 285.94 281.224 285.94 281.224V374H433.881V281.224Z" fill="#D9D9D9"/>
</mask>
<g mask="url(#mask2_33_565)">
<path d="M418.836 290C418.836 336.392 406.299 374 360.538 374C314.777 374 302.239 336.392 302.239 290C302.239 243.608 328.34 206 360.538 206C392.735 206 418.836 243.608 418.836 290Z" fill="#78532C"/>
</g>
<mask id="mask3_33_565" style="mask-type:alpha" maskUnits="userSpaceOnUse" x="302" y="206" width="117" height="168">
<path d="M418.836 290C418.836 336.392 406.299 374 360.538 374C314.777 374 302.239 336.392 302.239 290C302.239 243.608 328.34 206 360.538 206C392.735 206 418.836 243.608 418.836 290Z" fill="#231E08"/>
</mask>
<g mask="url(#mask3_33_565)">
<ellipse cx="360.538" cy="375.881" rx="73.3433" ry="58.2985" fill="#C8AB56"/>
</g>
<path d="M433.881 289.224C433.881 289.224 408.179 277.94 359.911 277.94C311.642 277.94 285.94 289.224 285.94 289.224" stroke="#78532C" stroke-width="19" stroke-linecap="round"/>
<path d="M-8.74583 -91.1864C77.5965 -97.6864 140.754 -92.6863 160.254 27.3137C160.254 27.3137 73.4118 69.3137 36.4118 134.814C-58.7459 94.3136 -36.0792 -35.5197 -8.74583 -91.1864Z" fill="#FEFFE6"/>
<mask id="mask4_33_565" style="mask-type:alpha" maskUnits="userSpaceOnUse" x="-33" y="-93" width="194" height="228">
<path d="M-8.74583 -91.1864C77.5965 -97.6864 140.754 -92.6863 160.254 27.3137C160.254 27.3137 73.4118 69.3137 36.4118 134.814C-58.7459 94.3136 -36.0792 -35.5197 -8.74583 -91.1864Z" fill="#FEFFE6"/>
</mask>
<g mask="url(#mask4_33_565)">
<path d="M9.25391 74.3137L61.9116 104.814L138.412 47.3137L90.2539 -40.1863L92.4116 25.3137L19.4116 -11.1863L43.9116 63.3137L9.25391 74.3137Z" fill="#FEFFF1" stroke="#C2B371" stroke-width="19" stroke-linejoin="round"/>
</g>
<path d="M-8.74583 -91.1864C77.5965 -97.6864 140.754 -92.6863 160.254 27.3137C160.254 27.3137 73.4118 69.3137 36.4118 134.814C-58.7459 94.3136 -36.0792 -35.5197 -8.74583 -91.1864Z" stroke="#78532C" stroke-width="19" stroke-linecap="round" stroke-linejoin="round"/>
<path d="M520.254 -91.1864C433.911 -97.6864 370.754 -92.6863 351.254 27.3137C351.254 27.3137 438.096 69.3137 475.096 134.814C570.254 94.3136 547.587 -35.5197 520.254 -91.1864Z" fill="#FEFFE6"/>
<mask id="mask5_33_565" style="mask-type:alpha" maskUnits="userSpaceOnUse" x="351" y="-93" width="194" height="228">
<path d="M520.254 -91.1864C433.911 -97.6864 370.754 -92.6863 351.254 27.3137C351.254 27.3137 438.096 69.3137 475.096 134.814C570.254 94.3136 547.587 -35.5197 520.254 -91.1864Z" fill="#FEFFE6"/>
</mask>
<g mask="url(#mask5_33_565)">
<path d="M502.254 74.3137L449.596 104.814L373.096 47.3137L421.254 -40.1863L419.096 25.3137L492.096 -11.1863L467.596 63.3137L502.254 74.3137Z" fill="#FEFFF1" stroke="#C2B371" stroke-width="19" stroke-linejoin="round"/>
</g>
<path d="M520.254 -91.1864C433.911 -97.6864 370.754 -92.6863 351.254 27.3137C351.254 27.3137 438.096 69.3137 475.096 134.814C570.254 94.3136 547.587 -35.5197 520.254 -91.1864Z" stroke="#78532C" stroke-width="19" stroke-linecap="round" stroke-linejoin="round"/>
<path d="M136.368 166.987C96.568 213.171 60.1041 216.828 28.6954 205.591C12.944 176.186 11.1771 139.582 50.9775 93.3984C90.7779 47.215 127.242 43.5576 158.651 54.7945C174.402 84.1997 176.169 120.804 136.368 166.987Z" fill="#CAEEC0"/>
<path d="M158.651 54.7945C127.242 43.5576 90.7779 47.215 50.9775 93.3984C11.1771 139.582 12.944 176.186 28.6954 205.591C60.1041 216.828 96.568 213.171 136.368 166.987C176.169 120.804 174.402 84.1997 158.651 54.7945ZM28.6954 205.591L110.113 111.116M158.651 54.7945L110.113 111.116M110.113 111.116L115.763 187.224M110.113 111.116L34.0056 116.766" stroke="#79B87C" stroke-width="19" stroke-linecap="round" stroke-linejoin="round"/>
</g>
<defs>
<clipPath id="clip0_33_565">
<rect width="512" height="512" fill="white"/>
</clipPath>
</defs>
</svg>
