<svg width="512" height="512" viewBox="0 0 512 512" fill="none" xmlns="http://www.w3.org/2000/svg">
<g clip-path="url(#clip0_241_57)">
<rect width="512" height="512" fill="#BAAECB"/>
<path d="M59.5 534C42 508.5 37.5 468 37.5 468L256 407L474.5 468C474.5 468 470 508.5 452.5 534H256H59.5Z" fill="#6372D7" stroke="#1D113C" stroke-width="19" stroke-linecap="round" stroke-linejoin="round"/>
<path d="M256 433C343 433 437.5 464.5 463 468C488.5 471.5 498.001 462.5 501.001 451.5C504.001 440.5 499.501 427 475.001 419.5C450.501 412 373.5 380.5 256 380.5C138.5 380.5 61.5006 412 37.0006 419.5C12.5006 427 8.00059 440.5 11.0006 451.5C14.0006 462.5 23.5009 471.5 49.0009 468C74.5009 464.5 169 433 256 433Z" fill="#F8F7F5" stroke="#1D113C" stroke-width="19"/>
<path d="M386.501 481.5C369.001 481.5 332.001 485 302.501 474C295.701 460 293.333 425.833 293 410.5H219C218.667 425.833 216.301 460 209.501 474C180.001 485 143 481.5 125.5 481.5C116.739 481.5 102.197 485.268 90 491.595C102.5 508 108.5 533 108 550.5H393.001C387.5 532 393.5 505 406.501 485.224C398.931 482.824 391.701 481.5 386.501 481.5Z" fill="#EFD5DB"/>
<mask id="mask0_241_57" style="mask-type:alpha" maskUnits="userSpaceOnUse" x="90" y="410" width="317" height="141">
<path d="M386.501 481.5C369.001 481.5 332.001 485 302.501 474C295.701 460 293.333 425.833 293 410.5H219C218.667 425.833 216.301 460 209.501 474C180.001 485 143 481.5 125.5 481.5C116.739 481.5 102.197 485.268 90 491.595C102.5 508 108.5 533 108 550.5H393.001C387.5 532 393.5 505 406.501 485.224C398.931 482.824 391.701 481.5 386.501 481.5Z" fill="#EFD5DB"/>
</mask>
<g mask="url(#mask0_241_57)">
<path d="M201 540L163.5 465H134.5L147 540H201Z" fill="#4F303F" stroke="#1D113C" stroke-width="19" stroke-linecap="round" stroke-linejoin="round"/>
<path d="M311 540L348.5 465H472V540H311Z" fill="#DFD7F0" stroke="#1D113C" stroke-width="19" stroke-linecap="round" stroke-linejoin="round"/>
</g>
<path d="M386.501 481.5C369.001 481.5 332.001 485 302.501 474C295.701 460 293.333 425.833 293 410.5H219C218.667 425.833 216.301 460 209.501 474C180.001 485 143.001 481.5 125.501 481.5C116.74 481.5 102.197 485.268 90 491.595C102.5 508 108.5 533 108 550.5H393.001C387.5 532 393.5 505 406.501 485.224C398.931 482.824 391.701 481.5 386.501 481.5Z" stroke="#1D113C" stroke-width="19" stroke-linejoin="round"/>
<path d="M256 33.5C375.924 33.5 474.5 123.218 474.5 235.5C474.5 289.796 462.91 340.702 428.827 378.024C394.597 415.507 339.339 437.5 256 437.5C172.661 437.5 117.403 415.507 83.1729 378.024C49.0898 340.702 37.5 289.796 37.5 235.5C37.5 123.218 136.076 33.5 256 33.5Z" fill="#EFD5DB" stroke="#1D113C" stroke-width="19"/>
<path d="M264 408C261.6 403.333 257.655 401.28 256 401C254.345 401.28 250.4 403.333 248 408" stroke="#1D113C" stroke-width="19" stroke-linecap="round" stroke-linejoin="round"/>
<path d="M544 -32H-32V363H24.5C37 411 73 443.5 103.5 454C74.8946 404.171 60.8589 347.342 59.4141 295.5H59.5C90 288.5 167 247.5 184.5 210H184.835C184.761 259.595 199.736 302.834 233 339.5C236.191 337.293 243.361 327.78 246.5 325.5C249 329.23 259 344 269 352C306.137 318.814 333.124 262.78 333.569 205.5H334C362 229 406 250.5 449.5 261.5H449.724C452.976 321.144 437.445 396.848 410 452.5C427.833 442.333 474.5 412 488 359H544V-32Z" fill="#BAAECB"/>
<path d="M189.5 160C177 231 189 291 233 339.5C236.191 337.293 243.361 327.78 246.5 325.5C249 329.23 259 344 269 352C316 310 346.743 231.404 328 160M59.5 295.5C90 288.5 167 247.5 184.5 210M99 544H-32L-32 -32H544V544H405M449.5 261.5C406 250.5 362 229 334 205.5M441 211.5C461.5 272 446 379.5 410 452.5C427.833 442.333 474.5 412 488 359M71 207C49 273.5 57 373 103.5 454C73 443.5 37 411 24.5 363" stroke="#1D113C" stroke-width="19" stroke-linecap="round" stroke-linejoin="round"/>
<mask id="mask1_241_57" style="mask-type:alpha" maskUnits="userSpaceOnUse" x="78" y="269" width="148" height="105">
<path d="M225.94 281.224C225.94 281.224 200.239 269.94 151.97 269.94C103.701 269.94 78 281.224 78 281.224V374H225.94V281.224Z" fill="#D9D9D9"/>
</mask>
<g mask="url(#mask1_241_57)">
<path d="M210.896 290C210.896 336.392 198.359 374 152.597 374C106.836 374 94.2988 336.392 94.2988 290C94.2988 243.608 120.4 206 152.597 206C184.795 206 210.896 243.608 210.896 290Z" fill="#1D113C"/>
</g>
<mask id="mask2_241_57" style="mask-type:alpha" maskUnits="userSpaceOnUse" x="94" y="206" width="117" height="168">
<path d="M210.896 290C210.896 336.392 198.359 374 152.597 374C106.836 374 94.2988 336.392 94.2988 290C94.2988 243.608 120.4 206 152.597 206C184.795 206 210.896 243.608 210.896 290Z" fill="#231E08"/>
</mask>
<g mask="url(#mask2_241_57)">
<ellipse cx="152.597" cy="375.881" rx="73.3433" ry="58.2985" fill="#6D5868"/>
</g>
<path d="M225.94 289.224C225.94 289.224 200.239 277.94 151.97 277.94C103.701 277.94 78 289.224 78 289.224" stroke="#1D113C" stroke-width="19" stroke-linecap="round"/>
<mask id="mask3_241_57" style="mask-type:alpha" maskUnits="userSpaceOnUse" x="285" y="269" width="149" height="105">
<path d="M433.88 281.224C433.88 281.224 408.178 269.94 359.91 269.94C311.641 269.94 285.939 281.224 285.939 281.224V374H433.88V281.224Z" fill="#D9D9D9"/>
</mask>
<g mask="url(#mask3_241_57)">
<path d="M418.835 290C418.835 336.392 406.298 374 360.537 374C314.776 374 302.238 336.392 302.238 290C302.238 243.608 328.339 206 360.537 206C392.734 206 418.835 243.608 418.835 290Z" fill="#1D113C"/>
</g>
<mask id="mask4_241_57" style="mask-type:alpha" maskUnits="userSpaceOnUse" x="302" y="206" width="117" height="168">
<path d="M418.835 290C418.835 336.392 406.298 374 360.537 374C314.776 374 302.238 336.392 302.238 290C302.238 243.608 328.339 206 360.537 206C392.734 206 418.835 243.608 418.835 290Z" fill="#231E08"/>
</mask>
<g mask="url(#mask4_241_57)">
<ellipse cx="360.537" cy="375.881" rx="73.3433" ry="58.2985" fill="#6D5868"/>
</g>
<path d="M433.88 289.224C433.88 289.224 408.178 277.94 359.91 277.94C311.641 277.94 285.939 289.224 285.939 289.224" stroke="#1D113C" stroke-width="19" stroke-linecap="round"/>
<path d="M331.5 129C407 129 415 103 415 62C392 42 307.999 29 256 52.1333V91C262.343 105.08 273.127 129 331.5 129Z" fill="#B882FF" stroke="#1D113C" stroke-width="19" stroke-linecap="round" stroke-linejoin="round"/>
<path d="M97 62C96.9999 103 105.917 126.98 181.417 126.98C239.79 126.98 249.656 105.08 255.999 91V52.1333C204 29 120 42 97 62Z" fill="#809DF4" stroke="#1D113C" stroke-width="19" stroke-linecap="round" stroke-linejoin="round"/>
</g>
<defs>
<clipPath id="clip0_241_57">
<rect width="512" height="512" fill="white"/>
</clipPath>
</defs>
</svg>
