<svg width="512" height="512" viewBox="0 0 512 512" fill="none" xmlns="http://www.w3.org/2000/svg">
<g clip-path="url(#clip0_19_5)">
<rect width="512" height="512" fill="#B14C42"/>
<path d="M209.5 474C216.3 460 218.667 425.833 219 410.5H293C293.333 425.833 295.7 460 302.5 474C296.833 485 266.8 509.4 256 519C245.2 509.4 215.167 485 209.5 474Z" fill="#EBBCAA" stroke="#481B17" stroke-width="19" stroke-linejoin="round"/>
<path d="M256 519C245.2 509.4 215.167 485 209.5 474C180 485 143 481.5 125.5 481.5C108 481.5 67.5001 496.5 68.5001 517V550.5H443.5V517C444.5 496.5 404 481.5 386.5 481.5C369 481.5 332 485 302.5 474C296.833 485 266.8 509.4 256 519Z" fill="#363632" stroke="#231F19" stroke-width="19" stroke-linejoin="round"/>
<path d="M228.478 478.5L201.955 459L178.5 482.5L190 502L178.5 529L334 528.5L324 501L337 485.5L310.469 464.5L290.97 481.5L277.89 468.5L264.084 477.5L239.741 464L228.478 478.5Z" fill="#53524C" stroke="#231F19" stroke-width="19" stroke-linecap="round" stroke-linejoin="round"/>
<path d="M256 33.5C375.924 33.5 474.5 123.218 474.5 235.5C474.5 289.796 462.91 340.702 428.827 378.024C394.597 415.507 339.339 437.5 256 437.5C172.661 437.5 117.403 415.507 83.1729 378.024C49.0898 340.702 37.5 289.796 37.5 235.5C37.5 123.218 136.076 33.5 256 33.5Z" fill="#EBBCAA" stroke="#481B17" stroke-width="19"/>
<path d="M264 408C261.6 403.333 257.655 401.28 256 401C254.345 401.28 250.4 403.333 248 408" stroke="#481B17" stroke-width="19" stroke-linecap="round" stroke-linejoin="round"/>
<path d="M128.5 380C32.5 344.5 77 224.5 122.5 180C104.5 216.8 108.333 233.333 112.5 246H175C162 206 184.5 174.5 211.5 160C197 181.5 195.5 240.5 215 254H297C316.5 240.5 315 181.5 300.5 160C327.5 174.5 350 206 337 246H399.5C403.667 233.333 407.5 216.8 389.5 180C435 224.5 479.5 344.5 383.5 380C412.5 402.5 461.5 393 476 360.5H550V-42H-21.5V360.5H36C50.5 393 99.5 402.5 128.5 380Z" fill="#B14C42"/>
<path d="M36 360.5C50.5 393 99.5 402.5 128.5 380C32.5 344.5 77 224.5 122.5 180C104.5 216.8 108.333 233.333 112.5 246H175C162 206 184.5 174.5 211.5 160C197 181.5 195.5 240.5 215 254H297C316.5 240.5 315 181.5 300.5 160C327.5 174.5 350 206 337 246H399.5C403.667 233.333 407.5 216.8 389.5 180C435 224.5 479.5 344.5 383.5 380C412.5 402.5 461.5 393 476 360.5" stroke="#481B17" stroke-width="19" stroke-linecap="round" stroke-linejoin="round"/>
<mask id="mask0_19_5" style="mask-type:alpha" maskUnits="userSpaceOnUse" x="78" y="269" width="148" height="105">
<path d="M225.94 281.224C225.94 281.224 200.239 269.94 151.97 269.94C103.701 269.94 78 281.224 78 281.224V374H225.94V281.224Z" fill="#D9D9D9"/>
</mask>
<g mask="url(#mask0_19_5)">
<path d="M210.896 290C210.896 336.392 198.358 374 152.597 374C106.836 374 94.2986 336.392 94.2986 290C94.2986 243.608 120.4 206 152.597 206C184.794 206 210.896 243.608 210.896 290Z" fill="#481B17"/>
</g>
<mask id="mask1_19_5" style="mask-type:alpha" maskUnits="userSpaceOnUse" x="94" y="206" width="117" height="168">
<path d="M210.896 290C210.896 336.392 198.358 374 152.597 374C106.836 374 94.2986 336.392 94.2986 290C94.2986 243.608 120.4 206 152.597 206C184.794 206 210.896 243.608 210.896 290Z" fill="#231E08"/>
</mask>
<g mask="url(#mask1_19_5)">
<ellipse cx="152.597" cy="375.881" rx="73.3433" ry="58.2985" fill="#8D3318"/>
</g>
<path d="M225.94 289.224C225.94 289.224 200.239 277.94 151.97 277.94C103.701 277.94 78 289.224 78 289.224" stroke="#481B17" stroke-width="19" stroke-linecap="round"/>
<mask id="mask2_19_5" style="mask-type:alpha" maskUnits="userSpaceOnUse" x="285" y="269" width="149" height="105">
<path d="M433.88 281.224C433.88 281.224 408.179 269.94 359.91 269.94C311.642 269.94 285.94 281.224 285.94 281.224V374H433.88V281.224Z" fill="#D9D9D9"/>
</mask>
<g mask="url(#mask2_19_5)">
<path d="M418.836 290C418.836 336.392 406.298 374 360.537 374C314.776 374 302.239 336.392 302.239 290C302.239 243.608 328.34 206 360.537 206C392.735 206 418.836 243.608 418.836 290Z" fill="#481B17"/>
</g>
<mask id="mask3_19_5" style="mask-type:alpha" maskUnits="userSpaceOnUse" x="302" y="206" width="117" height="168">
<path d="M418.836 290C418.836 336.392 406.298 374 360.537 374C314.776 374 302.239 336.392 302.239 290C302.239 243.608 328.34 206 360.537 206C392.735 206 418.836 243.608 418.836 290Z" fill="#231E08"/>
</mask>
<g mask="url(#mask3_19_5)">
<ellipse cx="360.537" cy="375.881" rx="73.3433" ry="58.2985" fill="#8D3318"/>
</g>
<path d="M433.88 289.224C433.88 289.224 408.179 277.94 359.91 277.94C311.642 277.94 285.94 289.224 285.94 289.224" stroke="#481B17" stroke-width="19" stroke-linecap="round"/>
<path d="M68.0385 -73.593C37.4671 -47.0103 24.503 23.9258 48.1234 90.2984L157.319 68.2449C152.279 -9.08296 108.755 -63.276 68.0385 -73.593Z" fill="#EBBCAA" stroke="#481B17" stroke-width="19" stroke-linecap="round" stroke-linejoin="round"/>
<path d="M83.5651 58.2025L62.3296 28.9185L89.0657 35.3554L111.661 11.9953L114.685 52.8377" stroke="#D07B6C" stroke-width="19" stroke-linecap="round" stroke-linejoin="round"/>
<path d="M444.371 -73.593C474.943 -47.0103 487.907 23.9258 464.286 90.2984L355.091 68.2449C360.131 -9.08296 403.655 -63.276 444.371 -73.593Z" fill="#EBBCAA" stroke="#481B17" stroke-width="19" stroke-linecap="round" stroke-linejoin="round"/>
<path d="M428.845 58.2025L450.08 28.9185L423.344 35.3554L400.749 11.9953L397.725 52.8377" stroke="#D07B6C" stroke-width="19" stroke-linecap="round" stroke-linejoin="round"/>
<path d="M52.6322 151.044C55.8243 162.957 57.8467 191.369 40.3991 209.709M85.4737 142.244C88.1829 154.287 100.637 179.903 125.401 186.933" stroke="#231F19" stroke-width="19" stroke-linecap="round" stroke-linejoin="round"/>
<path d="M74.1548 132.844L69.2423 114.51C68.6241 112.203 68.898 109.748 70.009 107.633L78.4186 112.051C70.0088 107.633 70.0094 107.631 70.0101 107.63C70.0105 107.629 70.0119 107.628 70.0125 107.627C70.0138 107.624 70.0148 107.62 70.0168 107.617C70.0207 107.609 70.0262 107.6 70.0324 107.588C70.0452 107.564 70.0632 107.53 70.0855 107.488C70.1301 107.404 70.1934 107.284 70.2751 107.132C70.4388 106.827 70.676 106.389 70.9801 105.835C71.5883 104.727 72.468 103.151 73.5732 101.243C75.7779 97.4362 78.9089 92.2575 82.5994 86.8063C86.2712 81.3828 90.6066 75.5255 95.2332 70.4427C99.7118 65.5226 105.122 60.5835 111.052 57.8804C114.881 56.1349 119.403 57.1163 122.163 60.2928L114.993 66.5241C122.163 60.2927 122.166 60.2965 122.17 60.3003C122.171 60.3016 122.174 60.3049 122.177 60.3075C122.181 60.3127 122.185 60.3186 122.19 60.3241C122.199 60.335 122.21 60.3462 122.22 60.3584C122.241 60.3829 122.264 60.4105 122.289 60.4402C122.339 60.4995 122.397 60.5691 122.462 60.6495C122.593 60.8105 122.755 61.0144 122.944 61.2634C123.324 61.7616 123.816 62.4398 124.403 63.3192C125.576 65.0786 127.125 67.6389 128.907 71.1578C132.472 78.195 136.963 89.0623 141.245 105.042C145.527 121.022 147.071 132.679 147.503 140.555C147.719 144.494 147.657 147.486 147.521 149.596C147.453 150.651 147.365 151.485 147.285 152.106C147.246 152.416 147.208 152.674 147.175 152.878C147.158 152.981 147.143 153.07 147.129 153.146C147.123 153.185 147.117 153.22 147.111 153.251C147.108 153.267 147.105 153.282 147.102 153.296C147.101 153.303 147.1 153.311 147.098 153.317C147.098 153.321 147.096 153.326 147.096 153.327C147.096 153.33 147.095 153.332 145.929 153.107L137.769 151.526L147.095 153.337C146.292 157.468 142.867 160.579 138.678 160.982C132.191 161.606 125.036 160.033 118.697 158.012C112.149 155.923 105.466 153.018 99.5743 150.157C93.6526 147.282 88.3517 144.362 84.5392 142.168C82.6279 141.068 81.0781 140.143 79.9973 139.488C79.4569 139.16 79.0325 138.899 78.7383 138.717C78.5914 138.626 78.4766 138.554 78.396 138.503C78.3556 138.478 78.3231 138.458 78.3 138.443C78.2887 138.436 78.2793 138.431 78.2722 138.426C78.2686 138.424 78.2658 138.421 78.2633 138.42C78.2623 138.419 78.2607 138.419 78.26 138.419C78.2587 138.418 78.2573 138.417 83.3311 130.385L78.2574 138.416C76.2379 137.14 74.773 135.151 74.1548 132.844Z" fill="#363632" stroke="#231F19" stroke-width="19" stroke-linejoin="round"/>
<path d="M57.7342 137.244L52.8217 118.91C52.2035 116.603 50.7386 114.613 48.7192 113.338L43.6454 121.369C48.7193 113.337 48.7178 113.336 48.7165 113.335C48.7158 113.335 48.7142 113.335 48.7132 113.334C48.7107 113.333 48.7079 113.33 48.7043 113.327C48.6972 113.323 48.6878 113.318 48.6765 113.311C48.6534 113.296 48.6209 113.276 48.5805 113.25C48.4999 113.2 48.3851 113.128 48.2382 113.037C47.944 112.854 47.5196 112.594 46.9792 112.266C45.8985 111.611 44.3486 110.686 42.4373 109.586C38.6248 107.391 33.3239 104.472 27.4022 101.596C21.5106 98.7353 14.8274 95.8305 8.27925 93.742C1.94066 91.7203 -5.21455 90.1482 -11.7015 90.7721C-15.8905 91.1751 -19.3156 94.2859 -20.118 98.417L-10.7924 100.228C-20.118 98.4169 -20.1186 98.4217 -20.1195 98.4265C-20.1198 98.4283 -20.1213 98.433 -20.122 98.4363C-20.1232 98.443 -20.124 98.4503 -20.1254 98.4574C-20.1281 98.4716 -20.1316 98.4866 -20.1346 98.5024C-20.1405 98.5341 -20.1462 98.5692 -20.1529 98.6074C-20.1665 98.6837 -20.182 98.773 -20.1984 98.8753C-20.2314 99.0802 -20.2691 99.3375 -20.3088 99.648C-20.3884 100.269 -20.476 101.103 -20.5443 102.158C-20.6807 104.268 -20.742 107.26 -20.526 111.198C-20.094 119.075 -18.5504 130.732 -14.2687 146.712C-9.98697 162.691 -5.49514 173.559 -1.93097 180.596C-0.148752 184.115 1.40021 186.675 2.57355 188.435C3.16003 189.314 3.65282 189.992 4.03228 190.49C4.22199 190.739 4.38326 190.943 4.51425 191.104C4.57969 191.185 4.63771 191.254 4.68761 191.314C4.71255 191.343 4.73508 191.371 4.75603 191.395C4.76645 191.408 4.77703 191.419 4.78645 191.43C4.79119 191.435 4.79552 191.441 4.8 191.446C4.80222 191.449 4.80584 191.452 4.80699 191.454C4.8086 191.455 4.80979 191.457 5.70763 190.679L11.9837 185.23L4.81304 191.461C7.57348 194.637 12.0952 195.619 15.9244 193.873C21.8542 191.17 27.2648 186.231 31.7433 181.311C36.3699 176.228 40.7054 170.371 44.3771 164.948C48.0676 159.496 51.1986 154.318 53.4033 150.511C54.5085 148.603 55.3882 147.027 55.9964 145.919C56.3006 145.365 56.5377 144.927 56.7014 144.622C56.7831 144.47 56.8465 144.35 56.8911 144.266C56.9134 144.224 56.9313 144.19 56.9441 144.166C56.9503 144.154 56.9558 144.144 56.9597 144.137C56.9617 144.133 56.9627 144.129 56.9641 144.127C56.9646 144.126 56.966 144.125 56.9664 144.124C56.9671 144.123 56.9678 144.121 48.5579 139.702L56.9675 144.121C58.0785 142.006 58.3524 139.551 57.7342 137.244Z" fill="#363632" stroke="#231F19" stroke-width="19" stroke-linejoin="round"/>
<rect x="40.4077" y="109.285" width="36" height="44" transform="rotate(-15 40.4077 109.285)" fill="#363632" stroke="#231F19" stroke-width="19" stroke-linejoin="round"/>
<path d="M459.329 151.044C456.137 162.957 454.114 191.369 471.562 209.709M426.487 142.244C423.778 154.287 411.324 179.903 386.56 186.933" stroke="#231F19" stroke-width="19" stroke-linecap="round" stroke-linejoin="round"/>
<path d="M437.806 132.844L442.719 114.51C443.337 112.203 443.063 109.748 441.952 107.633L433.542 112.051C441.952 107.633 441.952 107.631 441.951 107.63C441.95 107.629 441.949 107.628 441.948 107.627C441.947 107.624 441.946 107.62 441.944 107.617C441.94 107.609 441.935 107.6 441.929 107.588C441.916 107.564 441.898 107.53 441.875 107.488C441.831 107.404 441.768 107.284 441.686 107.132C441.522 106.827 441.285 106.389 440.981 105.835C440.373 104.727 439.493 103.151 438.388 101.243C436.183 97.4362 433.052 92.2575 429.362 86.8063C425.69 81.3828 421.354 75.5255 416.728 70.4427C412.249 65.5226 406.839 60.5835 400.909 57.8804C397.08 56.1349 392.558 57.1163 389.797 60.2928L396.968 66.5241C389.798 60.2927 389.795 60.2965 389.791 60.3003C389.79 60.3016 389.787 60.3049 389.784 60.3075C389.78 60.3127 389.776 60.3186 389.771 60.3241C389.761 60.335 389.751 60.3462 389.74 60.3584C389.72 60.3829 389.697 60.4105 389.672 60.4402C389.622 60.4995 389.564 60.5691 389.499 60.6495C389.368 60.8105 389.206 61.0144 389.017 61.2634C388.637 61.7616 388.144 62.4398 387.558 63.3192C386.385 65.0786 384.836 67.6389 383.053 71.1578C379.489 78.195 374.997 89.0623 370.716 105.042C366.434 121.022 364.89 132.679 364.458 140.555C364.242 144.494 364.304 147.486 364.44 149.596C364.508 150.651 364.596 151.485 364.676 152.106C364.715 152.416 364.753 152.674 364.786 152.878C364.802 152.981 364.818 153.07 364.831 153.146C364.838 153.185 364.844 153.22 364.85 153.251C364.853 153.267 364.856 153.282 364.859 153.296C364.86 153.303 364.861 153.311 364.862 153.317C364.863 153.321 364.865 153.326 364.865 153.327C364.865 153.33 364.865 153.332 366.032 153.107L374.192 151.526L364.866 153.337C365.669 157.468 369.094 160.579 373.283 160.982C379.77 161.606 386.925 160.033 393.264 158.012C399.812 155.923 406.495 153.018 412.387 150.157C418.308 147.282 423.609 144.362 427.422 142.168C429.333 141.068 430.883 140.143 431.964 139.488C432.504 139.16 432.928 138.899 433.223 138.717C433.37 138.626 433.484 138.554 433.565 138.503C433.605 138.478 433.638 138.458 433.661 138.443C433.672 138.436 433.682 138.431 433.689 138.426C433.692 138.424 433.695 138.421 433.698 138.42C433.699 138.419 433.7 138.419 433.701 138.419C433.702 138.418 433.704 138.417 428.63 130.385L433.704 138.416C435.723 137.14 437.188 135.151 437.806 132.844Z" fill="#363632" stroke="#231F19" stroke-width="19" stroke-linejoin="round"/>
<path d="M454.227 137.244L459.139 118.91C459.757 116.603 461.222 114.613 463.242 113.338L468.316 121.369C463.242 113.337 463.243 113.336 463.244 113.335C463.245 113.335 463.247 113.335 463.248 113.334C463.25 113.333 463.253 113.33 463.257 113.327C463.264 113.323 463.273 113.318 463.284 113.311C463.307 113.296 463.34 113.276 463.38 113.25C463.461 113.2 463.576 113.128 463.723 113.037C464.017 112.854 464.441 112.594 464.982 112.266C466.062 111.611 467.612 110.686 469.524 109.586C473.336 107.391 478.637 104.472 484.559 101.596C490.45 98.7353 497.134 95.8305 503.682 93.742C510.02 91.7203 517.175 90.1482 523.662 90.7721C527.851 91.1751 531.277 94.2859 532.079 98.417L522.753 100.228C532.079 98.4169 532.08 98.4217 532.08 98.4265C532.081 98.4283 532.082 98.433 532.083 98.4363C532.084 98.443 532.085 98.4503 532.086 98.4574C532.089 98.4716 532.093 98.4866 532.096 98.5024C532.101 98.5341 532.107 98.5692 532.114 98.6074C532.127 98.6837 532.143 98.773 532.159 98.8753C532.192 99.0802 532.23 99.3375 532.27 99.648C532.349 100.269 532.437 101.103 532.505 102.158C532.642 104.268 532.703 107.26 532.487 111.198C532.055 119.075 530.511 130.732 526.23 146.712C521.948 162.691 517.456 173.559 513.892 180.596C512.11 184.115 510.561 186.675 509.387 188.435C508.801 189.314 508.308 189.992 507.929 190.49C507.739 190.739 507.578 190.943 507.447 191.104C507.381 191.185 507.323 191.254 507.273 191.314C507.248 191.343 507.226 191.371 507.205 191.395C507.194 191.408 507.184 191.419 507.174 191.43C507.17 191.435 507.165 191.441 507.161 191.446C507.159 191.449 507.155 191.452 507.154 191.454C507.152 191.455 507.151 191.457 506.253 190.679L499.977 185.23L507.148 191.461C504.387 194.637 499.866 195.619 496.037 193.873C490.107 191.17 484.696 186.231 480.218 181.311C475.591 176.228 471.256 170.371 467.584 164.948C463.893 159.496 460.762 154.318 458.558 150.511C457.452 148.603 456.573 147.027 455.965 145.919C455.66 145.365 455.423 144.927 455.26 144.622C455.178 144.47 455.114 144.35 455.07 144.266C455.048 144.224 455.03 144.19 455.017 144.166C455.011 144.154 455.005 144.144 455.001 144.137C454.999 144.133 454.998 144.129 454.997 144.127C454.996 144.126 454.995 144.125 454.995 144.124C454.994 144.123 454.993 144.121 463.403 139.702L454.993 144.121C453.882 142.006 453.609 139.551 454.227 137.244Z" fill="#363632" stroke="#231F19" stroke-width="19" stroke-linejoin="round"/>
<rect width="36" height="44" transform="matrix(-0.965926 -0.258819 -0.258819 0.965926 471.553 109.285)" fill="#363632" stroke="#231F19" stroke-width="19" stroke-linejoin="round"/>
<path d="M52.6322 151.044C55.8243 162.957 57.8467 191.369 40.3991 209.709M85.4737 142.244C88.1829 154.287 100.637 179.903 125.401 186.933" stroke="#231F19" stroke-width="19" stroke-linecap="round" stroke-linejoin="round"/>
<path d="M137.769 151.526C119.567 153.277 83.3313 130.385 83.3313 130.385L78.4189 112.051C78.4189 112.051 98.3542 74.1086 114.993 66.5242C114.993 66.5242 123.807 76.6669 132.069 107.501C140.331 138.335 137.769 151.526 137.769 151.526Z" fill="#363632"/>
<path d="M132.069 107.501C123.82 76.7142 115.02 66.5552 114.993 66.5241C98.3621 74.105 78.4374 112.016 78.4187 112.051C61.599 103.214 61.5998 103.212 61.6011 103.209C61.6016 103.208 61.6037 103.206 61.6048 103.204C61.6069 103.2 61.6094 103.195 61.6121 103.19C61.6176 103.18 61.6242 103.166 61.6321 103.151C61.6479 103.121 61.6685 103.082 61.6939 103.035C61.7449 102.939 61.8154 102.807 61.904 102.642C62.0812 102.311 62.3322 101.846 62.6519 101.263C63.2906 100.1 64.2061 98.4602 65.352 96.4818C67.6325 92.5444 70.883 87.1662 74.7323 81.4803C78.5439 75.8502 83.1635 69.5898 88.208 64.048C92.9565 58.8313 99.4118 52.7455 107.112 49.2355L107.472 49.0764C115.052 45.8073 123.899 47.8078 129.334 54.0615L114.993 66.5241C129.22 54.1602 129.34 54.0687 129.347 54.0753C129.349 54.0778 129.356 54.0859 129.36 54.0909C129.369 54.1008 129.378 54.111 129.387 54.1213C129.404 54.1419 129.422 54.1635 129.441 54.1855C129.479 54.2295 129.518 54.2763 129.56 54.3256C129.643 54.4242 129.734 54.5331 129.831 54.6532C130.027 54.8933 130.251 55.1774 130.502 55.5067C131.004 56.1654 131.611 57.0067 132.306 58.0492C133.698 60.1353 135.436 63.0225 137.382 66.865C141.274 74.5496 145.989 86.0404 150.422 102.583C154.854 119.126 156.517 131.435 156.988 140.036C157.224 144.337 157.162 147.706 157 150.208C156.92 151.459 156.814 152.491 156.709 153.312C156.656 153.723 156.604 154.081 156.555 154.387C156.53 154.54 156.506 154.68 156.483 154.806C156.472 154.87 156.461 154.93 156.451 154.987C156.446 155.015 156.441 155.043 156.436 155.07C156.433 155.083 156.431 155.096 156.428 155.109C156.427 155.116 156.425 155.126 156.424 155.13C156.423 155.134 156.385 155.132 154.09 154.689L137.769 151.526C137.777 151.486 140.24 138.697 132.449 108.933L132.069 107.501ZM64.9786 135.303L60.0661 116.969C58.8296 112.354 59.3772 107.443 61.5993 103.214L78.4187 112.051L83.3312 130.385C83.3649 130.406 119.576 153.276 137.769 151.526L156.42 155.148C154.815 163.41 147.966 169.632 139.588 170.438C131.165 171.249 122.531 169.206 115.811 167.062C108.671 164.785 101.54 161.673 95.4242 158.703C89.2476 155.704 83.7435 152.672 79.7998 150.402C77.8182 149.262 76.2057 148.299 75.0706 147.611C74.5025 147.266 74.0525 146.989 73.7338 146.791C73.5745 146.693 73.4476 146.614 73.3554 146.556C73.3095 146.527 73.2722 146.504 73.2436 146.486C73.2292 146.477 73.2168 146.469 73.2069 146.462C73.202 146.459 73.1974 146.456 73.1935 146.454C73.1916 146.453 73.1887 146.452 73.1878 146.451C73.1855 146.45 73.1835 146.448 83.3312 130.385L73.1839 146.448C69.145 143.897 66.2151 139.917 64.9786 135.303Z" fill="#231F19"/>
<path d="M11.9839 185.23C28.6225 177.645 48.5579 139.702 48.5579 139.702L43.6454 121.369C43.6454 121.369 7.40952 98.4771 -10.7922 100.228C-10.7922 100.228 -13.3543 113.419 -5.09241 144.253C3.1695 175.087 11.9839 185.23 11.9839 185.23Z" fill="#363632"/>
<path d="M-5.09242 144.253C-13.3416 113.467 -10.8003 100.269 -10.7924 100.228C7.40075 98.478 43.6114 121.347 43.6454 121.369C53.7931 105.306 53.7911 105.304 53.7888 105.302C53.7879 105.302 53.785 105.301 53.7831 105.3C53.7792 105.298 53.7746 105.295 53.7697 105.291C53.7598 105.285 53.7474 105.277 53.733 105.268C53.7044 105.25 53.6671 105.226 53.6212 105.198C53.529 105.14 53.4021 105.061 53.2428 104.962C52.9241 104.765 52.4741 104.487 51.906 104.143C50.7709 103.454 49.1584 102.492 47.1768 101.352C43.2331 99.0822 37.729 96.0498 31.5524 93.0503C25.4364 90.0803 18.3056 86.9684 11.166 84.6913C4.44527 82.5478 -4.1881 80.505 -12.6117 81.3154L-13.0028 81.3575C-21.2021 82.3165 -27.8639 88.4726 -29.4436 96.6059L-10.7924 100.228C-29.2955 96.6343 -29.4448 96.6149 -29.4478 96.6242C-29.4484 96.6275 -29.4502 96.6379 -29.4515 96.6444C-29.454 96.6573 -29.4566 96.6706 -29.4591 96.6838C-29.4642 96.7107 -29.469 96.7384 -29.4743 96.7668C-29.4849 96.8237 -29.4955 96.884 -29.5068 96.9474C-29.5293 97.0742 -29.5538 97.2141 -29.5784 97.3669C-29.6275 97.6726 -29.6797 98.0308 -29.7323 98.4414C-29.8375 99.2627 -29.9429 100.295 -30.0238 101.545C-30.1856 104.048 -30.2475 107.417 -30.0116 111.718C-29.5399 120.319 -27.8776 132.628 -23.445 149.171C-19.0124 165.713 -14.2976 177.204 -10.4056 184.889C-8.45941 188.731 -6.721 191.619 -5.32982 193.705C-4.63458 194.747 -4.02712 195.588 -3.52534 196.247C-3.27448 196.576 -3.05023 196.86 -2.85481 197.101C-2.75711 197.221 -2.66599 197.33 -2.58304 197.428C-2.5416 197.477 -2.50225 197.524 -2.46461 197.568C-2.44583 197.59 -2.42782 197.612 -2.41 197.633C-2.40116 197.643 -2.39226 197.653 -2.38367 197.663C-2.37932 197.668 -2.37255 197.676 -2.37037 197.679C-2.36679 197.682 -2.33565 197.661 -0.569091 196.13L11.9836 185.23C11.9569 185.199 3.42961 175.355 -4.70522 145.683L-5.09242 144.253ZM66.9105 134.785L61.998 116.451C60.7615 111.837 57.8316 107.857 53.7927 105.305L43.6454 121.369L48.5579 139.702C48.5394 139.738 28.6146 177.649 11.9836 185.23L-2.35759 197.692C3.16329 204.045 12.206 206.009 19.8645 202.518C27.5648 199.008 34.0201 192.923 38.7686 187.706C43.8131 182.164 48.4327 175.904 52.2443 170.273C56.0936 164.588 59.3441 159.209 61.6246 155.272C62.7705 153.294 63.686 151.654 64.3247 150.49C64.6444 149.908 64.8954 149.442 65.0726 149.112C65.1612 148.947 65.2317 148.815 65.2828 148.719C65.3081 148.671 65.3287 148.632 65.3445 148.602C65.3524 148.588 65.359 148.574 65.3645 148.564C65.3672 148.559 65.3697 148.554 65.3718 148.55C65.3729 148.548 65.375 148.546 65.3755 148.545C65.3768 148.542 65.3776 148.54 48.5579 139.702L65.3773 148.54C67.5994 144.311 68.147 139.4 66.9105 134.785Z" fill="#231F19"/>
<rect x="40.4077" y="109.285" width="36" height="44" transform="rotate(-15 40.4077 109.285)" fill="#363632" stroke="#231F19" stroke-width="19" stroke-linejoin="round"/>
<path d="M459.329 151.044C456.137 162.957 454.114 191.369 471.562 209.709M426.487 142.244C423.778 154.287 411.324 179.903 386.56 186.933" stroke="#231F19" stroke-width="19" stroke-linecap="round" stroke-linejoin="round"/>
<path d="M374.192 151.526C392.394 153.277 428.63 130.385 428.63 130.385L433.542 112.051C433.542 112.051 413.607 74.1086 396.968 66.5242C396.968 66.5242 388.154 76.6669 379.892 107.501C371.63 138.335 374.192 151.526 374.192 151.526Z" fill="#363632"/>
<path d="M379.892 107.501C388.141 76.7142 396.941 66.5552 396.968 66.5241C413.599 74.105 433.524 112.016 433.542 112.051C450.362 103.214 450.361 103.212 450.36 103.209C450.359 103.208 450.357 103.206 450.356 103.204C450.354 103.2 450.352 103.195 450.349 103.19C450.343 103.18 450.337 103.166 450.329 103.151C450.313 103.121 450.292 103.082 450.267 103.035C450.216 102.939 450.146 102.807 450.057 102.642C449.88 102.311 449.629 101.846 449.309 101.263C448.67 100.1 447.755 98.4602 446.609 96.4818C444.328 92.5444 441.078 87.1662 437.229 81.4803C433.417 75.8502 428.797 69.5898 423.753 64.048C419.004 58.8313 412.549 52.7455 404.849 49.2355L404.489 49.0764C396.909 45.8073 388.061 47.8078 382.627 54.0615L396.968 66.5241C382.741 54.1602 382.621 54.0687 382.614 54.0753C382.612 54.0778 382.605 54.0859 382.601 54.0909C382.592 54.1008 382.583 54.111 382.574 54.1213C382.557 54.1419 382.539 54.1635 382.52 54.1855C382.482 54.2295 382.443 54.2763 382.401 54.3256C382.318 54.4242 382.227 54.5331 382.13 54.6532C381.934 54.8933 381.71 55.1774 381.459 55.5067C380.957 56.1654 380.35 57.0067 379.655 58.0492C378.263 60.1353 376.525 63.0225 374.579 66.865C370.687 74.5496 365.972 86.0404 361.539 102.583C357.107 119.126 355.444 131.435 354.973 140.036C354.737 144.337 354.799 147.706 354.961 150.208C355.041 151.459 355.147 152.491 355.252 153.312C355.305 153.723 355.357 154.081 355.406 154.387C355.431 154.54 355.455 154.68 355.478 154.806C355.489 154.87 355.499 154.93 355.51 154.987C355.515 155.015 355.52 155.043 355.525 155.07C355.528 155.083 355.53 155.096 355.533 155.109C355.534 155.116 355.536 155.126 355.537 155.13C355.538 155.134 355.576 155.132 357.871 154.689L374.192 151.526C374.184 151.486 371.721 138.697 379.512 108.933L379.892 107.501ZM446.982 135.303L451.895 116.969C453.131 112.354 452.584 107.443 450.362 103.214L433.542 112.051L428.63 130.385C428.596 130.406 392.385 153.276 374.192 151.526L355.541 155.148C357.146 163.41 363.995 169.632 372.373 170.438C380.796 171.249 389.43 169.206 396.15 167.062C403.29 164.785 410.421 161.673 416.537 158.703C422.713 155.704 428.217 152.672 432.161 150.402C434.143 149.262 435.755 148.299 436.89 147.611C437.458 147.266 437.908 146.989 438.227 146.791C438.386 146.693 438.513 146.614 438.606 146.556C438.651 146.527 438.689 146.504 438.717 146.486C438.732 146.477 438.744 146.469 438.754 146.462C438.759 146.459 438.764 146.456 438.767 146.454C438.769 146.453 438.772 146.452 438.773 146.451C438.775 146.45 438.777 146.448 428.63 130.385L438.777 146.448C442.816 143.897 445.746 139.917 446.982 135.303Z" fill="#231F19"/>
<path d="M499.977 185.23C483.338 177.645 463.403 139.702 463.403 139.702L468.316 121.369C468.316 121.369 504.551 98.4771 522.753 100.228C522.753 100.228 525.315 113.419 517.053 144.253C508.791 175.087 499.977 185.23 499.977 185.23Z" fill="#363632"/>
<path d="M517.053 144.253C525.303 113.467 522.761 100.269 522.753 100.228C504.56 98.478 468.35 121.347 468.316 121.369C458.168 105.306 458.17 105.304 458.172 105.302C458.173 105.302 458.176 105.301 458.178 105.3C458.182 105.298 458.186 105.295 458.191 105.291C458.201 105.285 458.214 105.277 458.228 105.268C458.257 105.25 458.294 105.226 458.34 105.198C458.432 105.14 458.559 105.061 458.718 104.962C459.037 104.765 459.487 104.487 460.055 104.143C461.19 103.454 462.803 102.492 464.784 101.352C468.728 99.0822 474.232 96.0498 480.409 93.0503C486.525 90.0803 493.655 86.9684 500.795 84.6913C507.516 82.5478 516.149 80.505 524.573 81.3154L524.964 81.3575C533.163 82.3165 539.825 88.4726 541.405 96.6059L522.753 100.228C541.256 96.6343 541.406 96.6149 541.409 96.6242C541.409 96.6275 541.411 96.6379 541.412 96.6444C541.415 96.6573 541.418 96.6706 541.42 96.6838C541.425 96.7107 541.43 96.7384 541.435 96.7668C541.446 96.8237 541.456 96.884 541.468 96.9474C541.49 97.0742 541.515 97.2141 541.539 97.3669C541.588 97.6726 541.641 98.0308 541.693 98.4414C541.798 99.2627 541.904 100.295 541.985 101.545C542.146 104.048 542.208 107.417 541.973 111.718C541.501 120.319 539.839 132.628 535.406 149.171C530.973 165.713 526.259 177.204 522.367 184.889C520.42 188.731 518.682 191.619 517.291 193.705C516.596 194.747 515.988 195.588 515.486 196.247C515.235 196.576 515.011 196.86 514.816 197.101C514.718 197.221 514.627 197.33 514.544 197.428C514.503 197.477 514.463 197.524 514.426 197.568C514.407 197.59 514.389 197.612 514.371 197.633C514.362 197.643 514.353 197.653 514.345 197.663C514.34 197.668 514.333 197.676 514.331 197.679C514.328 197.682 514.297 197.661 512.53 196.13L499.977 185.23C500.004 185.199 508.531 175.355 516.666 145.683L517.053 144.253ZM445.05 134.785L449.963 116.451C451.199 111.837 454.129 107.857 458.168 105.305L468.316 121.369L463.403 139.702C463.422 139.738 483.346 177.649 499.977 185.23L514.319 197.692C508.798 204.045 499.755 206.009 492.096 202.518C484.396 199.008 477.941 192.923 473.192 187.706C468.148 182.164 463.528 175.904 459.717 170.273C455.867 164.588 452.617 159.209 450.336 155.272C449.19 153.294 448.275 151.654 447.636 150.49C447.316 149.908 447.066 149.442 446.888 149.112C446.8 148.947 446.729 148.815 446.678 148.719C446.653 148.671 446.632 148.632 446.616 148.602C446.609 148.588 446.602 148.574 446.596 148.564C446.594 148.559 446.591 148.554 446.589 148.55C446.588 148.548 446.586 148.546 446.585 148.545C446.584 148.542 446.583 148.54 463.403 139.702L446.584 148.54C444.362 144.311 443.814 139.4 445.05 134.785Z" fill="#231F19"/>
<rect width="36" height="44" transform="matrix(-0.965926 -0.258819 -0.258819 0.965926 471.553 109.285)" fill="#363632" stroke="#231F19" stroke-width="19" stroke-linejoin="round"/>
</g>
<defs>
<clipPath id="clip0_19_5">
<rect width="512" height="512" fill="white"/>
</clipPath>
</defs>
</svg>
