<svg width="512" height="512" viewBox="0 0 512 512" fill="none" xmlns="http://www.w3.org/2000/svg">
<g clip-path="url(#clip0_17_36)">
<rect width="512" height="512" fill="#857B74"/>
<path d="M302.5 474C332 485 369 481.5 386.5 481.5C404 481.5 444.5 496.5 443.5 517V550.5H68.5V517C67.5 496.5 108 481.5 125.5 481.5C143 481.5 180 485 209.5 474C216.3 460 218.667 425.833 219 410.5H293C293.333 425.833 295.7 460 302.5 474Z" fill="#FFF5ED" stroke="#23202C" stroke-width="19" stroke-linejoin="round"/>
<mask id="mask0_17_36" style="mask-type:alpha" maskUnits="userSpaceOnUse" x="58" y="401" width="396" height="159">
<path d="M302.5 474C332 485 369 481.5 386.5 481.5C404 481.5 444.5 496.5 443.5 517V550.5H68.5V517C67.5 496.5 108 481.5 125.5 481.5C143 481.5 180 485 209.5 474C216.3 460 218.667 425.833 219 410.5H293C293.333 425.833 295.7 460 302.5 474Z" fill="#E5D4DF" stroke="#23202C" stroke-width="19" stroke-linejoin="round"/>
</mask>
<g mask="url(#mask0_17_36)">
<path d="M367 533H326V454H367V533Z" fill="#474241" stroke="#23202C" stroke-width="19"/>
<path d="M186 533H145V454H186V533Z" fill="#474241" stroke="#23202C" stroke-width="19"/>
<path d="M302.5 474C332 485 369 481.5 386.5 481.5C404 481.5 444.5 496.5 443.5 517V550.5H68.5V517C67.5 496.5 108 481.5 125.5 481.5C143 481.5 180 485 209.5 474C216.3 460 218.667 425.833 219 410.5H293C293.333 425.833 295.7 460 302.5 474Z" stroke="#23202C" stroke-width="19" stroke-linejoin="round"/>
</g>
<path d="M256 33.5C375.924 33.5 474.5 123.218 474.5 235.5C474.5 289.796 462.91 340.702 428.827 378.024C394.597 415.507 339.339 437.5 256 437.5C172.661 437.5 117.403 415.507 83.1729 378.024C49.0898 340.702 37.5 289.796 37.5 235.5C37.5 123.218 136.076 33.5 256 33.5Z" fill="#FFF5ED" stroke="#23202C" stroke-width="19"/>
<path d="M264 408C261.6 403.333 257.655 401.28 256 401C254.345 401.28 250.4 403.333 248 408" stroke="#23202C" stroke-width="19" stroke-linecap="round" stroke-linejoin="round"/>
<path d="M222 252H160.5C169.5 236.5 187.4 198.3 187 169.5C167 207.9 132.333 242.5 117.5 255C123.167 241 125.9 223.2 125.5 190C87.5 231 36.5 324 121 386.5C111.696 395.06 93.2513 400.018 73.5 393.541C54 422.041 38 478 63 546H-47.5V-79.5H585V550H468.5C487.466 517.225 433.692 464.189 433.003 401.834C416.463 403.478 395.509 399.687 381 385.5C421.5 371.5 450 345 453 304C453 304 439.45 297.43 434.125 289.938C428.027 281.357 427.25 263.875 427.25 263.875C427.25 263.875 413.7 257.305 408.375 249.812C402.277 241.232 401.5 223.75 401.5 223.75C401.5 223.75 387.95 217.18 382.625 209.688C376.527 201.107 375.75 183.625 375.75 183.625C375.75 183.625 362.2 177.055 356.875 169.562C350.777 160.982 350 143.5 350 143.5C351 191.5 307 236 272 252H222Z" fill="#857B74"/>
<path d="M222 252H160.5C169.5 236.5 187.4 198.3 187 169.5C167 207.9 132.333 242.5 117.5 255C123.167 241 125.9 223.2 125.5 190C87.5 231 36.5 324 121 386.5C111.696 395.06 93.2512 400.018 73.5 393.541M222 252L231 235.5M454.5 395C449.883 398.374 442.113 400.928 433.003 401.834C416.463 403.478 395.509 399.687 381 385.5C421.5 371.5 450 345 453 304C453 304 439.45 297.43 434.125 289.938C428.027 281.357 427.25 263.875 427.25 263.875C427.25 263.875 413.7 257.305 408.375 249.812C402.277 241.232 401.5 223.75 401.5 223.75C401.5 223.75 387.95 217.18 382.625 209.688C376.527 201.107 375.75 183.625 375.75 183.625C375.75 183.625 362.2 177.055 356.875 169.562C350.777 160.982 350 143.5 350 143.5C351 191.5 307 236 272 252H222M73.5 393.541C54 422.041 38 478 63 546H-47.5V-79.5H585V550H468.5C487.466 517.225 433.692 464.189 433.003 401.834M73.5 393.541C66.715 391.316 59.7758 387.742 53 382.5" stroke="#23202C" stroke-width="19" stroke-linecap="round" stroke-linejoin="round"/>
<path d="M405.75 164.625C405.75 164.625 419.3 171.195 424.625 178.688C430.723 187.268 431.5 204.75 431.5 204.75C431.5 204.75 445.05 211.32 450.375 218.812C456.473 227.393 457.25 244.875 457.25 244.875C457.25 244.875 470.8 251.445 476.125 258.938C482.223 267.518 483 285 483 285" stroke="#23202C" stroke-width="19" stroke-linecap="round" stroke-linejoin="round"/>
<mask id="mask1_17_36" style="mask-type:alpha" maskUnits="userSpaceOnUse" x="78" y="269" width="148" height="105">
<path d="M225.94 281.224C225.94 281.224 200.239 269.94 151.97 269.94C103.701 269.94 78 281.224 78 281.224V374H225.94V281.224Z" fill="#D9D9D9"/>
</mask>
<g mask="url(#mask1_17_36)">
<path d="M210.895 290C210.895 336.392 198.358 374 152.597 374C106.836 374 94.2985 336.392 94.2985 290C94.2985 243.608 120.4 206 152.597 206C184.794 206 210.895 243.608 210.895 290Z" fill="#23202C"/>
</g>
<mask id="mask2_17_36" style="mask-type:alpha" maskUnits="userSpaceOnUse" x="94" y="206" width="117" height="168">
<path d="M210.895 290C210.895 336.392 198.358 374 152.597 374C106.836 374 94.2985 336.392 94.2985 290C94.2985 243.608 120.4 206 152.597 206C184.794 206 210.895 243.608 210.895 290Z" fill="#231E08"/>
</mask>
<g mask="url(#mask2_17_36)">
<ellipse cx="152.597" cy="375.881" rx="73.3433" ry="58.2985" fill="#7C4168"/>
</g>
<path d="M225.94 289.224C225.94 289.224 200.239 277.94 151.97 277.94C103.701 277.94 78 289.224 78 289.224" stroke="#23202C" stroke-width="19" stroke-linecap="round"/>
<mask id="mask3_17_36" style="mask-type:alpha" maskUnits="userSpaceOnUse" x="285" y="269" width="149" height="105">
<path d="M433.881 281.224C433.881 281.224 408.179 269.94 359.91 269.94C311.642 269.94 285.94 281.224 285.94 281.224V374H433.881V281.224Z" fill="#D9D9D9"/>
</mask>
<g mask="url(#mask3_17_36)">
<path d="M418.836 290C418.836 336.392 406.298 374 360.537 374C314.776 374 302.239 336.392 302.239 290C302.239 243.608 328.34 206 360.537 206C392.735 206 418.836 243.608 418.836 290Z" fill="#23202C"/>
</g>
<mask id="mask4_17_36" style="mask-type:alpha" maskUnits="userSpaceOnUse" x="302" y="206" width="117" height="168">
<path d="M418.836 290C418.836 336.392 406.298 374 360.537 374C314.776 374 302.239 336.392 302.239 290C302.239 243.608 328.34 206 360.537 206C392.735 206 418.836 243.608 418.836 290Z" fill="#231E08"/>
</mask>
<g mask="url(#mask4_17_36)">
<ellipse cx="360.537" cy="375.881" rx="73.3433" ry="58.2985" fill="#7C4168"/>
</g>
<path d="M433.881 289.224C433.881 289.224 408.179 277.94 359.91 277.94C311.642 277.94 285.94 289.224 285.94 289.224" stroke="#23202C" stroke-width="19" stroke-linecap="round"/>
<path d="M422.193 -32.5574C430.68 -34.9942 439.174 -34.3928 446.444 -29.9311C453.598 -25.5402 458.258 -18.2163 460.875 -9.75204C462.608 -4.1476 463.554 2.27283 463.695 9.38605C468.56 4.19425 473.559 0.0565563 478.597 -2.94884C486.206 -7.48772 494.569 -9.81293 502.824 -8.2888C511.213 -6.73975 517.93 -1.50197 522.606 5.98969C527.545 13.3076 529.596 21.5709 527.6 29.8623C525.635 38.0237 520.109 44.7185 512.868 49.8232C508.073 53.2031 502.259 56.0864 495.538 58.4187C501.979 61.4409 507.459 64.9174 511.874 68.78C518.542 74.6138 523.338 81.8489 524.439 90.1709C525.558 98.6289 522.651 106.635 516.971 113.398C511.537 120.355 504.313 124.86 495.811 125.523C487.442 126.176 479.367 122.989 472.275 117.68C467.578 114.164 463.039 109.527 458.744 103.855C457.86 110.914 456.248 117.2 453.939 122.593C450.451 130.737 445.052 137.535 437.478 141.154C429.783 144.83 421.274 144.542 413.089 141.233C404.789 138.216 398.269 132.736 395.01 124.851C391.802 117.094 392.337 108.43 395.195 100.044C397.087 94.4916 400.094 88.7406 404.161 82.9032C397.174 84.2438 390.698 84.6524 384.857 84.1226C376.033 83.3224 367.901 80.2883 362.118 74.203C356.242 68.0195 353.887 59.8356 354.506 51.0271C354.811 42.2027 358.009 34.3105 364.498 28.7754C370.885 23.3278 379.291 21.1599 388.15 21.2864C394.015 21.3702 400.413 22.4536 407.221 24.5172C403.787 18.2867 401.398 12.2533 400.096 6.53359C398.131 -2.10533 398.504 -10.7777 402.505 -18.1576C406.57 -25.6562 413.624 -30.4241 422.193 -32.5574Z" fill="#FEFCFC" stroke="#D3CACC" stroke-width="19" stroke-linecap="round" stroke-linejoin="round"/>
<circle cx="445.872" cy="55.8163" r="20.5" transform="rotate(-15 445.872 55.8163)" fill="#FFDAB6" stroke="#E2B087" stroke-width="19"/>
<path d="M1.71661e-05 -70C86.3424 -76.5 149.5 -71.5 169 48.5C169 48.5 82.1576 90.5 45.1576 156C-50 115.5 -27.3333 -14.3334 1.71661e-05 -70Z" fill="#FED7D1"/>
<mask id="mask5_17_36" style="mask-type:alpha" maskUnits="userSpaceOnUse" x="-24" y="-72" width="193" height="228">
<path d="M1.71661e-05 -70C86.3424 -76.5 149.5 -71.5 169 48.5C169 48.5 82.1576 90.5 45.1576 156C-50 115.5 -27.3333 -14.3334 1.71661e-05 -70Z" fill="#FED7D1"/>
</mask>
<g mask="url(#mask5_17_36)">
<path d="M18 95.5L70.6577 126L147.158 68.5L99 -19L101.158 46.5L28.1577 10L52.6577 84.5L18 95.5Z" fill="#FEFCFC" stroke="#8E6E71" stroke-width="19" stroke-linejoin="round"/>
</g>
<path d="M1.71661e-05 -70C86.3424 -76.5 149.5 -71.5 169 48.5C169 48.5 82.1576 90.5 45.1576 156C-50 115.5 -27.3333 -14.3334 1.71661e-05 -70Z" stroke="#23202C" stroke-width="19" stroke-linecap="round" stroke-linejoin="round"/>
</g>
<defs>
<clipPath id="clip0_17_36">
<rect width="512" height="512" fill="white"/>
</clipPath>
</defs>
</svg>
