<svg width="512" height="512" viewBox="0 0 512 512" fill="none" xmlns="http://www.w3.org/2000/svg">
<g clip-path="url(#clip0_43_352)">
<rect width="512" height="512" fill="#595AAA"/>
<path d="M209.5 474C216.3 460 218.667 425.833 219 410.5H293C293.333 425.833 295.7 460 302.5 474C296.833 485 266.8 509.4 256 519C245.2 509.4 215.167 485 209.5 474Z" fill="#DDB3CB" stroke="#211E55" stroke-width="19" stroke-linejoin="round"/>
<path d="M256 519C245.2 509.4 215.166 485 209.5 474C180 485 143 481.5 125.5 481.5C108 481.5 67.4996 496.5 68.4996 517V550.5H443.5V517C444.5 496.5 404 481.5 386.5 481.5C369 481.5 332 485 302.5 474C296.833 485 266.8 509.4 256 519Z" fill="#707DF5" stroke="#211E55" stroke-width="19" stroke-linejoin="round"/>
<mask id="mask0_43_352" style="mask-type:alpha" maskUnits="userSpaceOnUse" x="58" y="464" width="396" height="96">
<path d="M256 519C245.2 509.4 215.166 485 209.5 474C180 485 143 481.5 125.5 481.5C108 481.5 67.4996 496.5 68.4996 517V550.5H443.5V517C444.5 496.5 404 481.5 386.5 481.5C369 481.5 332 485 302.5 474C296.833 485 266.8 509.4 256 519Z" fill="#707DF5" stroke="#211E55" stroke-width="19" stroke-linejoin="round"/>
</mask>
<g mask="url(#mask0_43_352)">
<path d="M113.5 479.5C118.133 479.5 142.134 479.745 149 479.902C152.5 507 141 538.5 127.5 548.5L92 548.098C105.5 538.098 117 506.598 113.5 479.5Z" fill="#799AE1" stroke="#211E55" stroke-width="19" stroke-linejoin="round"/>
<path d="M398.505 479.5C393.872 479.5 369.871 479.745 363.005 479.902C359.505 507 371.005 538.5 384.505 548.5L420.005 548.098C406.505 538.098 395.005 506.598 398.505 479.5Z" fill="#799AE1" stroke="#211E55" stroke-width="19" stroke-linejoin="round"/>
</g>
<path d="M256 519C245.2 509.4 215.166 485 209.5 474C180 485 143 481.5 125.5 481.5C108 481.5 67.4996 496.5 68.4996 517V550.5H443.5V517C444.5 496.5 404 481.5 386.5 481.5C369 481.5 332 485 302.5 474C296.833 485 266.8 509.4 256 519Z" stroke="#211E55" stroke-width="19" stroke-linejoin="round"/>
<path d="M174.009 475.3C180.79 469.293 196.211 464.93 203.073 463.5C209.813 472.532 225.009 491 243.009 503C243.007 503.001 243.006 503.001 243.005 503.002C245.506 504.001 250.503 505 256 505C261.497 505 266.494 504.001 268.995 503.002C268.994 503.001 268.992 503.001 268.991 503C286.991 491 302.186 472.532 308.927 463.5C315.789 464.93 331.209 469.293 337.991 475.3C331 493.5 310 516 293 522.5C289.491 516.001 279.494 507.502 268.995 503.002C266.494 504.001 261.497 505 256 505C250.503 505 245.506 504.001 243.005 503.002C232.506 507.502 222.508 516.001 219 522.5C202 516 181 493.5 174.009 475.3Z" fill="#E5CDDD"/>
<path d="M243 503C245.5 504 250.5 505 256 505C261.5 505 266.5 504 269 503M203.073 463.5C196.211 464.93 180.79 469.293 174.009 475.3C181 493.5 202 516 219 522.5C222.509 516 232.509 507.5 243.009 503C225.009 491 209.813 472.532 203.073 463.5ZM308.927 463.5C315.789 464.93 331.209 469.293 337.991 475.3C331 493.5 310 516 293 522.5C289.491 516 279.491 507.5 268.991 503C286.991 491 302.186 472.532 308.927 463.5Z" stroke="#341F34" stroke-width="19" stroke-linecap="round" stroke-linejoin="round"/>
<path d="M256 33.5C375.924 33.5 474.5 123.218 474.5 235.5C474.5 289.796 462.91 340.702 428.827 378.024C394.597 415.507 339.339 437.5 256 437.5C172.661 437.5 117.403 415.507 83.1729 378.024C49.0898 340.702 37.5 289.796 37.5 235.5C37.5 123.218 136.076 33.5 256 33.5Z" fill="#DDB3CB" stroke="#211E55" stroke-width="19"/>
<path d="M264 408C261.6 403.333 257.655 401.28 256 401C254.345 401.28 250.4 403.333 248 408" stroke="#211E55" stroke-width="19" stroke-linecap="round" stroke-linejoin="round"/>
<path d="M67.5 303C88 235 138.5 194 196 162.5C204 202.5 224.5 218.5 265.5 255.5C265.5 255.5 271.5 250 273.5 240C285 259.5 314.337 276.458 330 274.5C305.5 245.5 310 210.5 318 175C336.5 218.5 371 237 414.5 262.5C427.89 265.12 444.262 265.096 459 263.593V274C451 319 421 374 398 382C424.5 400 465.5 385.333 474 378.5L544 360V-32H-32V486H54.5C80.5 465.5 85.5 415.5 70 393.5V391.264C85.0334 393.717 103.272 392.463 120.5 381.5C90.1847 364.51 74.9625 334.203 66.8478 303H67.5Z" fill="#595AAA"/>
<path d="M67.4999 303C85.5 236.5 145 187.5 197.5 160C201.5 188 231.5 235.5 265.5 255.5C265.5 255.5 267 248.5 273.5 240C285 259.5 314.337 276.458 330 274.5C305.5 245.5 310.5 193.5 316.5 172.5C335 216 360.5 238 395.5 258C424.5 264 476.501 259.5 497.001 248.5C474.501 236 430 206 417.5 154.5M98.9999 544H-32V-32H544.001V544H405M64 238C54.5 288.5 74.9999 356 120.5 381.5C89.6999 401.1 55.6666 389.667 42.4999 381.5M469.5 381.5C456.334 389.667 422.3 401.1 391.5 381.5C431.465 359.102 449.057 307 451.729 264.5M453 391C448.5 405.5 439 417 426 424.5C440.5 430.5 461.5 428 470 420.5M59.0001 391C63.5001 405.5 73.0006 417 86.0006 424.5C71.5006 430.5 50.5 428 42 420.5" stroke="#211E55" stroke-width="19" stroke-linecap="round" stroke-linejoin="round"/>
<mask id="mask1_43_352" style="mask-type:alpha" maskUnits="userSpaceOnUse" x="78" y="269" width="148" height="105">
<path d="M225.94 281.224C225.94 281.224 200.239 269.94 151.97 269.94C103.701 269.94 78 281.224 78 281.224V374H225.94V281.224Z" fill="#D9D9D9"/>
</mask>
<g mask="url(#mask1_43_352)">
<path d="M210.896 290C210.896 336.392 198.359 374 152.597 374C106.836 374 94.2988 336.392 94.2988 290C94.2988 243.608 120.4 206 152.597 206C184.795 206 210.896 243.608 210.896 290Z" fill="#211E55"/>
</g>
<mask id="mask2_43_352" style="mask-type:alpha" maskUnits="userSpaceOnUse" x="94" y="206" width="117" height="168">
<path d="M210.896 290C210.896 336.392 198.359 374 152.597 374C106.836 374 94.2988 336.392 94.2988 290C94.2988 243.608 120.4 206 152.597 206C184.795 206 210.896 243.608 210.896 290Z" fill="#231E08"/>
</mask>
<g mask="url(#mask2_43_352)">
<ellipse cx="152.597" cy="375.881" rx="73.3433" ry="58.2985" fill="#7F4E44"/>
</g>
<path d="M225.94 289.224C225.94 289.224 200.239 277.94 151.97 277.94C103.701 277.94 78 289.224 78 289.224" stroke="#211E55" stroke-width="19" stroke-linecap="round"/>
<mask id="mask3_43_352" style="mask-type:alpha" maskUnits="userSpaceOnUse" x="285" y="269" width="149" height="105">
<path d="M433.881 281.224C433.881 281.224 408.179 269.94 359.911 269.94C311.642 269.94 285.94 281.224 285.94 281.224V374H433.881V281.224Z" fill="#D9D9D9"/>
</mask>
<g mask="url(#mask3_43_352)">
<path d="M418.836 290C418.836 336.392 406.299 374 360.538 374C314.777 374 302.239 336.392 302.239 290C302.239 243.608 328.34 206 360.538 206C392.735 206 418.836 243.608 418.836 290Z" fill="#211E55"/>
</g>
<mask id="mask4_43_352" style="mask-type:alpha" maskUnits="userSpaceOnUse" x="302" y="206" width="117" height="168">
<path d="M418.836 290C418.836 336.392 406.299 374 360.538 374C314.777 374 302.239 336.392 302.239 290C302.239 243.608 328.34 206 360.538 206C392.735 206 418.836 243.608 418.836 290Z" fill="#231E08"/>
</mask>
<g mask="url(#mask4_43_352)">
<ellipse cx="360.538" cy="375.881" rx="73.3433" ry="58.2985" fill="#7F4E44"/>
</g>
<path d="M433.881 289.224C433.881 289.224 408.179 277.94 359.911 277.94C311.642 277.94 285.94 289.224 285.94 289.224" stroke="#211E55" stroke-width="19" stroke-linecap="round"/>
<path d="M522 104C463.5 67.118 342.867 46 256 46C169.133 46 48.5004 67.118 -10 104V-63H522V104Z" fill="#9EB3E8" stroke="#211E55" stroke-width="19" stroke-linejoin="round"/>
<mask id="mask5_43_352" style="mask-type:alpha" maskUnits="userSpaceOnUse" x="-20" y="55" width="552" height="97">
<path d="M256 55.5C298.753 55.5 349.989 60.7065 397.733 70.4766C445.686 80.2892 489.136 94.5107 516.934 112.036C519.861 113.881 523.559 113.99 526.589 112.318C529.619 110.647 531.5 107.46 531.5 104V142C531.5 145.46 529.619 148.647 526.589 150.318C523.559 151.99 519.861 151.881 516.934 150.036C489.136 132.511 445.686 118.289 397.733 108.477C349.989 98.7065 298.753 93.5 256 93.5C213.247 93.5 162.011 98.7065 114.267 108.477C66.3145 118.289 22.8643 132.511 -4.93359 150.036C-7.86051 151.881 -11.5592 151.99 -14.5889 150.318C-17.6185 148.647 -19.5 145.46 -19.5 142V104C-19.5 107.46 -17.6185 110.647 -14.5889 112.318C-11.5592 113.99 -7.86051 113.881 -4.93359 112.036C22.8643 94.5107 66.3145 80.2892 114.267 70.4766C162.011 60.7065 213.247 55.5 256 55.5Z" fill="#7F86A8"/>
</mask>
<g mask="url(#mask5_43_352)">
<rect x="-10" y="42" width="133" height="117" fill="#C0CBF6"/>
<rect x="123" y="42" width="133" height="117" fill="#666FA8" stroke="#211E55" stroke-width="19"/>
<rect x="256" y="42" width="133" height="117" fill="#C0CBF6" stroke="#211E55" stroke-width="19"/>
<rect x="389" y="42" width="133" height="117" fill="#666FA8" stroke="#211E55" stroke-width="19"/>
</g>
<path d="M522 142C463.5 105.118 342.867 84 256 84C169.133 84 48.5004 105.118 -10 142V-25H522V142Z" stroke="#211E55" stroke-width="19" stroke-linejoin="round"/>
<path d="M501.5 104L514.173 125.058L538.116 130.603L522.005 149.162L524.13 173.647L501.5 164.06L478.87 173.647L480.995 149.162L464.884 130.603L488.827 125.058L501.5 104Z" fill="#DDC9B0" stroke="#704525" stroke-width="19" stroke-linejoin="round"/>
<path d="M10.5 101L23.1726 122.058L47.1157 127.603L31.0048 146.162L33.1297 170.647L10.5 161.06L-12.1297 170.647L-10.0048 146.162L-26.1157 127.603L-2.17265 122.058L10.5 101Z" fill="#DDC9B0" stroke="#704525" stroke-width="19" stroke-linejoin="round"/>
<path d="M57.9939 133.023C67.0815 127.776 78.7017 130.89 83.9484 139.977L87.4484 146.039L94.3766 142.039C103.464 136.793 115.084 139.906 120.331 148.994C125.496 157.94 122.56 169.34 113.798 174.698L113.377 174.948L106.448 178.948L110.448 185.877C115.695 194.964 112.581 206.584 103.494 211.831C94.4063 217.078 82.7861 213.964 77.5394 204.877L73.5394 197.948L67.4772 201.448C58.3897 206.695 46.7695 203.581 41.5228 194.494C36.2761 185.406 39.3897 173.786 48.4772 168.539L54.5394 165.039L51.0394 158.977C45.7927 149.89 48.9063 138.269 57.9939 133.023Z" fill="#D9D9D9" stroke="#211E55" stroke-width="19"/>
</g>
<defs>
<clipPath id="clip0_43_352">
<rect width="512" height="512" fill="white"/>
</clipPath>
</defs>
</svg>
