<svg width="512" height="512" viewBox="0 0 512 512" fill="none" xmlns="http://www.w3.org/2000/svg">
<g clip-path="url(#clip0_190_2)">
<rect width="512" height="512" fill="#DED9C5"/>
<path d="M89.5008 425C49.5008 426.2 32.0009 408.5 35.5 368.5C23 366.5 7 353.5 4.5 344.5L252.5 196.5L512 344C508.5 353 498.5 360.5 482 363C484 386 471 416 431.5 419.5C425 455 388 467.5 352 453C333.499 478.5 282 482 256.5 462C239.5 481 182.001 483.5 156.501 451.5C130.001 467.5 94.5008 451.5 89.5008 425Z" fill="#3E2D23" stroke="#20190F" stroke-width="19" stroke-linecap="round" stroke-linejoin="round"/>
<path d="M258 435.5C333.5 435.5 393 449.5 393 482V496.5H123V482C123 449.5 182.5 435.5 258 435.5Z" fill="#8C2331" stroke="#5A0A1B" stroke-width="19" stroke-linejoin="round"/>
<path d="M209.5 474C216.3 460 218.667 425.833 219 410.5H293C293.333 425.833 295.7 460 302.5 474C296.833 485 266.8 509.4 256 519C245.2 509.4 215.167 485 209.5 474Z" fill="#DEAE98" stroke="#20190F" stroke-width="19" stroke-linejoin="round"/>
<path d="M256.001 519C245.201 509.4 215.167 485 209.501 474C180.001 485 143.001 481.5 125.501 481.5C108.001 481.5 67.5006 496.5 68.5006 517V550.5H443.501V517C444.501 496.5 404.001 481.5 386.501 481.5C369.001 481.5 332.001 485 302.501 474C296.834 485 266.801 509.4 256.001 519Z" fill="#323232" stroke="#090909" stroke-width="19" stroke-linejoin="round"/>
<path d="M443.5 517C444.5 496.5 403 478 362.5 478C350.5 503 346.5 525.5 350 553L443.5 553.5V517Z" fill="#B1343C"/>
<path d="M68.5001 517C67.5001 496.5 109 478 149.5 478C161.5 503 165.5 525.5 162 553L68.5001 553.5V517Z" fill="#B1343C"/>
<path d="M443.5 517C444.5 496.5 403 478 362.5 478C350.5 503 346.5 525.5 350 553L443.5 553.5V517Z" stroke="#5A0A1B" stroke-width="19" stroke-linejoin="round"/>
<path d="M68.5001 517C67.5001 496.5 109 478 149.5 478C161.5 503 165.5 525.5 162 553L68.5001 553.5V517Z" stroke="#5A0A1B" stroke-width="19" stroke-linejoin="round"/>
<path d="M256 33.5C375.924 33.5 474.5 123.218 474.5 235.5C474.5 289.796 462.91 340.702 428.827 378.024C394.597 415.507 339.339 437.5 256 437.5C172.661 437.5 117.403 415.507 83.1729 378.024C49.0898 340.702 37.5 289.796 37.5 235.5C37.5 123.218 136.076 33.5 256 33.5Z" fill="#DEAE98" stroke="#20190F" stroke-width="19"/>
<path d="M264 408C261.6 403.333 257.655 401.28 256 401C254.345 401.28 250.4 403.333 248 408" stroke="#20190F" stroke-width="19" stroke-linecap="round" stroke-linejoin="round"/>
<path fill-rule="evenodd" clip-rule="evenodd" d="M194.5 143.5C168 182 122.5 183.5 99.5 158C108 185.5 96 223.5 65 238C81 262 82 314.5 47.5 334C13 353.5 -20 344 -32 325L-32 154H-9.5C-16.5 131 5.50002 79 42 73C54 33 89 17.5 119.5 25C126.5 -3 158 -20 182 -14.5V-32H323.5V-14.5C347 -20 391.5 -9 399.5 24.5C431.5 16.5 468.5 42.5 466 70.5C506 73 531 111.5 523 156H544V341C544 341 503.5 353.5 473.5 336C443.5 318.5 423 281.5 438.5 238.5C410 230.5 390.5 196.5 397 161.5C363 183 321.5 173 303.5 138.5C280.5 179 220.5 179 194.5 143.5Z" fill="#654C2E"/>
<path d="M-32 154L-32 325L-32 544H99M405 544H544V341M544 341C544 341 503.5 353.5 473.5 336C443.5 318.5 423 281.5 438.5 238.5C410 230.5 390.5 196.5 397 161.5C363 183 321.5 173 303.5 138.5C280.5 179 220.5 179 194.5 143.5C168 182 122.5 183.5 99.5 158C108 185.5 96 223.5 65 238C81 262 82 314.5 47.5 334C13 353.5 -20 344 -32 325M544 341V156M182 -32H-32L-32 154M182 -32V-14.5C158 -20 126.5 -3 119.5 25C89 17.5 54 33 42 73C5.50002 79 -16.5 131 -9.5 154H-32M182 -32H323.5M323.5 -32H544V156M323.5 -32V-14.5C347 -20 391.5 -9 399.5 24.5C431.5 16.5 468.5 42.5 466 70.5C506 73 531 111.5 523 156H544" stroke="#20190F" stroke-width="19" stroke-linecap="round" stroke-linejoin="round"/>
<mask id="mask0_190_2" style="mask-type:alpha" maskUnits="userSpaceOnUse" x="78" y="269" width="148" height="105">
<path d="M225.94 281.224C225.94 281.224 200.239 269.94 151.97 269.94C103.701 269.94 78 281.224 78 281.224V374H225.94V281.224Z" fill="#D9D9D9"/>
</mask>
<g mask="url(#mask0_190_2)">
<path d="M210.896 290C210.896 336.392 198.359 374 152.597 374C106.836 374 94.2988 336.392 94.2988 290C94.2988 243.608 120.4 206 152.597 206C184.795 206 210.896 243.608 210.896 290Z" fill="#20190F"/>
</g>
<mask id="mask1_190_2" style="mask-type:alpha" maskUnits="userSpaceOnUse" x="94" y="206" width="117" height="168">
<path d="M210.896 290C210.896 336.392 198.359 374 152.597 374C106.836 374 94.2988 336.392 94.2988 290C94.2988 243.608 120.4 206 152.597 206C184.795 206 210.896 243.608 210.896 290Z" fill="#231E08"/>
</mask>
<g mask="url(#mask1_190_2)">
<ellipse cx="152.597" cy="375.881" rx="73.3433" ry="58.2985" fill="#654C2E"/>
</g>
<path d="M225.94 289.224C225.94 289.224 200.239 277.94 151.97 277.94C103.701 277.94 78 289.224 78 289.224" stroke="#20190F" stroke-width="19" stroke-linecap="round"/>
<mask id="mask2_190_2" style="mask-type:alpha" maskUnits="userSpaceOnUse" x="285" y="269" width="149" height="105">
<path d="M433.88 281.224C433.88 281.224 408.178 269.94 359.91 269.94C311.641 269.94 285.939 281.224 285.939 281.224V374H433.88V281.224Z" fill="#D9D9D9"/>
</mask>
<g mask="url(#mask2_190_2)">
<path d="M418.835 290C418.835 336.392 406.298 374 360.537 374C314.776 374 302.238 336.392 302.238 290C302.238 243.608 328.339 206 360.537 206C392.734 206 418.835 243.608 418.835 290Z" fill="#20190F"/>
</g>
<mask id="mask3_190_2" style="mask-type:alpha" maskUnits="userSpaceOnUse" x="302" y="206" width="117" height="168">
<path d="M418.835 290C418.835 336.392 406.298 374 360.537 374C314.776 374 302.238 336.392 302.238 290C302.238 243.608 328.339 206 360.537 206C392.734 206 418.835 243.608 418.835 290Z" fill="#231E08"/>
</mask>
<g mask="url(#mask3_190_2)">
<ellipse cx="360.537" cy="375.881" rx="73.3433" ry="58.2985" fill="#654C2E"/>
</g>
<path d="M433.88 289.224C433.88 289.224 408.178 277.94 359.91 277.94C311.641 277.94 285.939 289.224 285.939 289.224" stroke="#20190F" stroke-width="19" stroke-linecap="round"/>
<path d="M152 251.5C185.556 251.5 212.444 255.369 228.818 265.579C236.652 270.464 241.851 276.662 244.476 284.644C247.158 292.803 247.461 303.784 243.635 318.629C235.394 350.602 227.594 367.453 215.558 377.057C203.595 386.602 185.517 390.5 152 390.5C118.483 390.5 100.405 386.602 88.4424 377.057C76.4065 367.453 68.6058 350.602 60.3652 318.629C56.5393 303.784 56.8426 292.803 59.5254 284.644C62.1498 276.662 67.3488 270.464 75.1826 265.579C91.557 255.369 118.444 251.5 152 251.5Z" stroke="#8E655B" stroke-width="19"/>
<path d="M360 251.5C393.556 251.5 420.444 255.369 436.818 265.579C444.652 270.464 449.851 276.662 452.476 284.644C455.158 292.803 455.461 303.784 451.635 318.629C443.394 350.602 435.594 367.453 423.558 377.057C411.595 386.602 393.517 390.5 360 390.5C326.483 390.5 308.405 386.602 296.442 377.057C284.406 367.453 276.606 350.602 268.365 318.629C264.539 303.784 264.843 292.803 267.525 284.644C270.15 276.662 275.349 270.464 283.183 265.579C299.557 255.369 326.444 251.5 360 251.5Z" stroke="#8E655B" stroke-width="19"/>
</g>
<defs>
<clipPath id="clip0_190_2">
<rect width="512" height="512" fill="white"/>
</clipPath>
</defs>
</svg>
