<svg width="512" height="512" viewBox="0 0 512 512" fill="none" xmlns="http://www.w3.org/2000/svg">
<g clip-path="url(#clip0_86_40)">
<rect width="512" height="512" fill="#9D7463"/>
<path d="M209.5 474C216.3 460 218.667 425.833 219 410.5H293C293.333 425.833 295.7 460 302.5 474C296.833 485 266.8 509.4 256 519C245.2 509.4 215.167 485 209.5 474Z" fill="#EACFC3" stroke="#461F1B" stroke-width="19" stroke-linejoin="round"/>
<path d="M303.5 467C292.501 489 266.8 510.4 256 520C267.167 522.667 294.6 527.4 311 525C324.2 511.8 334.167 488.917 337.5 480.126C326.043 474.1 314.272 470.017 303.5 467Z" fill="#D9D9D9"/>
<path d="M208.5 467C219.5 489 245.2 510.4 256 520C244.833 522.667 217.4 527.4 201 525C187.8 511.8 177.833 488.917 174.5 480.126C185.957 474.1 197.729 470.017 208.5 467Z" fill="#D9D9D9"/>
<path d="M256 520C266.8 510.4 292.501 489 303.5 467C314.272 470.017 326.043 474.1 337.5 480.126C334.167 488.917 324.2 511.8 311 525C294.6 527.4 267.167 522.667 256 520ZM256 520C245.2 510.4 219.5 489 208.5 467C197.729 470.017 185.957 474.1 174.5 480.126C177.833 488.917 187.8 511.8 201 525C217.4 527.4 244.833 522.667 256 520Z" stroke="#524540" stroke-width="19" stroke-linejoin="round"/>
<path d="M381.421 490.129C425.542 493.186 427.048 499.761 430.499 518V550.5H369.998H256H142.002H142H81.501V518C84.9515 499.761 86.4581 493.186 130.578 490.129C129.654 486.044 129.099 482.284 128.999 479L177.5 466C180.666 480.667 204.598 522.3 226.998 539.5L154 545.5L142 550.5H142.002H256H369.998L357.998 545.5L285 539.5C307.4 522.3 331.332 480.667 334.499 466L382.999 479C382.9 482.284 382.344 486.044 381.421 490.129Z" fill="#82817F"/>
<path d="M379.499 490C425.499 493 426.999 499.5 430.499 518V550.5H369.998M357.998 545.5L285 539.5C307.4 522.3 331.332 480.667 334.499 466L382.999 479C382.5 495.5 370.499 524 357.998 545.5ZM357.998 545.5L369.998 550.5M369.998 550.5H256H142.002H81.501V518C85.001 499.5 86.5009 493 132.501 490M154 545.5L226.998 539.5C204.598 522.3 180.666 480.667 177.5 466L128.999 479C129.499 495.5 141.499 524 154 545.5ZM154 545.5L142 550.5" stroke="#2A2522" stroke-width="19" stroke-linejoin="round"/>
<path d="M256 33.5C375.924 33.5 474.5 123.218 474.5 235.5C474.5 289.796 462.91 340.702 428.827 378.024C394.597 415.507 339.339 437.5 256 437.5C172.661 437.5 117.403 415.507 83.1729 378.024C49.0898 340.702 37.5 289.796 37.5 235.5C37.5 123.218 136.076 33.5 256 33.5Z" fill="#EACFC3" stroke="#461F1B" stroke-width="19"/>
<path d="M264 408C261.6 403.333 257.655 401.28 256 401C254.345 401.28 250.4 403.333 248 408" stroke="#461F1B" stroke-width="19" stroke-linecap="round" stroke-linejoin="round"/>
<path d="M-32 -32V544H65V523.5C42 498 36 445 50.5 411.5V408.772C63.7324 420.084 78.2666 427.655 87 431C69.3256 395.402 50.0531 329.344 54.174 262.5H59C108 255 149 231.5 169.5 213H170.644C171.617 229.714 175.877 245.648 185 258C185 246 192.5 229 200 221C193 277.5 251.5 273.5 228 323.5C279.02 310.146 317.058 250.49 323.5 196H325.739C357.308 239.369 416.077 263.586 458.287 273.102C459.911 336.251 441.739 397.286 425 431C433.733 427.655 448.268 420.084 461.5 408.772V411.5C476 445 470 498 447 523.5V544H544V-32H-32Z" fill="#9D7463"/>
<path d="M189 130C172.5 158.5 159 222.8 185 258C185 246 192.5 229 200 221C193 277.5 251.5 273.5 228 323.5C279.02 310.146 317.058 250.49 323.5 196M99 544H-32L-32 -32H544V544H405M487 375C475 405.4 440.667 425 425 431C452.338 375.938 483.5 248 426 157M305 147C317 222 402.451 260.564 458.5 273.15M25 375C37 405.4 71.3333 425 87 431C59.6618 375.938 28.5 248 86 157M169.5 213C149 231.5 108 255 59 262.5M461.5 411.5C476 445 470 498 447 523.5M50.5 411.5C36 445 42 498 65 523.5" stroke="#461F1B" stroke-width="19" stroke-linecap="round" stroke-linejoin="round"/>
<mask id="mask0_86_40" style="mask-type:alpha" maskUnits="userSpaceOnUse" x="78" y="269" width="148" height="105">
<path d="M225.94 281.224C225.94 281.224 200.239 269.94 151.97 269.94C103.701 269.94 78 281.224 78 281.224V374H225.94V281.224Z" fill="#D9D9D9"/>
</mask>
<g mask="url(#mask0_86_40)">
<path d="M210.896 290C210.896 336.392 198.359 374 152.597 374C106.836 374 94.2988 336.392 94.2988 290C94.2988 243.608 120.4 206 152.597 206C184.795 206 210.896 243.608 210.896 290Z" fill="#461F1B"/>
</g>
<mask id="mask1_86_40" style="mask-type:alpha" maskUnits="userSpaceOnUse" x="94" y="206" width="117" height="168">
<path d="M210.896 290C210.896 336.392 198.359 374 152.597 374C106.836 374 94.2988 336.392 94.2988 290C94.2988 243.608 120.4 206 152.597 206C184.795 206 210.896 243.608 210.896 290Z" fill="#231E08"/>
</mask>
<g mask="url(#mask1_86_40)">
<ellipse cx="152.597" cy="375.881" rx="73.3433" ry="58.2985" fill="#973E3E"/>
</g>
<path d="M225.94 289.224C225.94 289.224 200.239 277.94 151.97 277.94C103.701 277.94 78 289.224 78 289.224" stroke="#461F1B" stroke-width="19" stroke-linecap="round"/>
<mask id="mask2_86_40" style="mask-type:alpha" maskUnits="userSpaceOnUse" x="285" y="269" width="149" height="105">
<path d="M433.881 281.224C433.881 281.224 408.179 269.94 359.911 269.94C311.642 269.94 285.94 281.224 285.94 281.224V374H433.881V281.224Z" fill="#D9D9D9"/>
</mask>
<g mask="url(#mask2_86_40)">
<path d="M418.836 290C418.836 336.392 406.299 374 360.538 374C314.777 374 302.239 336.392 302.239 290C302.239 243.608 328.34 206 360.538 206C392.735 206 418.836 243.608 418.836 290Z" fill="#461F1B"/>
</g>
<mask id="mask3_86_40" style="mask-type:alpha" maskUnits="userSpaceOnUse" x="302" y="206" width="117" height="168">
<path d="M418.836 290C418.836 336.392 406.299 374 360.538 374C314.777 374 302.239 336.392 302.239 290C302.239 243.608 328.34 206 360.538 206C392.735 206 418.836 243.608 418.836 290Z" fill="#231E08"/>
</mask>
<g mask="url(#mask3_86_40)">
<ellipse cx="360.538" cy="375.881" rx="73.3433" ry="58.2985" fill="#973E3E"/>
</g>
<path d="M433.881 289.224C433.881 289.224 408.179 277.94 359.911 277.94C311.642 277.94 285.94 289.224 285.94 289.224" stroke="#461F1B" stroke-width="19" stroke-linecap="round"/>
<path d="M77 107C128.835 84.2509 192.604 74.8 256 74.8C319.396 74.8 383.165 84.2509 435 107V70.2C383.165 47.4509 319.396 38 256 38C192.604 38 128.835 47.4509 77 70.2V107Z" fill="#4E4742" stroke="#292320" stroke-width="19" stroke-linejoin="round"/>
</g>
<defs>
<clipPath id="clip0_86_40">
<rect width="512" height="512" fill="white"/>
</clipPath>
</defs>
</svg>
