<svg width="512" height="512" viewBox="0 0 512 512" fill="none" xmlns="http://www.w3.org/2000/svg">
<g clip-path="url(#clip0_172_73)">
<rect width="512" height="512" fill="#2A292E"/>
<path d="M302.501 474C332.001 485 369.001 481.5 386.501 481.5C404.001 481.5 444.501 496.5 443.501 517V550.5H68.5006V517C67.5006 496.5 108.001 481.5 125.501 481.5C143.001 481.5 180.001 485 209.501 474C216.301 460 218.667 425.833 219 410.5H293C293.333 425.833 295.701 460 302.501 474Z" fill="#B97A56" stroke="#100D18" stroke-width="19" stroke-linejoin="round"/>
<path d="M443.501 517C444.501 496.5 404.001 481.5 386.501 481.5C377.654 481.5 363.825 482.394 348.5 481.858C341.167 497.239 312.4 528 256 528C199.6 528 170.834 497.239 163.501 481.858C148.176 482.394 134.347 481.5 125.501 481.5C108.001 481.5 67.5006 496.5 68.5006 517V550.5L256 550.5L443.501 550.5V517Z" fill="#3C3C48" stroke="#100D18" stroke-width="19" stroke-linejoin="round"/>
<path d="M256 33.5C375.924 33.5 474.5 123.218 474.5 235.5C474.5 289.796 462.91 340.702 428.827 378.024C394.597 415.507 339.339 437.5 256 437.5C172.661 437.5 117.403 415.507 83.1729 378.024C49.0898 340.702 37.5 289.796 37.5 235.5C37.5 123.218 136.076 33.5 256 33.5Z" fill="#B97A56" stroke="#100D18" stroke-width="19"/>
<path d="M264 408C261.6 403.333 257.655 401.28 256 401C254.345 401.28 250.4 403.333 248 408" stroke="#100D18" stroke-width="19" stroke-linecap="round" stroke-linejoin="round"/>
<path d="M544 -32H-32V442H75.5C34.5 275 139 157 218 128H294C373 157 477.5 275 436.5 442H544V-32Z" fill="#2A292E"/>
<path d="M-32 544L-32 -32H544V544M294 128C373 157 477.5 275 436.5 442M218 128C139 157 34.5 275 75.5 442" stroke="#100D18" stroke-width="19" stroke-linecap="round" stroke-linejoin="round"/>
<mask id="mask0_172_73" style="mask-type:alpha" maskUnits="userSpaceOnUse" x="78" y="269" width="148" height="105">
<path d="M225.94 281.224C225.94 281.224 200.239 269.94 151.97 269.94C103.701 269.94 78 281.224 78 281.224V374H225.94V281.224Z" fill="#D9D9D9"/>
</mask>
<g mask="url(#mask0_172_73)">
<path d="M210.896 290C210.896 336.392 198.359 374 152.597 374C106.836 374 94.2988 336.392 94.2988 290C94.2988 243.608 120.4 206 152.597 206C184.795 206 210.896 243.608 210.896 290Z" fill="#100D18"/>
</g>
<mask id="mask1_172_73" style="mask-type:alpha" maskUnits="userSpaceOnUse" x="94" y="206" width="117" height="168">
<path d="M210.896 290C210.896 336.392 198.359 374 152.597 374C106.836 374 94.2988 336.392 94.2988 290C94.2988 243.608 120.4 206 152.597 206C184.795 206 210.896 243.608 210.896 290Z" fill="#231E08"/>
</mask>
<g mask="url(#mask1_172_73)">
<ellipse cx="152.597" cy="375.881" rx="73.3433" ry="58.2985" fill="#731C16"/>
</g>
<path d="M225.94 289.224C225.94 289.224 200.239 277.94 151.97 277.94C103.701 277.94 78 289.224 78 289.224" stroke="#100D18" stroke-width="19" stroke-linecap="round"/>
<mask id="mask2_172_73" style="mask-type:alpha" maskUnits="userSpaceOnUse" x="285" y="269" width="149" height="105">
<path d="M433.88 281.224C433.88 281.224 408.178 269.94 359.91 269.94C311.641 269.94 285.939 281.224 285.939 281.224V374H433.88V281.224Z" fill="#D9D9D9"/>
</mask>
<g mask="url(#mask2_172_73)">
<path d="M418.835 290C418.835 336.392 406.298 374 360.537 374C314.776 374 302.238 336.392 302.238 290C302.238 243.608 328.339 206 360.537 206C392.734 206 418.835 243.608 418.835 290Z" fill="#100D18"/>
</g>
<mask id="mask3_172_73" style="mask-type:alpha" maskUnits="userSpaceOnUse" x="302" y="206" width="117" height="168">
<path d="M418.835 290C418.835 336.392 406.298 374 360.537 374C314.776 374 302.238 336.392 302.238 290C302.238 243.608 328.339 206 360.537 206C392.734 206 418.835 243.608 418.835 290Z" fill="#231E08"/>
</mask>
<g mask="url(#mask3_172_73)">
<ellipse cx="360.537" cy="375.881" rx="73.3433" ry="58.2985" fill="#731C16"/>
</g>
<path d="M433.88 289.224C433.88 289.224 408.178 277.94 359.91 277.94C311.641 277.94 285.939 289.224 285.939 289.224" stroke="#100D18" stroke-width="19" stroke-linecap="round"/>
<mask id="path-17-outside-1_172_73" maskUnits="userSpaceOnUse" x="210.066" y="160" width="91" height="104" fill="black">
<rect fill="white" x="210.066" y="160" width="91" height="104"/>
<path d="M262.066 179C269.152 179 275.716 181.233 281.093 185.034C267.083 185.749 255.939 197.548 255.939 212C255.939 226.452 267.083 238.25 281.093 238.965C275.716 242.766 269.152 245 262.066 245C243.841 245 229.066 230.225 229.066 212C229.066 193.775 243.841 179 262.066 179Z"/>
</mask>
<path d="M262.066 179C269.152 179 275.716 181.233 281.093 185.034C267.083 185.749 255.939 197.548 255.939 212C255.939 226.452 267.083 238.25 281.093 238.965C275.716 242.766 269.152 245 262.066 245C243.841 245 229.066 230.225 229.066 212C229.066 193.775 243.841 179 262.066 179Z" fill="#3C3C48"/>
<path d="M281.093 185.034L282.06 204.01C290.149 203.597 297.086 198.103 299.341 190.325C301.596 182.546 298.673 174.194 292.06 169.519L281.093 185.034ZM255.939 212H236.939V212H255.939ZM281.093 238.965L292.06 254.48C298.673 249.805 301.596 241.452 299.341 233.674C297.086 225.896 290.149 220.402 282.061 219.99L281.093 238.965ZM262.066 179V198C265.096 198 267.851 198.941 270.126 200.549L281.093 185.034L292.06 169.519C283.581 163.526 273.207 160 262.066 160V179ZM281.093 185.034L280.125 166.059C255.754 167.302 236.939 187.691 236.939 212H255.939H274.939C274.939 207.406 278.412 204.196 282.06 204.01L281.093 185.034ZM255.939 212H236.939C236.939 236.31 255.755 256.697 280.125 257.94L281.093 238.965L282.061 219.99C278.411 219.803 274.939 216.593 274.939 212H255.939ZM281.093 238.965L270.125 223.45C267.849 225.059 265.095 226 262.066 226V245V264C273.209 264 283.582 260.473 292.06 254.48L281.093 238.965ZM262.066 245V226C254.334 226 248.066 219.732 248.066 212H229.066H210.066C210.066 240.719 233.348 264 262.066 264V245ZM229.066 212H248.066C248.066 204.268 254.334 198 262.066 198V179V160C233.348 160 210.066 183.281 210.066 212H229.066Z" fill="#100D18" mask="url(#path-17-outside-1_172_73)"/>
<path d="M-16 -22V202C193.5 202 310.5 117 528 153.5V-22H-16Z" fill="#3C3C48" stroke="#100D18" stroke-width="19" stroke-linecap="round"/>
<path d="M76.5 57.5C107.5 -130 200.655 -142.97 251.149 -156C303.791 -146.979 390.811 -126.432 408 31.4319" stroke="#100D18" stroke-width="19" stroke-linecap="round"/>
</g>
<defs>
<clipPath id="clip0_172_73">
<rect width="512" height="512" fill="white"/>
</clipPath>
</defs>
</svg>
