<svg width="512" height="512" viewBox="0 0 512 512" fill="none" xmlns="http://www.w3.org/2000/svg">
<g clip-path="url(#clip0_142_6)">
<rect width="512" height="512" fill="#A75A32"/>
<path d="M386.5 465.5C369 465.5 332 469 302.5 458H209.5C180 469 143 465.5 125.5 465.5C108 465.5 73.5 492.5 68.5 513V546.5H443.5V513C438.5 492.5 404 465.5 386.5 465.5Z" fill="#525C38" stroke="#0E0D1D" stroke-width="19" stroke-linejoin="round"/>
<path d="M256 430C303.251 430 371.579 420.2 409.999 395C409.499 419.5 400.499 444.5 388.498 462C371.166 487.275 303.251 494 256 494C208.749 494 140.831 487.275 123.498 462C111.498 444.5 102.498 419.5 101.998 395C140.418 420.2 208.749 430 256 430Z" fill="#981C19" stroke="#400F09" stroke-width="19" stroke-linecap="round" stroke-linejoin="round"/>
<path d="M256 33.5C375.924 33.5 474.5 123.218 474.5 235.5C474.5 289.796 462.91 340.702 428.827 378.024C394.597 415.507 339.339 437.5 256 437.5C172.661 437.5 117.403 415.507 83.1729 378.024C49.0898 340.702 37.5 289.796 37.5 235.5C37.5 123.218 136.076 33.5 256 33.5Z" fill="#DC477B" stroke="#400F09" stroke-width="19"/>
<path fill-rule="evenodd" clip-rule="evenodd" d="M61.834 325.482C112.288 358.016 180.683 378 256.001 378C331.317 378 399.712 358.017 450.165 325.484C426.143 386.46 369.509 428 256 428C142.49 428 85.8554 386.459 61.834 325.482Z" fill="#F1B4C2"/>
<path d="M264 408C261.6 403.333 257.655 401.28 256 401C254.345 401.28 250.4 403.333 248 408" stroke="#400F09" stroke-width="19" stroke-linecap="round" stroke-linejoin="round"/>
<path d="M445 414.5C478 311 440 174 397 124.5H256H115C72 174 34 311 67 414.5C23 415.163 -17.5 366 -27 354V-45H256H539V354C529.5 366 489 415.163 445 414.5Z" fill="#244D3C"/>
<path d="M115 124.5C72 174 34 311 67 414.5C23 415.163 -17.5 366 -27 354V-45H256H539V354C529.5 366 489 415.163 445 414.5C478 311 440 174 397 124.5M-27 354C-11.5 303.871 25.8 157.975 115 124.5H256H397C486.2 157.975 523.5 303.871 539 354" stroke="#09141A" stroke-width="19" stroke-linecap="round" stroke-linejoin="round"/>
<path d="M466.5 365C453.818 378.5 423.5 384.5 408 367.5C451.843 334.898 423.5 278.5 397.5 239.5C354.944 239 316.5 216.5 303.5 187C306.946 165.193 370.964 143.843 392.999 141C420.757 137.418 464.642 138.5 464 224.5C470.047 239.5 487.4 279 505 269C509.8 298.6 486.5 302 481 302.5C485.399 336.799 477.618 353.165 466.5 365Z" fill="#DB9150" stroke="#400F09" stroke-width="19" stroke-linecap="round" stroke-linejoin="round"/>
<path d="M46.9993 121C48.9993 172.5 98.9993 160 137.999 144.5L221.999 142.5L276.499 183.5L195.999 213C187.968 223.493 133.499 249.5 93.9992 247C82.9992 257.5 73.9989 275 69.9992 305.5C66.9373 328.848 75.0007 352.5 99.0007 366.5C72.0007 392.5 40.5007 378 31.0007 365C18.6737 348.132 14.5002 324.5 24.5002 296.5C12.5017 292.5 6.00016 283 10.4998 266.5C26 270 40.0009 249 39.4989 234.5C6.9989 213.241 -3.50024 165.5 46.9993 121Z" fill="#DB9150" stroke="#400F09" stroke-width="19" stroke-linecap="round" stroke-linejoin="round"/>
<path d="M158.5 201C194 289 336.5 256 348 164.5V126H184.5V189.5C178.5 195 166.5 200.5 158.5 201Z" fill="#DB9150"/>
<path d="M348 164.5C336.5 256 194 289 158.5 201C166.5 200.5 178.5 195 184.5 189.5" stroke="#400F09" stroke-width="19" stroke-linecap="round" stroke-linejoin="round"/>
<mask id="mask0_142_6" style="mask-type:alpha" maskUnits="userSpaceOnUse" x="78" y="269" width="148" height="105">
<path d="M225.94 281.224C225.94 281.224 200.239 269.94 151.97 269.94C103.701 269.94 78 281.224 78 281.224V374H225.94V281.224Z" fill="#D9D9D9"/>
</mask>
<g mask="url(#mask0_142_6)">
<path d="M210.896 290C210.896 336.392 198.359 374 152.597 374C106.836 374 94.2988 336.392 94.2988 290C94.2988 243.608 120.4 206 152.597 206C184.795 206 210.896 243.608 210.896 290Z" fill="#400F09"/>
</g>
<mask id="mask1_142_6" style="mask-type:alpha" maskUnits="userSpaceOnUse" x="94" y="206" width="117" height="168">
<path d="M210.896 290C210.896 336.392 198.359 374 152.597 374C106.836 374 94.2988 336.392 94.2988 290C94.2988 243.608 120.4 206 152.597 206C184.795 206 210.896 243.608 210.896 290Z" fill="#231E08"/>
</mask>
<g mask="url(#mask1_142_6)">
<ellipse cx="152.597" cy="375.881" rx="73.3433" ry="58.2985" fill="#841F27"/>
</g>
<path d="M225.94 289.224C225.94 289.224 200.239 277.94 151.97 277.94C103.701 277.94 78 289.224 78 289.224" stroke="#400F09" stroke-width="19" stroke-linecap="round"/>
<mask id="mask2_142_6" style="mask-type:alpha" maskUnits="userSpaceOnUse" x="285" y="269" width="149" height="105">
<path d="M433.88 281.224C433.88 281.224 408.178 269.94 359.91 269.94C311.641 269.94 285.939 281.224 285.939 281.224V374H433.88V281.224Z" fill="#D9D9D9"/>
</mask>
<g mask="url(#mask2_142_6)">
<path d="M418.835 290C418.835 336.392 406.298 374 360.537 374C314.776 374 302.238 336.392 302.238 290C302.238 243.608 328.339 206 360.537 206C392.734 206 418.835 243.608 418.835 290Z" fill="#400F09"/>
</g>
<mask id="mask3_142_6" style="mask-type:alpha" maskUnits="userSpaceOnUse" x="302" y="206" width="117" height="168">
<path d="M418.835 290C418.835 336.392 406.298 374 360.537 374C314.776 374 302.238 336.392 302.238 290C302.238 243.608 328.339 206 360.537 206C392.734 206 418.835 243.608 418.835 290Z" fill="#231E08"/>
</mask>
<g mask="url(#mask3_142_6)">
<ellipse cx="360.537" cy="375.881" rx="73.3433" ry="58.2985" fill="#841F27"/>
</g>
<path d="M433.88 289.224C433.88 289.224 408.178 277.94 359.91 277.94C311.641 277.94 285.939 289.224 285.939 289.224" stroke="#400F09" stroke-width="19" stroke-linecap="round"/>
<path d="M335 70C391.885 70 438 91.2665 438 117.5C438 143.734 391.885 165 335 165C303.271 165 274.894 158.383 256 147.979C237.106 158.383 208.729 165 177 165C120.115 165 74 143.734 74 117.5C74 91.2665 120.115 70 177 70C208.728 70 237.106 76.616 256 87.0195C274.894 76.616 303.272 70 335 70Z" fill="#5C5847"/>
<path d="M256 147.979L260.582 139.658L256 137.135L251.418 139.658L256 147.979ZM256 87.0195L251.418 95.3414L256 97.8645L260.582 95.3414L256 87.0195ZM335 70V79.5C362.389 79.5 386.723 84.6391 403.854 92.5393C421.794 100.813 428.5 110.326 428.5 117.5H438H447.5C447.5 98.44 431.148 84.2036 411.81 75.2856C391.663 65.9942 364.497 60.5 335 60.5V70ZM438 117.5H428.5C428.5 124.674 421.794 134.187 403.854 142.461C386.723 150.361 362.389 155.5 335 155.5V165V174.5C364.497 174.5 391.663 169.006 411.81 159.714C431.148 150.796 447.5 136.56 447.5 117.5H438ZM335 165V155.5C304.385 155.5 277.699 149.083 260.582 139.658L256 147.979L251.418 156.301C272.089 167.684 302.158 174.5 335 174.5V165ZM256 147.979L251.418 139.658C234.301 149.083 207.615 155.5 177 155.5V165V174.5C209.842 174.5 239.911 167.684 260.582 156.301L256 147.979ZM177 165V155.5C149.611 155.5 125.277 150.361 108.146 142.461C90.2058 134.187 83.5 124.674 83.5 117.5H74H64.5C64.5 136.56 80.8515 150.796 100.19 159.714C120.337 169.006 147.503 174.5 177 174.5V165ZM74 117.5H83.5C83.5 110.326 90.2058 100.813 108.146 92.5393C125.277 84.6391 149.611 79.5 177 79.5V70V60.5C147.503 60.5 120.337 65.9942 100.19 75.2856C80.8515 84.2036 64.5 98.44 64.5 117.5H74ZM177 70V79.5C207.615 79.5 234.301 85.9164 251.418 95.3414L256 87.0195L260.582 78.6977C239.911 67.3155 209.842 60.5 177 60.5V70ZM256 87.0195L260.582 95.3414C277.699 85.9164 304.385 79.5 335 79.5V70V60.5C302.158 60.5 272.089 67.3155 251.418 78.6977L256 87.0195Z" fill="#231F18"/>
<ellipse cx="335" cy="117.5" rx="42" ry="15.5" fill="#825D43" stroke="#411E0E" stroke-width="19"/>
<ellipse cx="177" cy="117.5" rx="42" ry="15.5" fill="#825D43" stroke="#411E0E" stroke-width="19"/>
</g>
<defs>
<clipPath id="clip0_142_6">
<rect width="512" height="512" fill="white"/>
</clipPath>
</defs>
</svg>
