<svg width="512" height="512" viewBox="0 0 512 512" fill="none" xmlns="http://www.w3.org/2000/svg">
<g clip-path="url(#clip0_36_55)">
<rect width="512" height="512" fill="#44493C"/>
<path d="M148.714 463.388C148.714 463.388 198 445 256 445C314 445 363.286 463.388 363.286 463.388C364.841 475.488 364.872 519.281 352.558 534H256H159.442C147.128 519.281 147.159 475.488 148.714 463.388Z" fill="#5B6566" stroke="#25302E" stroke-width="19" stroke-linejoin="round"/>
<path d="M207.5 481C214.3 467 218.667 424.833 219 409.5H293C293.333 424.833 297.7 467 304.5 481V535H207.5V481Z" fill="#EDDBCF" stroke="#202419" stroke-width="19" stroke-linejoin="round"/>
<path d="M363.001 463C364.668 475.167 364.701 519.2 351.501 534H262.482C260.719 536.95 258.617 539.675 256.001 542C253.385 539.675 251.283 536.95 249.519 534H160.5C147.3 519.2 147.334 475.167 149 463C177 462.2 221.001 490.667 237.501 505C241.795 513.335 244.002 524.772 249.519 534H262.482C267.999 524.772 270.207 513.335 274.501 505C291.001 490.667 335.001 462.2 363.001 463Z" fill="#CFD7D4" stroke="#25302E" stroke-width="19" stroke-linejoin="round"/>
<path d="M436.001 530L327.002 530C331.002 501.5 355.002 463 367.002 448.5C387.502 451 409.002 460 421.002 470L414.502 495.5L436.001 530Z" fill="#7E8F5E"/>
<path d="M76.0016 530L185.001 530C181.001 501.5 157.001 463 145.001 448.5C124.501 451 103.001 460 91.001 470L97.501 495.5L76.0016 530Z" fill="#7E8F5E"/>
<path d="M436.001 530L327.002 530C331.002 501.5 355.002 463 367.002 448.5C387.502 451 409.002 460 421.002 470L414.502 495.5L436.001 530Z" stroke="#2B3C2B" stroke-width="19" stroke-linejoin="round"/>
<path d="M76.0016 530L185.001 530C181.001 501.5 157.001 463 145.001 448.5C124.501 451 103.001 460 91.001 470L97.501 495.5L76.0016 530Z" stroke="#2B3C2B" stroke-width="19" stroke-linejoin="round"/>
<path d="M256 33.5C375.924 33.5 474.5 123.218 474.5 235.5C474.5 289.796 462.91 340.702 428.827 378.024C394.597 415.507 339.339 437.5 256 437.5C172.661 437.5 117.403 415.507 83.1729 378.024C49.0898 340.702 37.5 289.796 37.5 235.5C37.5 123.218 136.076 33.5 256 33.5Z" fill="#EDDBCF" stroke="#202419" stroke-width="19"/>
<path d="M264 408C261.6 403.333 257.655 401.28 256 401C254.345 401.28 250.4 403.333 248 408" stroke="#202419" stroke-width="19" stroke-linecap="round" stroke-linejoin="round"/>
<path d="M-32 -32V544H108.5C85.0932 502.665 54.2457 425.118 52.0251 366.697C67.2227 375.197 87.1018 381.5 111.5 381.5C78.093 353.661 65.6394 294.048 68.301 239H125.5H207H256H305C312.833 232.05 333 203.255 323 169C333.5 183.025 342.2 221.426 337 239H443.699C446.361 294.048 433.907 353.661 400.5 381.5C424.898 381.5 444.777 375.197 459.975 366.697C457.754 425.118 426.907 502.665 403.5 544H544V-32H-32Z" fill="#44493C"/>
<path d="M207 239H256H305C312.833 232.05 333 203.255 323 169C333.5 183.025 342.2 221.426 337 239H443.699M207 239C197.5 227 193 179 210 149.5M207 239H125.5M494.5 333C486.833 350.167 454.9 381.5 400.5 381.5C433.907 353.661 446.361 294.048 443.699 239C441.819 200.123 432.401 163.523 417.5 142M460 366C458 424.5 427 502.5 403.5 544H544V-32H-32L-32 544H108.5C85.0932 502.665 54.2457 425.118 52.0251 366.697M125.5 239C118 230.5 120 210 123.5 202M125.5 239H68.301M94.5 142C79.5991 163.523 70.1807 200.123 68.301 239M52 366C52.0079 366.232 52.0163 366.464 52.0251 366.697M52.0251 366.697C33.3372 356.244 21.7282 342.467 17.5 333M52.0251 366.697C67.2227 375.197 87.1018 381.5 111.5 381.5C78.093 353.661 65.6394 294.048 68.301 239" stroke="#202419" stroke-width="19" stroke-linecap="round" stroke-linejoin="round"/>
<mask id="mask0_36_55" style="mask-type:alpha" maskUnits="userSpaceOnUse" x="78" y="269" width="148" height="105">
<path d="M225.94 281.224C225.94 281.224 200.239 269.94 151.97 269.94C103.701 269.94 78 281.224 78 281.224V374H225.94V281.224Z" fill="#D9D9D9"/>
</mask>
<g mask="url(#mask0_36_55)">
<path d="M210.896 290C210.896 336.392 198.359 374 152.597 374C106.836 374 94.2988 336.392 94.2988 290C94.2988 243.608 120.4 206 152.597 206C184.795 206 210.896 243.608 210.896 290Z" fill="#202419"/>
</g>
<mask id="mask1_36_55" style="mask-type:alpha" maskUnits="userSpaceOnUse" x="94" y="206" width="117" height="168">
<path d="M210.896 290C210.896 336.392 198.359 374 152.597 374C106.836 374 94.2988 336.392 94.2988 290C94.2988 243.608 120.4 206 152.597 206C184.795 206 210.896 243.608 210.896 290Z" fill="#231E08"/>
</mask>
<g mask="url(#mask1_36_55)">
<ellipse cx="152.597" cy="375.881" rx="73.3433" ry="58.2985" fill="#3C5B3F"/>
</g>
<path d="M225.94 289.224C225.94 289.224 200.239 277.94 151.97 277.94C103.701 277.94 78 289.224 78 289.224" stroke="#202419" stroke-width="19" stroke-linecap="round"/>
<mask id="mask2_36_55" style="mask-type:alpha" maskUnits="userSpaceOnUse" x="285" y="269" width="149" height="105">
<path d="M433.881 281.224C433.881 281.224 408.179 269.94 359.911 269.94C311.642 269.94 285.94 281.224 285.94 281.224V374H433.881V281.224Z" fill="#D9D9D9"/>
</mask>
<g mask="url(#mask2_36_55)">
<path d="M418.836 290C418.836 336.392 406.299 374 360.538 374C314.777 374 302.239 336.392 302.239 290C302.239 243.608 328.34 206 360.538 206C392.735 206 418.836 243.608 418.836 290Z" fill="#202419"/>
</g>
<mask id="mask3_36_55" style="mask-type:alpha" maskUnits="userSpaceOnUse" x="302" y="206" width="117" height="168">
<path d="M418.836 290C418.836 336.392 406.299 374 360.538 374C314.777 374 302.239 336.392 302.239 290C302.239 243.608 328.34 206 360.538 206C392.735 206 418.836 243.608 418.836 290Z" fill="#231E08"/>
</mask>
<g mask="url(#mask3_36_55)">
<ellipse cx="360.538" cy="375.881" rx="73.3433" ry="58.2985" fill="#3C5B3F"/>
</g>
<path d="M433.881 289.224C433.881 289.224 408.179 277.94 359.911 277.94C311.642 277.94 285.94 289.224 285.94 289.224" stroke="#202419" stroke-width="19" stroke-linecap="round"/>
<path d="M450 60C457.6 75.2 477.167 86.6667 486 90.5" stroke="#202419" stroke-width="19" stroke-linecap="round" stroke-linejoin="round"/>
<path d="M62 60C54.4 75.2 34.8333 86.6667 26 90.5" stroke="#202419" stroke-width="19" stroke-linecap="round" stroke-linejoin="round"/>
<path d="M498 244C505.6 259.2 525.167 270.667 534 274.5" stroke="#202419" stroke-width="19" stroke-linecap="round" stroke-linejoin="round"/>
<path d="M14 244C6.4 259.2 -13.1667 270.667 -22 274.5" stroke="#202419" stroke-width="19" stroke-linecap="round" stroke-linejoin="round"/>
</g>
<defs>
<clipPath id="clip0_36_55">
<rect width="512" height="512" fill="white"/>
</clipPath>
</defs>
</svg>
