<svg width="512" height="512" viewBox="0 0 512 512" fill="none" xmlns="http://www.w3.org/2000/svg">
<g clip-path="url(#clip0_67_123)">
<rect width="512" height="512" fill="#694138"/>
<path d="M209.5 474C216.3 460 218.667 425.833 219 410.5H293C293.333 425.833 295.7 460 302.5 474C296.833 485 266.8 509.4 256 519C245.2 509.4 215.167 485 209.5 474Z" fill="#F8AC8C" stroke="#29191C" stroke-width="19" stroke-linejoin="round"/>
<path d="M305.5 474C335 485 369 481.5 386.5 481.5C404 481.5 444.5 496.5 443.5 517V550.5H68.4996V517C67.4996 496.5 108 481.5 125.5 481.5C143 481.5 177 485 206.5 474L207 460.5C207 460.5 235.5 464.5 256 464.5C276.5 464.5 305 460.5 305 460.5L305.5 474Z" fill="#AB8C84" stroke="#3A1B21" stroke-width="19" stroke-linejoin="round"/>
<path d="M256 33.5C375.924 33.5 474.5 123.218 474.5 235.5C474.5 289.796 462.91 340.702 428.827 378.024C394.597 415.507 339.339 437.5 256 437.5C172.661 437.5 117.403 415.507 83.1729 378.024C49.0898 340.702 37.5 289.796 37.5 235.5C37.5 123.218 136.076 33.5 256 33.5Z" fill="#F8AC8C" stroke="#29191C" stroke-width="19"/>
<path d="M264 408C261.6 403.333 257.655 401.28 256 401C254.345 401.28 250.4 403.333 248 408" stroke="#29191C" stroke-width="19" stroke-linecap="round" stroke-linejoin="round"/>
<path d="M-32 544H137C118 520 100.5 456.5 115.5 408.5L80.5 425.866C56.0343 356.674 47.3512 294.422 55.7915 238.239V237.908H116.5C132.5 232.54 152.5 215.54 161 192.277C171.5 202.5 175 221.5 163 237.908H248.5C273.178 229.362 286.692 189.649 285.517 162C303.731 183.616 304.906 218.805 291.392 237.908H456.224V238.5C464.638 294.683 455.951 356.85 431.5 426L396.5 408.5C411.5 456.5 394 520 375 544H544V-32H-32V544Z" fill="#694138"/>
<path d="M70 544H-32L-32 -32H544V544H405M460 128.381C481 154.43 488.5 213.042 470.5 237.908H394.5M482 351C481.667 367.167 471.1 404.8 431.5 426C455.951 356.85 464.638 294.683 456.224 238.5M394.5 237.908H291.392C304.906 218.805 303.731 183.616 285.517 162C286.692 189.649 273.178 229.362 248.5 237.908H163C175 221.5 171.5 202.5 161 192.277C152.5 215.54 132.5 232.54 116.5 237.908H31.5C62.5 213.5 54 134.5 115 119.5M394.5 237.908C404.5 229.309 407 208.57 402.412 192.383M396.5 408.5C411.5 456.5 394 520 375 544M115.5 408.5C100.5 456.5 118 520 137 544M30 350.866C30.3333 367.033 40.9 404.666 80.5 425.866C56.0343 356.674 47.3512 294.422 55.7915 238.239" stroke="#29191C" stroke-width="19" stroke-linecap="round" stroke-linejoin="round"/>
<mask id="mask0_67_123" style="mask-type:alpha" maskUnits="userSpaceOnUse" x="78" y="269" width="148" height="105">
<path d="M225.94 281.224C225.94 281.224 200.239 269.94 151.97 269.94C103.701 269.94 78 281.224 78 281.224V374H225.94V281.224Z" fill="#D9D9D9"/>
</mask>
<g mask="url(#mask0_67_123)">
<path d="M210.896 290C210.896 336.392 198.359 374 152.597 374C106.836 374 94.2988 336.392 94.2988 290C94.2988 243.608 120.4 206 152.597 206C184.795 206 210.896 243.608 210.896 290Z" fill="#29191C"/>
</g>
<mask id="mask1_67_123" style="mask-type:alpha" maskUnits="userSpaceOnUse" x="94" y="206" width="117" height="168">
<path d="M210.896 290C210.896 336.392 198.359 374 152.597 374C106.836 374 94.2988 336.392 94.2988 290C94.2988 243.608 120.4 206 152.597 206C184.795 206 210.896 243.608 210.896 290Z" fill="#231E08"/>
</mask>
<g mask="url(#mask1_67_123)">
<ellipse cx="152.597" cy="375.881" rx="73.3433" ry="58.2985" fill="#7E3A2B"/>
</g>
<path d="M225.94 289.224C225.94 289.224 200.239 277.94 151.97 277.94C103.701 277.94 78 289.224 78 289.224" stroke="#29191C" stroke-width="19" stroke-linecap="round"/>
<mask id="mask2_67_123" style="mask-type:alpha" maskUnits="userSpaceOnUse" x="285" y="269" width="149" height="105">
<path d="M433.881 281.224C433.881 281.224 408.179 269.94 359.911 269.94C311.642 269.94 285.94 281.224 285.94 281.224V374H433.881V281.224Z" fill="#D9D9D9"/>
</mask>
<g mask="url(#mask2_67_123)">
<path d="M418.836 290C418.836 336.392 406.299 374 360.538 374C314.777 374 302.239 336.392 302.239 290C302.239 243.608 328.34 206 360.538 206C392.735 206 418.836 243.608 418.836 290Z" fill="#29191C"/>
</g>
<mask id="mask3_67_123" style="mask-type:alpha" maskUnits="userSpaceOnUse" x="302" y="206" width="117" height="168">
<path d="M418.836 290C418.836 336.392 406.299 374 360.538 374C314.777 374 302.239 336.392 302.239 290C302.239 243.608 328.34 206 360.538 206C392.735 206 418.836 243.608 418.836 290Z" fill="#231E08"/>
</mask>
<g mask="url(#mask3_67_123)">
<ellipse cx="360.538" cy="375.881" rx="73.3433" ry="58.2985" fill="#7E3A2B"/>
</g>
<path d="M433.881 289.224C433.881 289.224 408.179 277.94 359.911 277.94C311.642 277.94 285.94 289.224 285.94 289.224" stroke="#29191C" stroke-width="19" stroke-linecap="round"/>
<path d="M83.1523 151.044C86.3444 162.957 88.3667 191.369 70.9191 209.709M115.994 142.244C118.703 154.287 131.157 179.903 155.921 186.933" stroke="#231F19" stroke-width="19" stroke-linecap="round" stroke-linejoin="round"/>
<path d="M104.675 132.844L99.7623 114.51C99.1441 112.203 99.4181 109.748 100.529 107.633L108.939 112.051C100.529 107.633 100.529 107.631 100.53 107.63C100.531 107.629 100.532 107.628 100.532 107.627C100.534 107.624 100.535 107.62 100.537 107.617C100.541 107.609 100.546 107.6 100.552 107.588C100.565 107.564 100.583 107.53 100.605 107.488C100.65 107.404 100.713 107.284 100.795 107.132C100.959 106.827 101.196 106.389 101.5 105.835C102.108 104.727 102.988 103.151 104.093 101.243C106.298 97.4362 109.429 92.2575 113.119 86.8063C116.791 81.3828 121.127 75.5255 125.753 70.4427C130.232 65.5226 135.642 60.5835 141.572 57.8804C145.401 56.1349 149.923 57.1163 152.683 60.2928L145.513 66.5241C152.683 60.2927 152.686 60.2965 152.69 60.3003C152.691 60.3016 152.694 60.3049 152.697 60.3075C152.701 60.3127 152.705 60.3186 152.71 60.3241C152.72 60.335 152.73 60.3462 152.741 60.3584C152.761 60.3829 152.784 60.4105 152.809 60.4402C152.859 60.4995 152.917 60.5691 152.982 60.6495C153.113 60.8105 153.275 61.0144 153.464 61.2634C153.844 61.7616 154.337 62.4398 154.923 63.3192C156.096 65.0786 157.645 67.6389 159.428 71.1578C162.992 78.195 167.484 89.0623 171.765 105.042C176.047 121.022 177.591 132.679 178.023 140.555C178.239 144.494 178.177 147.486 178.041 149.596C177.973 150.651 177.885 151.485 177.805 152.106C177.766 152.416 177.728 152.674 177.695 152.878C177.678 152.981 177.663 153.07 177.649 153.146C177.643 153.185 177.637 153.22 177.631 153.251C177.628 153.267 177.625 153.282 177.622 153.296C177.621 153.303 177.62 153.311 177.618 153.317C177.618 153.321 177.616 153.326 177.616 153.327C177.616 153.33 177.615 153.332 176.449 153.107L168.289 151.526L177.615 153.337C176.812 157.468 173.387 160.579 169.198 160.982C162.711 161.606 155.556 160.033 149.217 158.012C142.669 155.923 135.986 153.018 130.094 150.157C124.173 147.282 118.872 144.362 115.059 142.168C113.148 141.068 111.598 140.143 110.517 139.488C109.977 139.16 109.553 138.899 109.258 138.717C109.111 138.626 108.997 138.554 108.916 138.503C108.876 138.478 108.843 138.458 108.82 138.443C108.809 138.436 108.799 138.431 108.792 138.426C108.789 138.424 108.786 138.421 108.783 138.42C108.782 138.419 108.781 138.419 108.78 138.419C108.779 138.418 108.777 138.417 113.851 130.385L108.777 138.416C106.758 137.14 105.293 135.151 104.675 132.844Z" fill="#363632" stroke="#231F19" stroke-width="19" stroke-linejoin="round"/>
<path d="M88.254 137.244L83.3415 118.91C82.7232 116.603 81.2583 114.613 79.2389 113.338L74.1652 121.369C79.239 113.337 79.2376 113.336 79.2363 113.335C79.2356 113.335 79.234 113.335 79.233 113.334C79.2305 113.333 79.2277 113.33 79.2241 113.327C79.217 113.323 79.2076 113.318 79.1963 113.311C79.1732 113.296 79.1406 113.276 79.1003 113.25C79.0197 113.2 78.9049 113.128 78.758 113.037C78.4638 112.854 78.0394 112.594 77.499 112.266C76.4182 111.611 74.8684 110.686 72.9571 109.586C69.1445 107.391 63.8436 104.472 57.922 101.596C52.0304 98.7353 45.3472 95.8305 38.799 93.742C32.4604 91.7203 25.3052 90.1482 18.8183 90.7721C14.6293 91.1751 11.2042 94.2859 10.4018 98.417L19.7274 100.228C10.4018 98.4169 10.4012 98.4217 10.4003 98.4265C10.3999 98.4283 10.3985 98.433 10.3978 98.4363C10.3965 98.443 10.3957 98.4503 10.3944 98.4574C10.3917 98.4716 10.3881 98.4866 10.3852 98.5024C10.3793 98.5341 10.3736 98.5692 10.3668 98.6074C10.3533 98.6837 10.3378 98.773 10.3214 98.8753C10.2884 99.0802 10.2507 99.3375 10.2109 99.648C10.1314 100.269 10.0437 101.103 9.97552 102.158C9.83908 104.268 9.77778 107.26 9.99377 111.198C10.4257 119.075 11.9693 130.732 16.2511 146.712C20.5328 162.691 25.0246 173.559 28.5888 180.596C30.371 184.115 31.92 186.675 33.0933 188.435C33.6798 189.314 34.1726 189.992 34.5521 190.49C34.7418 190.739 34.903 190.943 35.034 191.104C35.0995 191.185 35.1575 191.254 35.2074 191.314C35.2323 191.343 35.2549 191.371 35.2758 191.395C35.2862 191.408 35.2968 191.419 35.3062 191.43C35.311 191.435 35.3153 191.441 35.3198 191.446C35.322 191.449 35.3256 191.452 35.3268 191.453C35.3284 191.455 35.3296 191.457 36.2274 190.679L42.5034 185.23L35.3328 191.461C38.0933 194.637 42.6149 195.619 46.4442 193.873C52.374 191.17 57.7845 186.231 62.2631 181.311C66.8897 176.228 71.2251 170.371 74.8969 164.948C78.5874 159.496 81.7184 154.318 83.9231 150.511C85.0283 148.603 85.908 147.027 86.5162 145.919C86.8203 145.365 87.0575 144.927 87.2212 144.622C87.3029 144.469 87.3662 144.35 87.4108 144.266C87.4331 144.224 87.4511 144.19 87.4639 144.166C87.4701 144.154 87.4756 144.144 87.4795 144.137C87.4815 144.133 87.4825 144.129 87.4838 144.127C87.4844 144.126 87.4858 144.125 87.4861 144.124C87.4869 144.123 87.4875 144.121 79.0777 139.702L87.4873 144.121C88.5983 142.006 88.8722 139.551 88.254 137.244Z" fill="#363632" stroke="#231F19" stroke-width="19" stroke-linejoin="round"/>
<rect x="70.9277" y="109.285" width="36" height="44" transform="rotate(-15 70.9277 109.285)" fill="#363632" stroke="#231F19" stroke-width="19" stroke-linejoin="round"/>
<path d="M428.849 151.044C425.657 162.957 423.634 191.369 441.082 209.709M396.007 142.244C393.298 154.287 380.844 179.903 356.08 186.933" stroke="#231F19" stroke-width="19" stroke-linecap="round" stroke-linejoin="round"/>
<path d="M407.326 132.844L412.239 114.51C412.857 112.203 412.583 109.748 411.472 107.633L403.062 112.051C411.472 107.633 411.472 107.631 411.471 107.63C411.47 107.629 411.469 107.628 411.468 107.627C411.467 107.624 411.466 107.62 411.464 107.617C411.46 107.609 411.455 107.6 411.449 107.588C411.436 107.564 411.418 107.53 411.395 107.488C411.351 107.404 411.288 107.284 411.206 107.132C411.042 106.827 410.805 106.389 410.501 105.835C409.893 104.727 409.013 103.151 407.908 101.243C405.703 97.4362 402.572 92.2575 398.882 86.8063C395.21 81.3828 390.874 75.5255 386.248 70.4427C381.769 65.5226 376.359 60.5835 370.429 57.8804C366.6 56.1349 362.078 57.1163 359.317 60.2928L366.488 66.5241C359.318 60.2927 359.315 60.2965 359.311 60.3003C359.31 60.3016 359.307 60.3049 359.304 60.3075C359.3 60.3127 359.296 60.3186 359.291 60.3241C359.281 60.335 359.271 60.3462 359.26 60.3584C359.24 60.3829 359.217 60.4105 359.192 60.4402C359.142 60.4995 359.084 60.5691 359.019 60.6495C358.888 60.8105 358.726 61.0144 358.537 61.2634C358.157 61.7616 357.664 62.4398 357.078 63.3192C355.905 65.0786 354.356 67.6389 352.573 71.1578C349.009 78.195 344.517 89.0623 340.236 105.042C335.954 121.022 334.41 132.679 333.978 140.555C333.762 144.494 333.824 147.486 333.96 149.596C334.028 150.651 334.116 151.485 334.196 152.106C334.235 152.416 334.273 152.674 334.306 152.878C334.322 152.981 334.338 153.07 334.351 153.146C334.358 153.185 334.364 153.22 334.37 153.251C334.373 153.267 334.376 153.282 334.379 153.296C334.38 153.303 334.381 153.311 334.382 153.317C334.383 153.321 334.385 153.326 334.385 153.327C334.385 153.33 334.386 153.332 335.552 153.107L343.712 151.526L334.386 153.337C335.189 157.468 338.614 160.579 342.803 160.982C349.29 161.606 356.445 160.033 362.784 158.012C369.332 155.923 376.015 153.018 381.907 150.157C387.828 147.282 393.129 144.362 396.942 142.168C398.853 141.068 400.403 140.143 401.484 139.488C402.024 139.16 402.448 138.899 402.743 138.717C402.89 138.626 403.004 138.554 403.085 138.503C403.125 138.478 403.158 138.458 403.181 138.443C403.192 138.436 403.202 138.431 403.209 138.426C403.212 138.424 403.215 138.421 403.218 138.42C403.219 138.419 403.22 138.419 403.221 138.419C403.222 138.418 403.224 138.417 398.15 130.385L403.224 138.416C405.243 137.14 406.708 135.151 407.326 132.844Z" fill="#363632" stroke="#231F19" stroke-width="19" stroke-linejoin="round"/>
<path d="M423.747 137.244L428.659 118.91C429.278 116.603 430.743 114.613 432.762 113.338L437.836 121.369C432.762 113.337 432.763 113.336 432.765 113.335C432.765 113.335 432.767 113.335 432.768 113.334C432.77 113.333 432.773 113.33 432.777 113.327C432.784 113.323 432.793 113.318 432.805 113.311C432.828 113.296 432.86 113.276 432.901 113.25C432.981 113.2 433.096 113.128 433.243 113.037C433.537 112.854 433.962 112.594 434.502 112.266C435.583 111.611 437.133 110.686 439.044 109.586C442.856 107.391 448.157 104.472 454.079 101.596C459.971 98.7353 466.654 95.8305 473.202 93.742C479.541 91.7203 486.696 90.1482 493.183 90.7721C497.372 91.1751 500.797 94.2859 501.599 98.417L492.274 100.228C501.599 98.4169 501.6 98.4217 501.601 98.4265C501.601 98.4283 501.603 98.433 501.603 98.4363C501.604 98.443 501.605 98.4503 501.607 98.4574C501.609 98.4716 501.613 98.4866 501.616 98.5024C501.622 98.5341 501.627 98.5692 501.634 98.6074C501.648 98.6837 501.663 98.773 501.68 98.8753C501.713 99.0802 501.75 99.3375 501.79 99.648C501.87 100.269 501.957 101.103 502.025 102.158C502.162 104.268 502.223 107.26 502.007 111.198C501.575 119.075 500.032 130.732 495.75 146.712C491.468 162.691 486.976 173.559 483.412 180.596C481.63 184.115 480.081 186.675 478.908 188.435C478.321 189.314 477.828 189.992 477.449 190.49C477.259 190.739 477.098 190.943 476.967 191.104C476.902 191.185 476.843 191.254 476.794 191.314C476.769 191.343 476.746 191.371 476.725 191.395C476.715 191.408 476.704 191.419 476.695 191.43C476.69 191.435 476.686 191.441 476.681 191.446C476.679 191.449 476.675 191.452 476.674 191.454C476.673 191.455 476.671 191.457 475.774 190.679L469.498 185.23L476.668 191.461C473.908 194.637 469.386 195.619 465.557 193.873C459.627 191.17 454.216 186.231 449.738 181.311C445.111 176.228 440.776 170.371 437.104 164.948C433.414 159.496 430.283 154.318 428.078 150.511C426.973 148.603 426.093 147.027 425.485 145.919C425.181 145.365 424.943 144.927 424.78 144.622C424.698 144.47 424.635 144.35 424.59 144.266C424.568 144.224 424.55 144.19 424.537 144.166C424.531 144.154 424.525 144.144 424.521 144.137C424.52 144.133 424.519 144.129 424.517 144.127C424.517 144.126 424.515 144.125 424.515 144.124C424.514 144.123 424.513 144.121 432.923 139.702L424.514 144.121C423.403 142.006 423.129 139.551 423.747 137.244Z" fill="#363632" stroke="#231F19" stroke-width="19" stroke-linejoin="round"/>
<rect width="36" height="44" transform="matrix(-0.965926 -0.258819 -0.258819 0.965926 441.073 109.285)" fill="#363632" stroke="#231F19" stroke-width="19" stroke-linejoin="round"/>
<path d="M83.2978 151.044C86.4899 162.957 88.5122 191.369 71.0646 209.709M116.139 142.244C118.848 154.287 131.303 179.903 156.066 186.933" stroke="#231F19" stroke-width="19" stroke-linecap="round" stroke-linejoin="round"/>
<path d="M168.434 151.526C150.233 153.277 113.997 130.385 113.997 130.385L109.084 112.051C109.084 112.051 129.02 74.1086 145.658 66.5242C145.658 66.5242 154.473 76.6669 162.734 107.501C170.996 138.335 168.434 151.526 168.434 151.526Z" fill="#363632"/>
<path d="M162.735 107.501C154.486 76.7142 145.686 66.5552 145.659 66.5241C129.028 74.105 109.104 112.016 109.085 112.051C92.2652 103.214 92.2661 103.212 92.2673 103.209C92.2679 103.208 92.27 103.206 92.271 103.204C92.2732 103.2 92.2757 103.195 92.2784 103.19C92.2839 103.18 92.2905 103.166 92.2984 103.151C92.3142 103.121 92.3348 103.082 92.3601 103.035C92.4111 102.939 92.4816 102.807 92.5702 102.642C92.7475 102.311 92.9984 101.846 93.3181 101.263C93.9569 100.1 94.8723 98.4602 96.0182 96.4818C98.2987 92.5444 101.549 87.1662 105.399 81.4803C109.21 75.8502 113.83 69.5898 118.874 64.048C123.623 58.8313 130.078 52.7455 137.778 49.2355L138.138 49.0764C145.718 45.8073 154.566 47.8078 160 54.0615L145.659 66.5241C159.886 54.1602 160.006 54.0687 160.013 54.0753C160.015 54.0778 160.022 54.0859 160.027 54.0909C160.035 54.1008 160.044 54.111 160.053 54.1213C160.071 54.1419 160.089 54.1635 160.107 54.1855C160.145 54.2295 160.184 54.2763 160.226 54.3256C160.309 54.4242 160.4 54.5331 160.498 54.6532C160.693 54.8933 160.917 55.1774 161.168 55.5067C161.67 56.1654 162.277 57.0067 162.973 58.0492C164.364 60.1353 166.102 63.0225 168.048 66.865C171.94 74.5496 176.655 86.0404 181.088 102.583C185.52 119.126 187.183 131.435 187.654 140.036C187.89 144.337 187.828 147.706 187.667 150.208C187.586 151.459 187.48 152.491 187.375 153.312C187.323 153.723 187.27 154.081 187.221 154.387C187.197 154.54 187.172 154.68 187.15 154.806C187.138 154.87 187.128 154.93 187.117 154.987C187.112 155.015 187.107 155.043 187.102 155.07C187.099 155.083 187.097 155.096 187.094 155.109C187.093 155.116 187.091 155.126 187.091 155.13C187.089 155.134 187.052 155.132 184.757 154.689L168.435 151.526C168.443 151.486 170.906 138.697 163.115 108.933L162.735 107.501ZM95.6449 135.303L90.7324 116.969C89.4959 112.354 90.0435 107.443 92.2655 103.214L109.085 112.051L113.997 130.385C114.031 130.406 150.242 153.276 168.435 151.526L187.086 155.148C185.482 163.41 178.633 169.632 170.255 170.438C161.831 171.249 153.198 169.206 146.477 167.062C139.337 164.785 132.206 161.673 126.09 158.703C119.914 155.704 114.41 152.672 110.466 150.402C108.484 149.262 106.872 148.299 105.737 147.611C105.169 147.266 104.719 146.989 104.4 146.791C104.241 146.693 104.114 146.614 104.022 146.556C103.976 146.527 103.938 146.504 103.91 146.486C103.896 146.477 103.883 146.469 103.873 146.462C103.868 146.459 103.864 146.456 103.86 146.454C103.858 146.453 103.855 146.452 103.854 146.451C103.852 146.45 103.85 146.448 113.997 130.385L103.85 146.448C99.8113 143.897 96.8813 139.917 95.6449 135.303Z" fill="#231F19"/>
<path d="M42.6501 185.23C59.2888 177.645 79.2242 139.702 79.2242 139.702L74.3117 121.369C74.3117 121.369 38.0758 98.4771 19.874 100.228C19.874 100.228 17.3119 113.419 25.5739 144.253C33.8358 175.087 42.6501 185.23 42.6501 185.23Z" fill="#363632"/>
<path d="M25.5736 144.253C17.3244 113.467 19.8658 100.269 19.8736 100.228C38.0668 98.478 74.2774 121.347 74.3114 121.369C84.4591 105.306 84.4572 105.304 84.4548 105.302C84.4539 105.302 84.451 105.301 84.4491 105.3C84.4452 105.298 84.4407 105.295 84.4357 105.291C84.4258 105.285 84.4134 105.277 84.3991 105.268C84.3704 105.25 84.3331 105.226 84.2872 105.198C84.195 105.14 84.0681 105.061 83.9088 104.962C83.5901 104.765 83.1401 104.487 82.572 104.143C81.4369 103.454 79.8244 102.492 77.8428 101.352C73.8991 99.0822 68.395 96.0498 62.2184 93.0503C56.1024 90.0803 48.9716 86.9684 41.832 84.6913C35.1113 82.5478 26.4779 80.505 18.0543 81.3154L17.6632 81.3575C9.4639 82.3165 2.80214 88.4726 1.22241 96.6059L19.8736 100.228C1.37054 96.6343 1.22123 96.6149 1.21822 96.6242C1.21759 96.6275 1.21578 96.6379 1.21453 96.6444C1.21205 96.6573 1.20943 96.6706 1.2069 96.6838C1.20181 96.7107 1.197 96.7384 1.19171 96.7668C1.18113 96.8237 1.17047 96.884 1.15922 96.9474C1.1367 97.0742 1.11221 97.2141 1.08763 97.3669C1.03847 97.6726 0.986327 98.0308 0.933729 98.4414C0.828519 99.2627 0.723071 100.295 0.642226 101.545C0.480462 104.048 0.418553 107.417 0.654403 111.718C1.12609 120.319 2.78839 132.628 7.22101 149.171C11.6536 165.713 16.3684 177.204 20.2605 184.889C22.2066 188.731 23.945 191.619 25.3362 193.705C26.0314 194.747 26.6389 195.588 27.1407 196.247C27.3915 196.576 27.6158 196.86 27.8112 197.101C27.9089 197.221 28 197.33 28.083 197.428C28.1244 197.477 28.1638 197.524 28.2014 197.568C28.2202 197.59 28.2382 197.612 28.256 197.633C28.2649 197.643 28.2738 197.653 28.2823 197.663C28.2867 197.668 28.2935 197.676 28.2956 197.679C28.2992 197.682 28.3304 197.661 30.0969 196.13L42.6497 185.23C42.623 185.199 34.0956 175.355 25.9608 145.683L25.5736 144.253ZM97.5765 134.785L92.664 116.451C91.4275 111.837 88.4976 107.857 84.4587 105.305L74.3114 121.369L79.2239 139.702C79.2054 139.738 59.2806 177.649 42.6497 185.23L28.3084 197.692C33.8293 204.045 42.872 206.009 50.5305 202.518C58.2308 199.008 64.6861 192.923 69.4346 187.706C74.4791 182.164 79.0987 175.904 82.9103 170.273C86.7596 164.588 90.0101 159.209 92.2906 155.272C93.4366 153.294 94.352 151.654 94.9908 150.49C95.3105 149.908 95.5614 149.442 95.7386 149.112C95.8273 148.947 95.8978 148.815 95.9488 148.719C95.9741 148.671 95.9947 148.632 96.0105 148.602C96.0184 148.588 96.025 148.574 96.0305 148.564C96.0332 148.559 96.0357 148.554 96.0378 148.55C96.0389 148.548 96.041 148.546 96.0415 148.545C96.0428 148.542 96.0436 148.54 79.2239 139.702L96.0434 148.54C98.2654 144.311 98.813 139.4 97.5765 134.785Z" fill="#231F19"/>
<rect x="71.0732" y="109.285" width="36" height="44" transform="rotate(-15 71.0732 109.285)" fill="#363632" stroke="#231F19" stroke-width="19" stroke-linejoin="round"/>
<path d="M428.7 151.044C425.508 162.957 423.486 191.369 440.933 209.709M395.859 142.244C393.15 154.287 380.695 179.903 355.932 186.933" stroke="#231F19" stroke-width="19" stroke-linecap="round" stroke-linejoin="round"/>
<path d="M343.564 151.526C361.766 153.277 398.001 130.385 398.001 130.385L402.914 112.051C402.914 112.051 382.979 74.1086 366.34 66.5242C366.34 66.5242 357.526 76.6669 349.264 107.501C341.002 138.335 343.564 151.526 343.564 151.526Z" fill="#363632"/>
<path d="M349.263 107.501C357.512 76.7142 366.312 66.5552 366.339 66.5241C382.97 74.105 402.894 112.016 402.913 112.051C419.733 103.214 419.732 103.212 419.731 103.209C419.73 103.208 419.728 103.206 419.727 103.204C419.725 103.2 419.722 103.195 419.72 103.19C419.714 103.18 419.708 103.166 419.7 103.151C419.684 103.121 419.663 103.082 419.638 103.035C419.587 102.939 419.516 102.807 419.428 102.642C419.251 102.311 419 101.846 418.68 101.263C418.041 100.1 417.126 98.4602 415.98 96.4818C413.699 92.5444 410.449 87.1662 406.599 81.4803C402.788 75.8502 398.168 69.5898 393.124 64.048C388.375 58.8313 381.92 52.7455 374.22 49.2355L373.86 49.0764C366.28 45.8073 357.432 47.8078 351.998 54.0615L366.339 66.5241C352.112 54.1602 351.992 54.0687 351.985 54.0753C351.983 54.0778 351.976 54.0859 351.972 54.0909C351.963 54.1008 351.954 54.111 351.945 54.1213C351.927 54.1419 351.909 54.1635 351.891 54.1855C351.853 54.2295 351.814 54.2763 351.772 54.3256C351.689 54.4242 351.598 54.5331 351.5 54.6532C351.305 54.8933 351.081 55.1774 350.83 55.5067C350.328 56.1654 349.721 57.0067 349.025 58.0492C347.634 60.1353 345.896 63.0225 343.95 66.865C340.058 74.5496 335.343 86.0404 330.91 102.583C326.478 119.126 324.815 131.435 324.344 140.036C324.108 144.337 324.17 147.706 324.331 150.208C324.412 151.459 324.518 152.491 324.623 153.312C324.675 153.723 324.728 154.081 324.777 154.387C324.801 154.54 324.826 154.68 324.848 154.806C324.86 154.87 324.87 154.93 324.881 154.987C324.886 155.015 324.891 155.043 324.896 155.07C324.899 155.083 324.901 155.096 324.904 155.109C324.905 155.116 324.907 155.126 324.907 155.13C324.909 155.134 324.946 155.132 327.241 154.689L343.563 151.526C343.555 151.486 341.092 138.697 348.883 108.933L349.263 107.501ZM416.353 135.303L421.266 116.969C422.502 112.354 421.955 107.443 419.733 103.214L402.913 112.051L398.001 130.385C397.967 130.406 361.756 153.276 343.563 151.526L324.912 155.148C326.516 163.41 333.366 169.632 341.743 170.438C350.167 171.249 358.8 169.206 365.521 167.062C372.661 164.785 379.792 161.673 385.908 158.703C392.084 155.704 397.588 152.672 401.532 150.402C403.514 149.262 405.126 148.299 406.261 147.611C406.829 147.266 407.279 146.989 407.598 146.791C407.757 146.693 407.884 146.614 407.976 146.556C408.022 146.527 408.06 146.504 408.088 146.486C408.103 146.477 408.115 146.469 408.125 146.462C408.13 146.459 408.134 146.456 408.138 146.454C408.14 146.453 408.143 146.452 408.144 146.451C408.146 146.45 408.148 146.448 398.001 130.385L408.148 146.448C412.187 143.897 415.117 139.917 416.353 135.303Z" fill="#231F19"/>
<path d="M469.348 185.23C452.709 177.645 432.774 139.702 432.774 139.702L437.686 121.369C437.686 121.369 473.922 98.4771 492.124 100.228C492.124 100.228 494.686 113.419 486.424 144.253C478.162 175.087 469.348 185.23 469.348 185.23Z" fill="#363632"/>
<path d="M486.424 144.253C494.674 113.467 492.132 100.269 492.124 100.228C473.931 98.478 437.721 121.347 437.687 121.369C427.539 105.306 427.541 105.304 427.543 105.302C427.544 105.302 427.547 105.301 427.549 105.3C427.553 105.298 427.557 105.295 427.562 105.291C427.572 105.285 427.585 105.277 427.599 105.268C427.628 105.25 427.665 105.226 427.711 105.198C427.803 105.14 427.93 105.061 428.089 104.962C428.408 104.765 428.858 104.487 429.426 104.143C430.561 103.454 432.174 102.492 434.155 101.352C438.099 99.0822 443.603 96.0498 449.78 93.0503C455.896 90.0803 463.026 86.9684 470.166 84.6913C476.887 82.5478 485.52 80.505 493.944 81.3154L494.335 81.3575C502.534 82.3165 509.196 88.4726 510.776 96.6059L492.124 100.228C510.628 96.6343 510.777 96.6149 510.78 96.6242C510.78 96.6275 510.782 96.6379 510.784 96.6444C510.786 96.6573 510.789 96.6706 510.791 96.6838C510.796 96.7107 510.801 96.7384 510.806 96.7668C510.817 96.8237 510.828 96.884 510.839 96.9474C510.861 97.0742 510.886 97.2141 510.91 97.3669C510.96 97.6726 511.012 98.0308 511.064 98.4414C511.17 99.2627 511.275 100.295 511.356 101.545C511.518 104.048 511.579 107.417 511.344 111.718C510.872 120.319 509.21 132.628 504.777 149.171C500.344 165.713 495.63 177.204 491.738 184.889C489.791 188.731 488.053 191.619 486.662 193.705C485.967 194.747 485.359 195.588 484.857 196.247C484.607 196.576 484.382 196.86 484.187 197.101C484.089 197.221 483.998 197.33 483.915 197.428C483.874 197.477 483.834 197.524 483.797 197.568C483.778 197.59 483.76 197.612 483.742 197.633C483.733 197.643 483.724 197.653 483.716 197.663C483.711 197.668 483.705 197.676 483.702 197.679C483.699 197.682 483.668 197.661 481.901 196.13L469.348 185.23C469.375 185.199 477.902 175.355 486.037 145.683L486.424 144.253ZM414.422 134.785L419.334 116.451C420.571 111.837 423.5 107.857 427.539 105.305L437.687 121.369L432.774 139.702C432.793 139.738 452.717 177.649 469.348 185.23L483.69 197.692C478.169 204.045 469.126 206.009 461.468 202.518C453.767 199.008 447.312 192.923 442.563 187.706C437.519 182.164 432.899 175.904 429.088 170.273C425.238 164.588 421.988 159.209 419.707 155.272C418.561 153.294 417.646 151.654 417.007 150.49C416.688 149.908 416.437 149.442 416.259 149.112C416.171 148.947 416.1 148.815 416.049 148.719C416.024 148.671 416.003 148.632 415.988 148.602C415.98 148.588 415.973 148.574 415.968 148.564C415.965 148.559 415.962 148.554 415.96 148.55C415.959 148.548 415.957 148.546 415.957 148.545C415.955 148.542 415.954 148.54 432.774 139.702L415.955 148.54C413.733 144.311 413.185 139.4 414.422 134.785Z" fill="#231F19"/>
<rect width="36" height="44" transform="matrix(-0.965926 -0.258819 -0.258819 0.965926 440.925 109.285)" fill="#363632" stroke="#231F19" stroke-width="19" stroke-linejoin="round"/>
</g>
<defs>
<clipPath id="clip0_67_123">
<rect width="512" height="512" fill="white"/>
</clipPath>
</defs>
</svg>
