<svg width="512" height="512" viewBox="0 0 512 512" fill="none" xmlns="http://www.w3.org/2000/svg">
<g clip-path="url(#clip0_30_57)">
<rect width="512" height="512" fill="#5E524D"/>
<path d="M195 474C195 474 199.189 425.404 199.696 410H312.304C312.811 425.404 317 474 317 474C311.333 485 281.271 494 256 494C230.73 494 200.667 485 195 474Z" fill="#2E2C2B" stroke="#282323" stroke-width="19" stroke-linejoin="round"/>
<path d="M256 494C230.73 494 200.667 485 195 474C165.5 485 143 481.5 125.5 481.5C108 481.5 67.5001 496.5 68.5001 517V550.5H443.5V517C444.5 496.5 404 481.5 386.5 481.5C369 481.5 346.5 485 317 474C311.333 485 281.271 494 256 494Z" fill="#494746" stroke="#282323" stroke-width="19" stroke-linejoin="round"/>
<mask id="mask0_30_57" style="mask-type:alpha" maskUnits="userSpaceOnUse" x="58" y="464" width="396" height="96">
<path d="M256 494C230.73 494 200.667 485 195 474C165.5 485 143 481.5 125.5 481.5C108 481.5 67.5001 496.5 68.5001 517V550.5H443.5V517C444.5 496.5 404 481.5 386.5 481.5C369 481.5 346.5 485 317 474C311.333 485 281.271 494 256 494Z" fill="#494746" stroke="#282323" stroke-width="19" stroke-linejoin="round"/>
</mask>
<g mask="url(#mask0_30_57)">
<path d="M195 474C195 474 199.189 425.404 199.696 410H312.304C312.811 425.404 317 474 317 474C311.333 485 281.271 494 256 494C230.73 494 200.667 485 195 474Z" stroke="#857B77" stroke-width="57" stroke-linejoin="round"/>
</g>
<path d="M256 494C230.73 494 200.667 485 195 474C165.5 485 143 481.5 125.5 481.5C108 481.5 67.5001 496.5 68.5001 517V550.5H443.5V517C444.5 496.5 404 481.5 386.5 481.5C369 481.5 346.5 485 317 474C311.333 485 281.271 494 256 494Z" stroke="#282323" stroke-width="19" stroke-linejoin="round"/>
<path d="M256 33.5C375.924 33.5 474.5 123.218 474.5 235.5C474.5 289.796 462.91 340.702 428.827 378.024C394.597 415.507 339.339 437.5 256 437.5C172.661 437.5 117.403 415.507 83.1729 378.024C49.0898 340.702 37.5 289.796 37.5 235.5C37.5 123.218 136.076 33.5 256 33.5Z" fill="#D4C4C4" stroke="#282323" stroke-width="19"/>
<path d="M264 408C261.6 403.333 257.655 401.28 256 401C254.345 401.28 250.4 403.333 248 408" stroke="#282323" stroke-width="19" stroke-linecap="round" stroke-linejoin="round"/>
<path d="M47.5438 390.029C123.359 357.851 204.429 237.905 213.5 173.5C219 201 242 282 316.5 303C302.5 256 301.5 230.5 322.5 188C339.5 247 432 280 529.5 282V-35H-15V532H122.5C92.0798 506.068 53.204 457.256 47.5438 390.029Z" fill="#5E524D"/>
<path d="M24.5 397C106 383 203.5 244.5 213.5 173.5C219 201 242 282 316.5 303C302.5 256 301.5 230.5 322.5 188C339.5 247 432 280 529.5 282V-35H-15L-15 532H122.5C92 506 53 457 47.5 389.5" stroke="#282323" stroke-width="19" stroke-linecap="round" stroke-linejoin="round"/>
<mask id="mask1_30_57" style="mask-type:alpha" maskUnits="userSpaceOnUse" x="78" y="269" width="148" height="105">
<path d="M225.94 281.224C225.94 281.224 200.239 269.94 151.97 269.94C103.701 269.94 78 281.224 78 281.224V374H225.94V281.224Z" fill="#D9D9D9"/>
</mask>
<g mask="url(#mask1_30_57)">
<path d="M210.895 290C210.895 336.392 198.358 374 152.597 374C106.836 374 94.2983 336.392 94.2983 290C94.2983 243.608 120.399 206 152.597 206C184.794 206 210.895 243.608 210.895 290Z" fill="#282323"/>
</g>
<mask id="mask2_30_57" style="mask-type:alpha" maskUnits="userSpaceOnUse" x="94" y="206" width="117" height="168">
<path d="M210.895 290C210.895 336.392 198.358 374 152.597 374C106.836 374 94.2983 336.392 94.2983 290C94.2983 243.608 120.399 206 152.597 206C184.794 206 210.895 243.608 210.895 290Z" fill="#231E08"/>
</mask>
<g mask="url(#mask2_30_57)">
<ellipse cx="152.597" cy="375.881" rx="73.3433" ry="58.2985" fill="#705656"/>
</g>
<path d="M225.94 289.224C225.94 289.224 200.239 277.94 151.97 277.94C103.701 277.94 78 289.224 78 289.224" stroke="#282323" stroke-width="19" stroke-linecap="round"/>
<mask id="mask3_30_57" style="mask-type:alpha" maskUnits="userSpaceOnUse" x="285" y="269" width="149" height="105">
<path d="M433.881 281.224C433.881 281.224 408.179 269.94 359.911 269.94C311.642 269.94 285.94 281.224 285.94 281.224V374H433.881V281.224Z" fill="#D9D9D9"/>
</mask>
<g mask="url(#mask3_30_57)">
<path d="M418.836 290C418.836 336.392 406.298 374 360.537 374C314.776 374 302.239 336.392 302.239 290C302.239 243.608 328.34 206 360.537 206C392.735 206 418.836 243.608 418.836 290Z" fill="#282323"/>
</g>
<mask id="mask4_30_57" style="mask-type:alpha" maskUnits="userSpaceOnUse" x="302" y="206" width="117" height="168">
<path d="M418.836 290C418.836 336.392 406.298 374 360.537 374C314.776 374 302.239 336.392 302.239 290C302.239 243.608 328.34 206 360.537 206C392.735 206 418.836 243.608 418.836 290Z" fill="#231E08"/>
</mask>
<g mask="url(#mask4_30_57)">
<ellipse cx="360.538" cy="375.881" rx="73.3433" ry="58.2985" fill="#705656"/>
</g>
<path d="M433.881 289.224C433.881 289.224 408.179 277.94 359.911 277.94C311.642 277.94 285.94 289.224 285.94 289.224" stroke="#282323" stroke-width="19" stroke-linecap="round"/>
<path d="M144.5 225.5C184.455 225.5 209.593 236.29 224.761 251.442C239.96 266.626 246.5 287.538 246.5 310.5C246.5 333.462 239.96 354.374 224.761 369.558C209.593 384.71 184.455 395.5 144.5 395.5C104.545 395.5 79.4074 384.71 64.2393 369.558C49.0403 354.374 42.5 333.462 42.5 310.5C42.5 287.538 49.0403 266.626 64.2393 251.442C79.4074 236.29 104.545 225.5 144.5 225.5Z" fill="#E1EEFF" fill-opacity="0.12" stroke="#282323" stroke-width="19"/>
<path d="M367.5 225.5C407.455 225.5 432.593 236.29 447.761 251.442C462.96 266.626 469.5 287.538 469.5 310.5C469.5 333.462 462.96 354.374 447.761 369.558C432.593 384.71 407.455 395.5 367.5 395.5C327.545 395.5 302.407 384.71 287.239 369.558C272.04 354.374 265.5 333.462 265.5 310.5C265.5 287.538 272.04 266.626 287.239 251.442C302.407 236.29 327.545 225.5 367.5 225.5Z" fill="#E1EEFF" fill-opacity="0.12" stroke="#282323" stroke-width="19"/>
<path d="M218.7 25.5236C222.11 -31.2468 189.714 -126.824 37.7597 -183.573C-45.179 -77.1584 -26.4196 59.4748 29.5453 104.883" stroke="#282323" stroke-width="19" stroke-linecap="round"/>
<path d="M293.303 25.5236C289.893 -31.2468 322.289 -126.824 474.243 -183.573C557.181 -77.1584 538.422 59.4749 482.457 104.883" stroke="#282323" stroke-width="19" stroke-linecap="round"/>
</g>
<defs>
<clipPath id="clip0_30_57">
<rect width="512" height="512" fill="white"/>
</clipPath>
</defs>
</svg>
