<svg width="512" height="512" viewBox="0 0 512 512" fill="none" xmlns="http://www.w3.org/2000/svg">
<g clip-path="url(#clip0_63_34)">
<rect width="512" height="512" fill="#F89470"/>
<path d="M209.5 474C216.3 460 218.667 425.833 219 410.5H293C293.333 425.833 295.7 460 302.5 474C296.833 485 266.8 509.4 256 519C245.2 509.4 215.167 485 209.5 474Z" fill="#FEF9E3" stroke="#76111E" stroke-width="19" stroke-linejoin="round"/>
<path d="M302.5 474C332 485 369 481.5 386.5 481.5C404 481.5 444.5 496.5 443.5 517V550.5H68.4996V517C67.4996 496.5 108 481.5 125.5 481.5C143 481.5 180 485 209.5 474C216.3 460 218.667 425.833 219 410.5H293C293.333 425.833 295.7 460 302.5 474Z" fill="#FEF9E3"/>
<path d="M334 481L356.5 550M178 481L155.5 550M209.5 474C180 485 143 481.5 125.5 481.5C108 481.5 67.4996 496.5 68.4996 517V550.5H443.5V517C444.5 496.5 404 481.5 386.5 481.5C369 481.5 332 485 302.5 474C295.7 460 293.333 425.833 293 410.5H219C218.667 425.833 216.3 460 209.5 474Z" stroke="#76111E" stroke-width="19" stroke-linejoin="round"/>
<path d="M256 33.5C375.924 33.5 474.5 123.218 474.5 235.5C474.5 289.796 462.91 340.702 428.827 378.024C394.597 415.507 339.339 437.5 256 437.5C172.661 437.5 117.403 415.507 83.1729 378.024C49.0898 340.702 37.5 289.796 37.5 235.5C37.5 123.218 136.076 33.5 256 33.5Z" fill="#FEF9E3" stroke="#76111E" stroke-width="19"/>
<path d="M264 408C261.6 403.333 257.655 401.28 256 401C254.345 401.28 250.4 403.333 248 408" stroke="#76111E" stroke-width="19" stroke-linecap="round" stroke-linejoin="round"/>
<path d="M-32 -32V544H70.5344C59.3993 507.591 55.7882 456.753 57 430.5V430.457C66.2636 433.242 76.1148 434.048 85.5 432C52.3188 373.295 45.5346 321.142 61.5 269C95 261 141 238.5 142.5 191H143.049C165.864 232.729 213.343 264.942 261.5 267C241.5 257.5 228 242.5 223 229.5C278.809 254.532 368.298 258.009 439.5 239.379V240C467.5 301.5 465.5 363 426.5 432C435.885 434.048 445.736 433.242 455 430.457V430.5C456.212 456.753 452.601 507.591 441.466 544H544V-32H-32Z" fill="#F89470"/>
<path d="M132 163C145.5 217.5 203 264.5 261.5 267C241.5 257.5 228 242.5 223 229.5C291 260 409 258.5 483 224C416.5 219.5 341 190.5 309 155.5M439.5 240C467.5 301.5 465.5 363 426.5 432C454 438 485.5 419.5 494.5 398.5M57 430.5C55.7882 456.753 59.3993 507.591 70.5344 544H-32L-32 -32H544V544H441.466C452.601 507.591 456.212 456.753 455 430.5M17.5 398.5C26.5 419.5 58 438 85.5 432C52.3188 373.295 45.5346 321.142 61.5 269C95 261 141 238.5 142.5 191" stroke="#76111E" stroke-width="19" stroke-linecap="round" stroke-linejoin="round"/>
<mask id="mask0_63_34" style="mask-type:alpha" maskUnits="userSpaceOnUse" x="78" y="269" width="148" height="105">
<path d="M225.94 281.224C225.94 281.224 200.239 269.94 151.97 269.94C103.701 269.94 78 281.224 78 281.224V374H225.94V281.224Z" fill="#D9D9D9"/>
</mask>
<g mask="url(#mask0_63_34)">
<path d="M210.896 290C210.896 336.392 198.359 374 152.597 374C106.836 374 94.2988 336.392 94.2988 290C94.2988 243.608 120.4 206 152.597 206C184.795 206 210.896 243.608 210.896 290Z" fill="#76111E"/>
</g>
<mask id="mask1_63_34" style="mask-type:alpha" maskUnits="userSpaceOnUse" x="94" y="206" width="117" height="168">
<path d="M210.896 290C210.896 336.392 198.359 374 152.597 374C106.836 374 94.2988 336.392 94.2988 290C94.2988 243.608 120.4 206 152.597 206C184.795 206 210.896 243.608 210.896 290Z" fill="#231E08"/>
</mask>
<g mask="url(#mask1_63_34)">
<ellipse cx="152.597" cy="375.881" rx="73.3433" ry="58.2985" fill="#A83944"/>
</g>
<path d="M225.94 289.224C225.94 289.224 200.239 277.94 151.97 277.94C103.701 277.94 78 289.224 78 289.224" stroke="#76111E" stroke-width="19" stroke-linecap="round"/>
<mask id="mask2_63_34" style="mask-type:alpha" maskUnits="userSpaceOnUse" x="285" y="269" width="149" height="105">
<path d="M433.881 281.224C433.881 281.224 408.179 269.94 359.911 269.94C311.642 269.94 285.94 281.224 285.94 281.224V374H433.881V281.224Z" fill="#D9D9D9"/>
</mask>
<g mask="url(#mask2_63_34)">
<path d="M418.836 290C418.836 336.392 406.299 374 360.538 374C314.777 374 302.239 336.392 302.239 290C302.239 243.608 328.34 206 360.538 206C392.735 206 418.836 243.608 418.836 290Z" fill="#76111E"/>
</g>
<mask id="mask3_63_34" style="mask-type:alpha" maskUnits="userSpaceOnUse" x="302" y="206" width="117" height="168">
<path d="M418.836 290C418.836 336.392 406.299 374 360.538 374C314.777 374 302.239 336.392 302.239 290C302.239 243.608 328.34 206 360.538 206C392.735 206 418.836 243.608 418.836 290Z" fill="#231E08"/>
</mask>
<g mask="url(#mask3_63_34)">
<ellipse cx="360.538" cy="375.881" rx="73.3433" ry="58.2985" fill="#A83944"/>
</g>
<path d="M433.881 289.224C433.881 289.224 408.179 277.94 359.911 277.94C311.642 277.94 285.94 289.224 285.94 289.224" stroke="#76111E" stroke-width="19" stroke-linecap="round"/>
<path d="M235 333C235 379.5 214.5 387 152.5 387C90.5 387 70 379.5 70 333" stroke="#76111E" stroke-width="19" stroke-linecap="round"/>
<path d="M442 333C442 379.5 421.5 387 359.5 387C297.5 387 277 379.5 277 333" stroke="#76111E" stroke-width="19" stroke-linecap="round"/>
<path d="M-78.9999 143C115.5 188 357 36.5 543.5 68.5L545 -40H-78.9999V143Z" fill="#F7C9BC" stroke="#593754" stroke-width="19" stroke-linecap="round" stroke-linejoin="round"/>
<path d="M-27 48C34 74 262.5 25 336.5 -20L293 -86L-144 -44L-27 48Z" fill="#B8EDFD" stroke="#3C4C55" stroke-width="19" stroke-linecap="round" stroke-linejoin="round"/>
</g>
<defs>
<clipPath id="clip0_63_34">
<rect width="512" height="512" fill="white"/>
</clipPath>
</defs>
</svg>
